{
.appVersion = "983";
copyright = "Copyright © 1990, 2001 Adobe Systems Incorporated.  All Rights Reserved.";
customParameters = (
{
name = licenseURL;
value = "http://www.adobe.com/type/legal.html";
},
{
name = vendorID;
value = ADBE;
},
{
name = panose;
value = (
0,
0,
5,
0,
0,
0,
0,
0,
0,
0
);
},
{
name = unicodeRanges;
value = (
0,
1,
2,
3,
5,
7,
31,
33,
35,
38,
45,
62
);
},
{
name = codePageRanges;
value = (
1252
);
},
{
name = "Family Alignment Zones";
value = (
"{688, 12}",
"{470, 12}",
"{404, 0}",
"{273, -7}",
"{0, -12}",
"{-182, -20}"
);
},
{
name = glyphOrder;
value = (
.notdef,
space,
exclam,
quotedbl,
numbersign,
dollar,
percent,
ampersand,
quoteright,
parenleft,
parenright,
asterisk,
plus,
comma,
hyphen,
period,
slash,
zero,
one,
two,
three,
four,
five,
six,
seven,
eight,
nine,
colon,
semicolon,
less,
equal,
greater,
question,
at,
A,
B,
C,
D,
E,
F,
G,
H,
I,
J,
K,
L,
M,
N,
O,
P,
Q,
R,
S,
T,
U,
V,
W,
X,
Y,
Z,
bracketleft,
backslash,
bracketright,
asciicircum,
underscore,
quoteleft,
a,
b,
c,
d,
e,
f,
g,
h,
i,
j,
k,
l,
m,
n,
o,
p,
q,
r,
s,
t,
u,
v,
w,
x,
y,
z,
braceleft,
bar,
braceright,
asciitilde,
exclamdown,
cent,
sterling,
fraction,
yen,
florin,
section,
currency,
quotesingle,
quotedblleft,
guillemotleft,
guilsinglleft,
guilsinglright,
fi,
fl,
endash,
dagger,
daggerdbl,
periodcentered,
paragraph,
bullet,
quotesinglbase,
quotedblbase,
quotedblright,
guillemotright,
ellipsis,
perthousand,
questiondown,
grave,
acute,
circumflex,
tilde,
macron,
breve,
dotaccent,
dieresis,
ring,
cedilla,
hungarumlaut,
ogonek,
caron,
emdash,
AE,
ordfeminine,
Lslash,
Oslash,
OE,
ordmasculine,
ae,
dotlessi,
lslash,
oslash,
oe,
germandbls,
onesuperior,
logicalnot,
mu,
trademark,
Eth,
onehalf,
plusminus,
Thorn,
onequarter,
divide,
brokenbar,
degree,
thorn,
threequarters,
twosuperior,
registered,
minus,
eth,
multiply,
threesuperior,
copyright,
Aacute,
Acircumflex,
Adieresis,
Agrave,
Aring,
Atilde,
Ccedilla,
Eacute,
Ecircumflex,
Edieresis,
Egrave,
Iacute,
Icircumflex,
Idieresis,

glyphs = (
{
glyphname = .notdef;
lastChange = "2017-06-09 11:44:12 +0000";
layers = (
{
layerId = "FDC62533-83BB-4EB8-8B15-51662AB4ACD2";
paths = (
{
closed = 1;
nodes = (
"116 0 LINE",
"616 0 LINE",
"616 700 LINE",
"116 700 LINE"
);
},
{
closed = 1;
nodes = (
"366 395 LINE",
"196 650 LINE",
"536 650 LINE"
);
},
{
closed = 1;
nodes = (
"396 350 LINE",
"566 605 LINE",
"566 95 LINE"
);
},
{
closed = 1;
nodes = (
"196 50 LINE",
"366 305 LINE",
"536 50 LINE"
);
},
{
closed = 1;
nodes = (
"166 605 LINE",
"336 350 LINE",
"166 95 LINE"
);
}
);
width = 616;
}
);
note = .notdef;
},
{
glyphname = exclam;
lastChange = "2017-06-09 11:44:12 +0000";
layers = (
{
layerId = "FDC62533-83BB-4EB8-8B15-51662AB4ACD2";
paths = (
{
closed = 1;
nodes = (
"238 490 OFFCURVE",
"303 532 OFFCURVE",
"303 618 CURVE SMOOTH",
"303 652 OFFCURVE",
"282 676 OFFCURVE",
"248 676 CURVE SMOOTH",
"210 676 OFFCURVE",
"182 636 OFFCURVE",
"176 588 CURVE SMOOTH",
"161 469 OFFCURVE",
"145 343 OFFCURVE",
"111 190 CURVE",
"145 190 LINE"
);
},
{
closed = 1;
nodes = (
"34 18 OFFCURVE",
"58 -6 OFFCURVE",
"92 -6 CURVE SMOOTH",
"124 -6 OFFCURVE",
"150 18 OFFCURVE",
"150 50 CURVE SMOOTH",
"150 82 OFFCURVE",
"124 106 OFFCURVE",
"92 106 CURVE SMOOTH",
"60 106 OFFCURVE",
"34 82 OFFCURVE",
"34 50 CURVE SMOOTH"
);
}
);
width = 333;
}
);
note = exclam;
unicode = 0021;
},
{
glyphname = quotedbl;
lastChange = "2017-06-09 11:44:12 +0000";
layers = (
{
layerId = "FDC62533-83BB-4EB8-8B15-51662AB4ACD2";
paths = (
{
closed = 1;
nodes = (
"288 390 OFFCURVE",
"294 384 OFFCURVE",
"302 384 CURVE SMOOTH",
"311 384 OFFCURVE",
"316 391 OFFCURVE",
"318 415 CURVE SMOOTH",
"337 641 LINE SMOOTH",
"340 674 OFFCURVE",
"327 700 OFFCURVE",
"302 700 CURVE SMOOTH",
"278 700 OFFCURVE",
"264 679 OFFCURVE",
"268 632 CURVE SMOOTH",
"286 415 LINE SMOOTH"
);
},
{
closed = 1;
nodes = (
"144 390 OFFCURVE",
"150 384 OFFCURVE",
"158 384 CURVE SMOOTH",
"167 384 OFFCURVE",
"172 391 OFFCURVE",
"174 415 CURVE SMOOTH",
"193 641 LINE SMOOTH",
"196 674 OFFCURVE",
"183 700 OFFCURVE",
"158 700 CURVE SMOOTH",
"134 700 OFFCURVE",
"120 679 OFFCURVE",
"124 632 CURVE SMOOTH",
"142 415 LINE SMOOTH"
);
}
);
width = 333;
}
);
note = quotedbl;
unicode = 0022;
},
{
glyphname = numbersign;
lastChange = "2017-06-09 11:44:12 +0000";
layers = (
{
layerId = "FDC62533-83BB-4EB8-8B15-51662AB4ACD2";
paths = (
{
closed = 1;
nodes = (
"405 270 LINE",
"426 418 LINE",
"535 418 LINE",
"535 468 LINE",
"433 468 LINE",
"465 688 LINE",
"409 688 LINE",
"378 468 LINE",
"243 468 LINE",
"275 688 LINE",
"219 688 LINE",
"188 468 LINE",
"71 468 LINE",
"71 418 LINE",
"181 418 LINE",
"160 270 LINE",
"43 270 LINE",
"43 220 LINE",
"153 220 LINE",
"121 0 LINE",
"177 0 LINE",
"208 220 LINE",
"343 220 LINE",
"311 0 LINE",
"367 0 LINE",
"398 220 LINE",
"507 220 LINE",
"507 270 LINE"
);
},
{
closed = 1;
nodes = (
"350 270 LINE",
"215 270 LINE",
"236 418 LINE",
"371 418 LINE"
);
}
);
width = 556;
}
);
note = numbersign;
unicode = 0023;
},
{
glyphname = dollar;
lastChange = "2017-06-09 11:44:12 +0000";
layers = (
{
layerId = "FDC62533-83BB-4EB8-8B15-51662AB4ACD2";
paths = (
{
closed = 1;
nodes = (
"347 280 OFFCURVE",
"382 250 OFFCURVE",
"382 193 CURVE SMOOTH",
"382 138 OFFCURVE",
"336 72 OFFCURVE",
"240 60 CURVE",
"304 309 LINE"
);
},
{
closed = 1;
nodes = (
"261 457 OFFCURVE",
"234 481 OFFCURVE",
"234 517 CURVE SMOOTH",
"234 590 OFFCURVE",
"286 628 OFFCURVE",
"350 635 CURVE",
"297 432 LINE"
);
},
{
closed = 1;
nodes = (
"358 665 LINE",
"256 663 OFFCURVE",
"162 599 OFFCURVE",
"162 499 CURVE SMOOTH",
"162 406 OFFCURVE",
"216 365 OFFCURVE",
"271 330 CURVE",
"201 58 LINE",
"143 60 OFFCURVE",
"97 95 OFFCURVE",
"97 117 CURVE SMOOTH",
"97 138 OFFCURVE",
"162 127 OFFCURVE",
"162 183 CURVE SMOOTH",
"162 210 OFFCURVE",
"144 234 OFFCURVE",
"109 234 CURVE SMOOTH",
"66 234 OFFCURVE",
"43 196 OFFCURVE",
"43 158 CURVE SMOOTH",
"43 99 OFFCURVE",
"95 35 OFFCURVE",
"194 28 CURVE",
"170 -66 LINE",
"208 -66 LINE",
"232 28 LINE",
"367 36 OFFCURVE",
"454 128 OFFCURVE",
"454 229 CURVE SMOOTH",
"454 326 OFFCURVE",
"389 372 OFFCURVE",
"330 410 CURVE",
"388 635 LINE",
"425 632 OFFCURVE",
"443 617 OFFCURVE",
"443 609 CURVE SMOOTH",
"443 600 OFFCURVE",
"411 593 OFFCURVE",
"411 557 CURVE SMOOTH",
"411 528 OFFCURVE",
"429 507 OFFCURVE",
"462 507 CURVE SMOOTH",
"496 507 OFFCURVE",
"513 530 OFFCURVE",
"513 564 CURVE SMOOTH",
"513 611 OFFCURVE",
"470 655 OFFCURVE",
"396 664 CURVE",
"414 738 LINE",
"376 738 LINE"
);
}
);
width = 556;
}
);
note = dollar;
unicode = 0024;
},
{
glyphname = percent;
lastChange = "2017-06-09 11:44:12 +0000";
layers = (
{
layerId = "FDC62533-83BB-4EB8-8B15-51662AB4ACD2";
paths = (
{
closed = 1;
nodes = (
"91 316 OFFCURVE",
"72 339 OFFCURVE",
"72 392 CURVE SMOOTH",
"72 478 OFFCURVE",
"136 662 OFFCURVE",
"230 662 CURVE SMOOTH",
"262 662 OFFCURVE",
"281 646 OFFCURVE",
"281 592 CURVE SMOOTH",
"281 518 OFFCURVE",
"228 316 OFFCURVE",
"129 316 CURVE SMOOTH"
);
},
{
closed = 1;
nodes = (
"254 290 OFFCURVE",
"339 436 OFFCURVE",
"339 545 CURVE SMOOTH",
"339 633 OFFCURVE",
"296 688 OFFCURVE",
"227 688 CURVE SMOOTH",
"123 688 OFFCURVE",
"14 555 OFFCURVE",
"14 428 CURVE SMOOTH",
"14 339 OFFCURVE",
"59 290 OFFCURVE",
"122 290 CURVE SMOOTH"
);
},
{
closed = 1;
nodes = (
"442 26 OFFCURVE",
"423 49 OFFCURVE",
"423 102 CURVE SMOOTH",
"423 188 OFFCURVE",
"487 372 OFFCURVE",
"581 372 CURVE SMOOTH",
"613 372 OFFCURVE",
"632 356 OFFCURVE",
"632 302 CURVE SMOOTH",
"632 228 OFFCURVE",
"579 26 OFFCURVE",
"480 26 CURVE SMOOTH"
);
},
{
closed = 1;
nodes = (
"605 0 OFFCURVE",
"690 146 OFFCURVE",
"690 255 CURVE SMOOTH",
"690 343 OFFCURVE",
"647 398 OFFCURVE",
"578 398 CURVE SMOOTH",
"474 398 OFFCURVE",
"365 265 OFFCURVE",
"365 138 CURVE SMOOTH",
"365 49 OFFCURVE",
"410 0 OFFCURVE",
"473 0 CURVE SMOOTH"
);
},
{
closed = 1;
nodes = (
"155 -12 LINE",
"601 700 LINE",
"553 700 LINE",
"109 -12 LINE"
);
}
);
width = 667;
}
);
note = percent;
unicode = 0025;
},
{
glyphname = ampersand;
lastChange = "2017-06-09 11:44:12 +0000";
layers = (
{
layerId = "FDC62533-83BB-4EB8-8B15-51662AB4ACD2";
paths = (
{
closed = 1;
nodes = (
"668 111 OFFCURVE",
"637 46 OFFCURVE",
"588 46 CURVE SMOOTH",
"544 46 OFFCURVE",
"522 76 OFFCURVE",
"499 112 CURVE",
"549 171 OFFCURVE",
"568 217 OFFCURVE",
"585 258 CURVE SMOOTH",
"600 295 OFFCURVE",
"612 322 OFFCURVE",
"618 322 CURVE SMOOTH",
"628 322 OFFCURVE",
"637 293 OFFCURVE",
"669 293 CURVE SMOOTH",
"700 293 OFFCURVE",
"722 314 OFFCURVE",
"722 343 CURVE SMOOTH",
"722 376 OFFCURVE",
"698 399 OFFCURVE",
"661 399 CURVE SMOOTH",
"626 399 OFFCURVE",
"596 383 OFFCURVE",
"566 312 CURVE SMOOTH",
"537 243 OFFCURVE",
"521 193 OFFCURVE",
"483 143 CURVE",
"448 189 OFFCURVE",
"407 300 OFFCURVE",
"372 380 CURVE",
"560 450 OFFCURVE",
"608 502 OFFCURVE",
"608 575 CURVE SMOOTH",
"608 634 OFFCURVE",
"548 700 OFFCURVE",
"450 700 CURVE SMOOTH",
"340 700 OFFCURVE",
"244 610 OFFCURVE",
"244 482 CURVE SMOOTH",
"244 449 OFFCURVE",
"255 408 OFFCURVE",
"266 378 CURVE",
"204 344 OFFCURVE",
"36 312 OFFCURVE",
"36 169 CURVE SMOOTH",
"36 64 OFFCURVE",
"129 -12 OFFCURVE",
"234 -12 CURVE SMOOTH",
"301 -12 OFFCURVE",
"370 8 OFFCURVE",
"425 47 CURVE",
"459 13 OFFCURVE",
"482 -12 OFFCURVE",
"534 -12 CURVE SMOOTH",
"592 -12 OFFCURVE",
"668 28 OFFCURVE",
"713 127 CURVE",
"686 141 LINE"
);
},
{
closed = 1;
nodes = (
"146 274 OFFCURVE",
"196 311 OFFCURVE",
"276 346 CURVE",
"310 258 OFFCURVE",
"350 156 OFFCURVE",
"407 74 CURVE",
"373 45 OFFCURVE",
"324 30 OFFCURVE",
"280 30 CURVE SMOOTH",
"198 30 OFFCURVE",
"146 97 OFFCURVE",
"146 178 CURVE SMOOTH"
);
},
{
closed = 1;
nodes = (
"336 617 OFFCURVE",
"390 670 OFFCURVE",
"442 670 CURVE SMOOTH",
"493 670 OFFCURVE",
"530 632 OFFCURVE",
"530 569 CURVE SMOOTH",
"530 503 OFFCURVE",
"470 446 OFFCURVE",
"360 412 CURVE",
"341 455 OFFCURVE",
"336 495 OFFCURVE",
"336 544 CURVE SMOOTH"
);
}
);
width = 778;
}
);
note = ampersand;
unicode = 0026;
},
{
glyphname = quoteright;
lastChange = "2017-06-09 11:44:12 +0000";
layers = (
{
layerId = "FDC62533-83BB-4EB8-8B15-51662AB4ACD2";
paths = (
{
closed = 1;
nodes = (
"179 469 OFFCURVE",
"242 546 OFFCURVE",
"242 617 CURVE SMOOTH",
"242 673 OFFCURVE",
"211 700 OFFCURVE",
"179 700 CURVE SMOOTH",
"138 700 OFFCURVE",
"118 672 OFFCURVE",
"118 636 CURVE SMOOTH",
"118 579 OFFCURVE",
"184 586 OFFCURVE",
"184 565 CURVE SMOOTH",
"184 537 OFFCURVE",
"138 485 OFFCURVE",
"104 448 CURVE",
"128 424 LINE"
);
}
);
width = 222;
}
);
leftKerningGroup = quoteright;
note = quoteright;
rightKerningGroup = quoteright;
unicode = 2019;
},
{
glyphname = parenleft;
lastChange = "2017-06-09 11:44:12 +0000";
layers = (
{
layerId = "FDC62533-83BB-4EB8-8B15-51662AB4ACD2";
paths = (
{
closed = 1;
nodes = (
"180 -142 OFFCURVE",
"144 -76 OFFCURVE",
"144 68 CURVE SMOOTH",
"144 236 OFFCURVE",
"211 485 OFFCURVE",
"322 596 CURVE SMOOTH",
"388 662 OFFCURVE",
"468 674 OFFCURVE",
"515 674 CURVE",
"521 700 LINE",
"474 700 OFFCURVE",
"433 700 OFFCURVE",
"372 673 CURVE SMOOTH",
"220 606 OFFCURVE",
"62 384 OFFCURVE",
"62 140 CURVE SMOOTH",
"62 -70 OFFCURVE",
"158 -176 OFFCURVE",
"281 -190 CURVE",
"287 -164 LINE"
);
}
);
width = 444;
}
);
note = parenleft;
unicode = 0028;
},
{
glyphname = parenright;
lastChange = "2017-06-09 11:44:12 +0000";
layers = (
{
layerId = "FDC62533-83BB-4EB8-8B15-51662AB4ACD2";
paths = (
{
closed = 1;
nodes = (
"236 652 OFFCURVE",
"272 586 OFFCURVE",
"272 442 CURVE SMOOTH",
"272 274 OFFCURVE",
"205 25 OFFCURVE",
"94 -86 CURVE SMOOTH",
"28 -152 OFFCURVE",
"-52 -164 OFFCURVE",
"-99 -164 CURVE",
"-105 -190 LINE",
"-58 -190 OFFCURVE",
"-17 -190 OFFCURVE",
"44 -163 CURVE SMOOTH",
"196 -96 OFFCURVE",
"354 126 OFFCURVE",
"354 370 CURVE SMOOTH",
"354 580 OFFCURVE",
"258 686 OFFCURVE",
"135 700 CURVE",
"129 674 LINE"
);
}
);
width = 444;
}
);
note = parenright;
unicode = 0029;
},
{
glyphname = asterisk;
lastChange = "2017-06-09 11:44:12 +0000";
layers = (
{
layerId = "FDC62533-83BB-4EB8-8B15-51662AB4ACD2";
paths = (
{
closed = 1;
nodes = (
"290 700 OFFCURVE",
"273 684 OFFCURVE",
"273 660 CURVE SMOOTH",
"273 646 OFFCURVE",
"280 624 OFFCURVE",
"280 591 CURVE SMOOTH",
"280 571 OFFCURVE",
"277 546 OFFCURVE",
"267 517 CURVE",
"258 514 LINE",
"178 585 OFFCURVE",
"201 658 OFFCURVE",
"141 658 CURVE SMOOTH",
"121 658 OFFCURVE",
"104 638 OFFCURVE",
"104 617 CURVE SMOOTH",
"104 566 OFFCURVE",
"172 584 OFFCURVE",
"242 504 CURVE",
"242 493 LINE",
"225 490 OFFCURVE",
"209 489 OFFCURVE",
"196 489 CURVE SMOOTH",
"161 489 OFFCURVE",
"129 504 OFFCURVE",
"104 504 CURVE SMOOTH",
"72 504 OFFCURVE",
"59 488 OFFCURVE",
"59 464 CURVE SMOOTH",
"59 442 OFFCURVE",
"74 429 OFFCURVE",
"96 429 CURVE SMOOTH",
"142 429 OFFCURVE",
"166 474 OFFCURVE",
"246 474 CURVE",
"252 469 LINE",
"234 392 OFFCURVE",
"179 344 OFFCURVE",
"179 316 CURVE SMOOTH",
"179 300 OFFCURVE",
"195 280 OFFCURVE",
"221 280 CURVE SMOOTH",
"246 280 OFFCURVE",
"263 296 OFFCURVE",
"263 319 CURVE SMOOTH",
"263 333 OFFCURVE",
"256 355 OFFCURVE",
"256 387 CURVE SMOOTH",
"256 408 OFFCURVE",
"259 433 OFFCURVE",
"269 463 CURVE",
"278 466 LINE",
"358 395 OFFCURVE",
"335 322 OFFCURVE",
"392 322 CURVE SMOOTH",
"408 322 OFFCURVE",
"432 334 OFFCURVE",
"432 363 CURVE SMOOTH",
"432 414 OFFCURVE",
"364 396 OFFCURVE",
"293 476 CURVE",
"293 487 LINE",
"309 490 OFFCURVE",
"325 490 OFFCURVE",
"338 490 CURVE SMOOTH",
"383 490 OFFCURVE",
"406 476 OFFCURVE",
"432 476 CURVE SMOOTH",
"464 476 OFFCURVE",
"477 492 OFFCURVE",
"477 516 CURVE SMOOTH",
"477 538 OFFCURVE",
"462 551 OFFCURVE",
"440 551 CURVE SMOOTH",
"394 551 OFFCURVE",
"370 506 OFFCURVE",
"290 506 CURVE",
"284 511 LINE",
"302 588 OFFCURVE",
"357 629 OFFCURVE",
"357 662 CURVE SMOOTH",
"357 680 OFFCURVE",
"348 700 OFFCURVE",
"316 700 CURVE SMOOTH"
);
}
);
width = 444;
}
);
note = asterisk;
unicode = 002A;
},
{
glyphname = plus;
lastChange = "2017-06-09 11:44:12 +0000";
layers = (
{
layerId = "FDC62533-83BB-4EB8-8B15-51662AB4ACD2";
paths = (
{
closed = 1;
nodes = (
"44 262 LINE",
"44 208 LINE",
"252 208 LINE",
"252 0 LINE",
"306 0 LINE",
"306 208 LINE",
"514 208 LINE",
"514 262 LINE",
"306 262 LINE",
"306 470 LINE",
"252 470 LINE",
"252 262 LINE"
);
}
);
width = 600;
}
);
note = plus;
unicode = 002B;
},
{
glyphname = comma;
lastChange = "2017-06-09 11:44:12 +0000";
layers = (
{
layerId = "FDC62533-83BB-4EB8-8B15-51662AB4ACD2";
paths = (
{
closed = 1;
nodes = (
"131 -112 OFFCURVE",
"159 -50 OFFCURVE",
"159 21 CURVE SMOOTH",
"159 76 OFFCURVE",
"132 112 OFFCURVE",
"89 112 CURVE SMOOTH",
"48 112 OFFCURVE",
"24 87 OFFCURVE",
"24 48 CURVE SMOOTH",
"24 15 OFFCURVE",
"44 -10 OFFCURVE",
"94 -20 CURVE SMOOTH",
"99 -21 OFFCURVE",
"101 -24 OFFCURVE",
"101 -33 CURVE SMOOTH",
"101 -65 OFFCURVE",
"89 -105 OFFCURVE",
"19 -168 CURVE",
"42 -190 LINE"
);
}
);
width = 278;
}
);
leftKerningGroup = comma;
note = comma;
unicode = 002C;
},
{
glyphname = hyphen;
lastChange = "2017-06-09 11:44:12 +0000";
layers = (
{
layerId = "FDC62533-83BB-4EB8-8B15-51662AB4ACD2";
paths = (
{
closed = 1;
nodes = (
"263 204 LINE",
"281 266 LINE",
"45 266 LINE",
"27 204 LINE"
);
}
);
width = 333;
}
);
leftKerningGroup = hyphen;
note = hyphen;
unicode = 002D;
},
{
glyphname = period;
lastChange = "2017-06-09 11:44:12 +0000";
layers = (
{
layerId = "FDC62533-83BB-4EB8-8B15-51662AB4ACD2";
paths = (
{
closed = 1;
nodes = (
"28 18 OFFCURVE",
"54 -6 OFFCURVE",
"86 -6 CURVE SMOOTH",
"118 -6 OFFCURVE",
"144 18 OFFCURVE",
"144 50 CURVE SMOOTH",
"144 82 OFFCURVE",
"118 106 OFFCURVE",
"86 106 CURVE SMOOTH",
"54 106 OFFCURVE",
"28 82 OFFCURVE",
"28 50 CURVE SMOOTH"
);
}
);
width = 278;
}
);
leftKerningGroup = period;
note = period;
unicode = 002E;
},
{
glyphname = slash;
lastChange = "2017-06-09 11:44:12 +0000";
layers = (
{
layerId = "FDC62533-83BB-4EB8-8B15-51662AB4ACD2";
paths = (
{
closed = 1;
nodes = (
"380 700 LINE",
"326 700 LINE",
"-66 -12 LINE",
"-12 -12 LINE"
);
}
);
width = 278;
}
);
note = slash;
unicode = 002F;
},
{
glyphname = zero;
lastChange = "2017-06-09 11:44:12 +0000";
layers = (
{
layerId = "FDC62533-83BB-4EB8-8B15-51662AB4ACD2";
paths = (
{
closed = 1;
nodes = (
"35 86 OFFCURVE",
"113 -12 OFFCURVE",
"210 -12 CURVE SMOOTH",
"404 -12 OFFCURVE",
"550 264 OFFCURVE",
"550 427 CURVE SMOOTH",
"550 617 OFFCURVE",
"463 700 OFFCURVE",
"365 700 CURVE SMOOTH",
"191 700 OFFCURVE",
"35 426 OFFCURVE",
"35 260 CURVE SMOOTH"
);
},
{
closed = 1;
nodes = (
"121 257 OFFCURVE",
"213 670 OFFCURVE",
"372 670 CURVE SMOOTH",
"436 670 OFFCURVE",
"464 623 OFFCURVE",
"464 543 CURVE SMOOTH",
"464 494 OFFCURVE",
"399 18 OFFCURVE",
"210 18 CURVE SMOOTH",
"160 18 OFFCURVE",
"121 55 OFFCURVE",
"121 143 CURVE SMOOTH"
);
}
);
width = 556;
}
);
note = zero;
unicode = 0030;
},
{
glyphname = one;
lastChange = "2017-06-09 11:44:12 +0000";
layers = (
{
layerId = "FDC62533-83BB-4EB8-8B15-51662AB4ACD2";
paths = (
{
closed = 1;
nodes = (
"398 30 LINE",
"309 30 OFFCURVE",
"288 43 OFFCURVE",
"288 81 CURVE SMOOTH",
"288 99 OFFCURVE",
"433 634 OFFCURVE",
"447 688 CURVE",
"414 688 LINE",
"346 644 OFFCURVE",
"287 624 OFFCURVE",
"213 620 CURVE",
"206 584 LINE",
"323 584 LINE",
"192 96 LINE SMOOTH",
"181 55 OFFCURVE",
"155 35 OFFCURVE",
"56 30 CURVE",
"49 0 LINE",
"392 0 LINE"
);
}
);
width = 556;
}
);
note = one;
unicode = 0031;
},
{
glyphname = two;
lastChange = "2017-06-09 11:44:12 +0000";
layers = (
{
layerId = "FDC62533-83BB-4EB8-8B15-51662AB4ACD2";
paths = (
{
closed = 1;
nodes = (
"288 476 OFFCURVE",
"242 424 OFFCURVE",
"185 424 CURVE SMOOTH",
"154 424 OFFCURVE",
"134 445 OFFCURVE",
"134 485 CURVE SMOOTH",
"134 569 OFFCURVE",
"221 670 OFFCURVE",
"330 670 CURVE SMOOTH",
"400 670 OFFCURVE",
"442 631 OFFCURVE",
"442 560 CURVE SMOOTH",
"442 464 OFFCURVE",
"388 384 OFFCURVE",
"288 322 CURVE SMOOTH",
"6 146 OFFCURVE",
"-21 81 OFFCURVE",
"-21 39 CURVE SMOOTH",
"-21 10 OFFCURVE",
"-8 0 OFFCURVE",
"18 0 CURVE SMOOTH",
"46 0 OFFCURVE",
"55 14 OFFCURVE",
"55 32 CURVE SMOOTH",
"55 52 OFFCURVE",
"49 67 OFFCURVE",
"49 79 CURVE SMOOTH",
"49 91 OFFCURVE",
"59 98 OFFCURVE",
"82 98 CURVE SMOOTH",
"112 98 OFFCURVE",
"137 70 OFFCURVE",
"168 43 CURVE SMOOTH",
"199 16 OFFCURVE",
"236 -12 OFFCURVE",
"289 -12 CURVE SMOOTH",
"382 -12 OFFCURVE",
"452 96 OFFCURVE",
"492 210 CURVE",
"465 215 LINE",
"432 134 OFFCURVE",
"390 80 OFFCURVE",
"336 80 CURVE SMOOTH",
"302 80 OFFCURVE",
"271 95 OFFCURVE",
"241 110 CURVE SMOOTH",
"211 125 OFFCURVE",
"181 140 OFFCURVE",
"146 140 CURVE SMOOTH",
"109 140 OFFCURVE",
"80 126 OFFCURVE",
"55 110 CURVE",
"53 112 LINE",
"202 280 OFFCURVE",
"544 336 OFFCURVE",
"544 528 CURVE SMOOTH",
"544 630 OFFCURVE",
"476 700 OFFCURVE",
"336 700 CURVE SMOOTH",
"211 700 OFFCURVE",
"98 598 OFFCURVE",
"98 485 CURVE SMOOTH",
"98 434 OFFCURVE",
"131 394 OFFCURVE",
"188 394 CURVE SMOOTH",
"266 394 OFFCURVE",
"323 472 OFFCURVE",
"334 554 CURVE",
"305 563 LINE"
);
}
);
width = 556;
}
);
note = two;
unicode = 0032;
},
{
glyphname = three;
lastChange = "2017-06-09 11:44:12 +0000";
layers = (
{
layerId = "FDC62533-83BB-4EB8-8B15-51662AB4ACD2";
paths = (
{
closed = 1;
nodes = (
"218 332 OFFCURVE",
"224 326 OFFCURVE",
"249 326 CURVE SMOOTH",
"282 326 OFFCURVE",
"315 338 OFFCURVE",
"328 338 CURVE SMOOTH",
"348 338 OFFCURVE",
"384 304 OFFCURVE",
"384 234 CURVE SMOOTH",
"384 119 OFFCURVE",
"300 18 OFFCURVE",
"184 18 CURVE SMOOTH",
"93 18 OFFCURVE",
"43 76 OFFCURVE",
"43 106 CURVE SMOOTH",
"43 118 OFFCURVE",
"46 121 OFFCURVE",
"51 121 CURVE SMOOTH",
"63 121 OFFCURVE",
"66 115 OFFCURVE",
"93 115 CURVE SMOOTH",
"116 115 OFFCURVE",
"143 138 OFFCURVE",
"143 172 CURVE SMOOTH",
"143 198 OFFCURVE",
"122 221 OFFCURVE",
"82 221 CURVE SMOOTH",
"36 221 OFFCURVE",
"7 174 OFFCURVE",
"7 123 CURVE SMOOTH",
"7 60 OFFCURVE",
"78 -12 OFFCURVE",
"186 -12 CURVE SMOOTH",
"369 -12 OFFCURVE",
"482 86 OFFCURVE",
"482 200 CURVE SMOOTH",
"482 320 OFFCURVE",
"384 337 OFFCURVE",
"360 346 CURVE",
"360 348 LINE",
"399 363 OFFCURVE",
"546 391 OFFCURVE",
"546 545 CURVE SMOOTH",
"546 626 OFFCURVE",
"474 700 OFFCURVE",
"350 700 CURVE SMOOTH",
"233 700 OFFCURVE",
"126 620 OFFCURVE",
"126 502 CURVE SMOOTH",
"126 466 OFFCURVE",
"156 417 OFFCURVE",
"212 417 CURVE SMOOTH",
"276 417 OFFCURVE",
"329 477 OFFCURVE",
"357 553 CURVE",
"333 565 LINE",
"293 480 OFFCURVE",
"258 447 OFFCURVE",
"216 447 CURVE SMOOTH",
"182 447 OFFCURVE",
"162 472 OFFCURVE",
"162 502 CURVE SMOOTH",
"162 604 OFFCURVE",
"252 670 OFFCURVE",
"330 670 CURVE SMOOTH",
"405 670 OFFCURVE",
"444 628 OFFCURVE",
"444 546 CURVE SMOOTH",
"444 435 OFFCURVE",
"372 358 OFFCURVE",
"320 358 CURVE SMOOTH",
"300 358 OFFCURVE",
"286 362 OFFCURVE",
"254 362 CURVE SMOOTH",
"227 362 OFFCURVE",
"218 356 OFFCURVE",
"218 345 CURVE SMOOTH"
);
}
);
width = 556;
}
);
note = three;
unicode = 0033;
},
{
glyphname = four;
lastChange = "2017-06-09 11:44:12 +0000";
layers = (
{
layerId = "FDC62533-83BB-4EB8-8B15-51662AB4ACD2";
paths = (
{
closed = 1;
nodes = (
"238 519 OFFCURVE",
"191 382 OFFCURVE",
"116 248 CURVE",
"101 248 OFFCURVE",
"85 251 OFFCURVE",
"66 251 CURVE SMOOTH",
"10 251 OFFCURVE",
"-8 232 OFFCURVE",
"-8 209 CURVE SMOOTH",
"-8 191 OFFCURVE",
"8 179 OFFCURVE",
"25 179 CURVE SMOOTH",
"63 179 OFFCURVE",
"97 206 OFFCURVE",
"126 221 CURVE",
"190 192 OFFCURVE",
"225 128 OFFCURVE",
"301 128 CURVE",
"255 -56 LINE",
"341 -56 LINE",
"391 130 LINE",
"451 144 OFFCURVE",
"506 182 OFFCURVE",
"536 236 CURVE",
"520 253 LINE",
"487 218 OFFCURVE",
"456 186 OFFCURVE",
"405 186 CURVE",
"490 518 LINE",
"403 518 LINE",
"314 188 LINE",
"295 188 OFFCURVE",
"204 226 OFFCURVE",
"141 244 CURVE",
"218 342 OFFCURVE",
"354 556 OFFCURVE",
"369 688 CURVE",
"269 688 LINE"
);
}
);
width = 556;
}
);
note = four;
unicode = 0034;
},
{
glyphname = five;
lastChange = "2017-06-09 11:44:12 +0000";
layers = (
{
layerId = "FDC62533-83BB-4EB8-8B15-51662AB4ACD2";
paths = (
{
closed = 1;
nodes = (
"166 383 OFFCURVE",
"226 424 OFFCURVE",
"288 424 CURVE SMOOTH",
"349 424 OFFCURVE",
"386 380 OFFCURVE",
"386 298 CURVE SMOOTH",
"386 126 OFFCURVE",
"297 18 OFFCURVE",
"183 18 CURVE SMOOTH",
"111 18 OFFCURVE",
"61 65 OFFCURVE",
"61 99 CURVE SMOOTH",
"61 104 OFFCURVE",
"63 107 OFFCURVE",
"67 107 CURVE SMOOTH",
"71 107 OFFCURVE",
"77 105 OFFCURVE",
"88 105 CURVE SMOOTH",
"126 105 OFFCURVE",
"145 125 OFFCURVE",
"145 159 CURVE SMOOTH",
"145 192 OFFCURVE",
"123 211 OFFCURVE",
"87 211 CURVE SMOOTH",
"51 211 OFFCURVE",
"19 182 OFFCURVE",
"19 129 CURVE SMOOTH",
"19 56 OFFCURVE",
"70 -12 OFFCURVE",
"193 -12 CURVE SMOOTH",
"379 -12 OFFCURVE",
"488 117 OFFCURVE",
"488 253 CURVE SMOOTH",
"488 364 OFFCURVE",
"405 454 OFFCURVE",
"300 454 CURVE SMOOTH",
"238 454 OFFCURVE",
"184 429 OFFCURVE",
"151 387 CURVE",
"149 389 LINE",
"215 580 LINE",
"243 577 OFFCURVE",
"269 574 OFFCURVE",
"306 574 CURVE SMOOTH",
"396 574 OFFCURVE",
"490 608 OFFCURVE",
"556 672 CURVE",
"546 700 LINE",
"502 686 OFFCURVE",
"427 676 OFFCURVE",
"381 676 CURVE SMOOTH",
"354 676 OFFCURVE",
"326 677 OFFCURVE",
"298 679 CURVE SMOOTH",
"270 681 OFFCURVE",
"243 684 OFFCURVE",
"215 688 CURVE",
"96 342 LINE",
"128 322 LINE"
);
}
);
width = 556;
}
);
note = five;
unicode = 0035;
},
{
glyphname = six;
lastChange = "2017-06-09 11:44:12 +0000";
layers = (
{
layerId = "FDC62533-83BB-4EB8-8B15-51662AB4ACD2";
paths = (
{
closed = 1;
nodes = (
"506 364 OFFCURVE",
"445 470 OFFCURVE",
"328 470 CURVE SMOOTH",
"283 470 OFFCURVE",
"213 434 OFFCURVE",
"192 393 CURVE",
"190 395 LINE",
"237 593 OFFCURVE",
"331 670 OFFCURVE",
"416 670 CURVE SMOOTH",
"458 670 OFFCURVE",
"478 651 OFFCURVE",
"478 646 CURVE SMOOTH",
"478 640 OFFCURVE",
"477 638 OFFCURVE",
"472 638 CURVE SMOOTH",
"445 638 OFFCURVE",
"418 622 OFFCURVE",
"418 589 CURVE SMOOTH",
"418 557 OFFCURVE",
"440 536 OFFCURVE",
"478 536 CURVE SMOOTH",
"512 536 OFFCURVE",
"536 560 OFFCURVE",
"536 603 CURVE SMOOTH",
"536 637 OFFCURVE",
"502 700 OFFCURVE",
"410 700 CURVE SMOOTH",
"254 700 OFFCURVE",
"64 487 OFFCURVE",
"64 260 CURVE SMOOTH",
"64 100 OFFCURVE",
"128 -12 OFFCURVE",
"252 -12 CURVE SMOOTH",
"387 -12 OFFCURVE",
"506 107 OFFCURVE",
"506 260 CURVE SMOOTH"
);
},
{
closed = 1;
nodes = (
"408 156 OFFCURVE",
"354 18 OFFCURVE",
"250 18 CURVE SMOOTH",
"179 18 OFFCURVE",
"142 69 OFFCURVE",
"142 159 CURVE SMOOTH",
"142 282 OFFCURVE",
"228 440 OFFCURVE",
"316 440 CURVE SMOOTH",
"378 440 OFFCURVE",
"408 392 OFFCURVE",
"408 326 CURVE SMOOTH"
);
}
);
width = 556;
}
);
note = six;
unicode = 0036;
},
{
glyphname = seven;
lastChange = "2017-06-09 11:44:12 +0000";
layers = (
{
layerId = "FDC62533-83BB-4EB8-8B15-51662AB4ACD2";
paths = (
{
closed = 1;
nodes = (
"165 531 OFFCURVE",
"224 614 OFFCURVE",
"267 614 CURVE SMOOTH",
"311 614 OFFCURVE",
"346 558 OFFCURVE",
"418 558 CURVE SMOOTH",
"472 558 OFFCURVE",
"508 570 OFFCURVE",
"539 585 CURVE",
"541 583 LINE",
"473 515 OFFCURVE",
"404 445 OFFCURVE",
"340 381 CURVE SMOOTH",
"261 302 OFFCURVE",
"164 200 OFFCURVE",
"164 72 CURVE SMOOTH",
"164 10 OFFCURVE",
"187 -12 OFFCURVE",
"235 -12 CURVE SMOOTH",
"258 -12 OFFCURVE",
"278 -1 OFFCURVE",
"278 20 CURVE SMOOTH",
"278 35 OFFCURVE",
"274 47 OFFCURVE",
"274 58 CURVE SMOOTH",
"274 162 OFFCURVE",
"357 337 OFFCURVE",
"421 410 CURVE SMOOTH",
"522 526 OFFCURVE",
"568 579 OFFCURVE",
"602 619 CURVE SMOOTH",
"614 633 OFFCURVE",
"616 642 OFFCURVE",
"616 659 CURVE SMOOTH",
"616 680 OFFCURVE",
"608 692 OFFCURVE",
"588 692 CURVE SMOOTH",
"568 692 OFFCURVE",
"558 681 OFFCURVE",
"558 664 CURVE SMOOTH",
"558 646 OFFCURVE",
"563 638 OFFCURVE",
"563 627 CURVE SMOOTH",
"563 614 OFFCURVE",
"541 600 OFFCURVE",
"506 600 CURVE SMOOTH",
"460 600 OFFCURVE",
"412 700 OFFCURVE",
"336 700 CURVE SMOOTH",
"264 700 OFFCURVE",
"200 625 OFFCURVE",
"168 565 CURVE",
"166 567 LINE",
"206 678 LINE",
"172 678 LINE",
"95 445 LINE",
"128 445 LINE"
);
}
);
width = 556;
}
);
note = seven;
unicode = 0037;
},
{
glyphname = eight;
lastChange = "2017-06-09 11:44:12 +0000";
layers = (
{
layerId = "FDC62533-83BB-4EB8-8B15-51662AB4ACD2";
paths = (
{
closed = 1;
nodes = (
"141 459 OFFCURVE",
"191 397 OFFCURVE",
"240 370 CURVE",
"103 320 OFFCURVE",
"10 267 OFFCURVE",
"10 159 CURVE SMOOTH",
"10 67 OFFCURVE",
"92 -12 OFFCURVE",
"233 -12 CURVE SMOOTH",
"393 -12 OFFCURVE",
"503 85 OFFCURVE",
"503 194 CURVE SMOOTH",
"503 276 OFFCURVE",
"447 335 OFFCURVE",
"385 380 CURVE",
"454 413 OFFCURVE",
"559 455 OFFCURVE",
"559 556 CURVE SMOOTH",
"559 636 OFFCURVE",
"484 700 OFFCURVE",
"367 700 CURVE SMOOTH",
"221 700 OFFCURVE",
"141 626 OFFCURVE",
"141 521 CURVE SMOOTH"
);
},
{
closed = 1;
nodes = (
"411 81 OFFCURVE",
"335 18 OFFCURVE",
"234 18 CURVE SMOOTH",
"143 18 OFFCURVE",
"82 76 OFFCURVE",
"82 164 CURVE SMOOTH",
"82 266 OFFCURVE",
"182 315 OFFCURVE",
"261 348 CURVE",
"307 322 OFFCURVE",
"411 258 OFFCURVE",
"411 168 CURVE SMOOTH"
);
},
{
closed = 1;
nodes = (
"491 477 OFFCURVE",
"435 433 OFFCURVE",
"352 400 CURVE",
"299 427 OFFCURVE",
"219 487 OFFCURVE",
"219 555 CURVE SMOOTH",
"219 627 OFFCURVE",
"276 670 OFFCURVE",
"365 670 CURVE SMOOTH",
"447 670 OFFCURVE",
"491 621 OFFCURVE",
"491 560 CURVE SMOOTH"
);
}
);
width = 556;
}
);
note = eight;
unicode = 0038;
},
{
glyphname = nine;
lastChange = "2017-06-09 11:44:12 +0000";
layers = (
{
layerId = "FDC62533-83BB-4EB8-8B15-51662AB4ACD2";
paths = (
{
closed = 1;
nodes = (
"79 316 OFFCURVE",
"151 228 OFFCURVE",
"253 228 CURVE SMOOTH",
"332 228 OFFCURVE",
"373 265 OFFCURVE",
"407 310 CURVE",
"409 310 LINE",
"364 130 OFFCURVE",
"280 18 OFFCURVE",
"162 18 CURVE SMOOTH",
"112 18 OFFCURVE",
"88 31 OFFCURVE",
"88 43 CURVE SMOOTH",
"88 68 OFFCURVE",
"140 50 OFFCURVE",
"140 108 CURVE SMOOTH",
"140 137 OFFCURVE",
"121 163 OFFCURVE",
"83 163 CURVE SMOOTH",
"42 163 OFFCURVE",
"20 139 OFFCURVE",
"20 96 CURVE SMOOTH",
"20 56 OFFCURVE",
"48 -12 OFFCURVE",
"161 -12 CURVE SMOOTH",
"332 -12 OFFCURVE",
"534 184 OFFCURVE",
"534 442 CURVE SMOOTH",
"534 584 OFFCURVE",
"472 700 OFFCURVE",
"336 700 CURVE SMOOTH",
"207 700 OFFCURVE",
"79 584 OFFCURVE",
"79 436 CURVE SMOOTH"
);
},
{
closed = 1;
nodes = (
"171 512 OFFCURVE",
"240 670 OFFCURVE",
"336 670 CURVE SMOOTH",
"402 670 OFFCURVE",
"442 615 OFFCURVE",
"442 535 CURVE SMOOTH",
"442 362 OFFCURVE",
"350 258 OFFCURVE",
"270 258 CURVE SMOOTH",
"212 258 OFFCURVE",
"171 294 OFFCURVE",
"171 375 CURVE SMOOTH"
);
}
);
width = 556;
}
);
note = nine;
unicode = 0039;
},
{
glyphname = colon;
lastChange = "2017-06-09 11:44:12 +0000";
layers = (
{
layerId = "FDC62533-83BB-4EB8-8B15-51662AB4ACD2";
paths = (
{
closed = 1;
nodes = (
"23 18 OFFCURVE",
"48 -6 OFFCURVE",
"81 -6 CURVE SMOOTH",
"112 -6 OFFCURVE",
"139 18 OFFCURVE",
"139 50 CURVE SMOOTH",
"139 82 OFFCURVE",
"112 106 OFFCURVE",
"81 106 CURVE SMOOTH",
"48 106 OFFCURVE",
"23 82 OFFCURVE",
"23 50 CURVE SMOOTH"
);
},
{
closed = 1;
nodes = (
"113 362 OFFCURVE",
"138 338 OFFCURVE",
"171 338 CURVE SMOOTH",
"202 338 OFFCURVE",
"229 362 OFFCURVE",
"229 394 CURVE SMOOTH",
"229 426 OFFCURVE",
"202 450 OFFCURVE",
"171 450 CURVE SMOOTH",
"138 450 OFFCURVE",
"113 426 OFFCURVE",
"113 394 CURVE SMOOTH"
);
}
);
width = 278;
}
);
leftKerningGroup = colon;
note = colon;
unicode = 003A;
},
{
glyphname = semicolon;
lastChange = "2017-06-09 11:44:12 +0000";
layers = (
{
layerId = "FDC62533-83BB-4EB8-8B15-51662AB4ACD2";
paths = (
{
closed = 1;
nodes = (
"121 -112 OFFCURVE",
"149 -50 OFFCURVE",
"149 21 CURVE SMOOTH",
"149 76 OFFCURVE",
"122 112 OFFCURVE",
"79 112 CURVE SMOOTH",
"38 112 OFFCURVE",
"14 87 OFFCURVE",
"14 48 CURVE SMOOTH",
"14 15 OFFCURVE",
"34 -10 OFFCURVE",
"84 -20 CURVE SMOOTH",
"89 -21 OFFCURVE",
"91 -24 OFFCURVE",
"91 -33 CURVE SMOOTH",
"91 -65 OFFCURVE",
"79 -105 OFFCURVE",
"9 -168 CURVE",
"32 -190 LINE"
);
},
{
closed = 1;
nodes = (
"113 362 OFFCURVE",
"138 338 OFFCURVE",
"171 338 CURVE SMOOTH",
"202 338 OFFCURVE",
"229 362 OFFCURVE",
"229 394 CURVE SMOOTH",
"229 426 OFFCURVE",
"202 450 OFFCURVE",
"171 450 CURVE SMOOTH",
"138 450 OFFCURVE",
"113 426 OFFCURVE",
"113 394 CURVE SMOOTH"
);
}
);
width = 278;
}
);
leftKerningGroup = semicolon;
note = semicolon;
unicode = 003B;
},
{
glyphname = less;
lastChange = "2017-06-09 11:44:12 +0000";
layers = (
{
layerId = "FDC62533-83BB-4EB8-8B15-51662AB4ACD2";
paths = (
{
closed = 1;
nodes = (
"545 -16 LINE",
"545 43 LINE",
"125 235 LINE",
"545 427 LINE",
"545 486 LINE",
"55 263 LINE",
"55 208 LINE"
);
}
);
width = 600;
}
);
note = less;
unicode = 003C;
},
{
glyphname = equal;
lastChange = "2017-06-09 11:44:12 +0000";
layers = (
{
layerId = "FDC62533-83BB-4EB8-8B15-51662AB4ACD2";
paths = (
{
closed = 1;
nodes = (
"44 353 LINE",
"44 299 LINE",
"514 299 LINE",
"514 353 LINE"
);
},
{
closed = 1;
nodes = (
"44 171 LINE",
"44 117 LINE",
"514 117 LINE",
"514 171 LINE"
);
}
);
width = 600;
}
);
note = equal;
unicode = 003D;
},
{
glyphname = greater;
lastChange = "2017-06-09 11:44:12 +0000";
layers = (
{
layerId = "FDC62533-83BB-4EB8-8B15-51662AB4ACD2";
paths = (
{
closed = 1;
nodes = (
"55 486 LINE",
"55 427 LINE",
"475 235 LINE",
"55 43 LINE",
"55 -16 LINE",
"545 207 LINE",
"545 262 LINE"
);
}
);
width = 600;
}
);
note = greater;
unicode = 003E;
},
{
glyphname = question;
lastChange = "2017-06-09 11:44:12 +0000";
layers = (
{
layerId = "FDC62533-83BB-4EB8-8B15-51662AB4ACD2";
paths = (
{
closed = 1;
nodes = (
"271 242 OFFCURVE",
"252 220 OFFCURVE",
"223 220 CURVE SMOOTH",
"197 220 OFFCURVE",
"178 234 OFFCURVE",
"178 260 CURVE SMOOTH",
"178 295 OFFCURVE",
"197 326 OFFCURVE",
"362 388 CURVE SMOOTH",
"444 419 OFFCURVE",
"483 470 OFFCURVE",
"483 537 CURVE SMOOTH",
"483 633 OFFCURVE",
"399 688 OFFCURVE",
"300 688 CURVE SMOOTH",
"201 688 OFFCURVE",
"131 623 OFFCURVE",
"131 538 CURVE SMOOTH",
"131 509 OFFCURVE",
"137 486 OFFCURVE",
"154 462 CURVE",
"177 475 LINE",
"168 492 OFFCURVE",
"163 510 OFFCURVE",
"163 530 CURVE SMOOTH",
"163 606 OFFCURVE",
"218 658 OFFCURVE",
"287 658 CURVE SMOOTH",
"342 658 OFFCURVE",
"391 614 OFFCURVE",
"391 558 CURVE SMOOTH",
"391 495 OFFCURVE",
"377 473 OFFCURVE",
"324 438 CURVE SMOOTH",
"197 354 OFFCURVE",
"146 332 OFFCURVE",
"146 270 CURVE SMOOTH",
"146 223 OFFCURVE",
"177 190 OFFCURVE",
"221 190 CURVE SMOOTH",
"266 190 OFFCURVE",
"295 217 OFFCURVE",
"318 274 CURVE",
"289 288 LINE"
);
},
{
closed = 1;
nodes = (
"94 18 OFFCURVE",
"118 -6 OFFCURVE",
"152 -6 CURVE SMOOTH",
"184 -6 OFFCURVE",
"210 18 OFFCURVE",
"210 50 CURVE SMOOTH",
"210 82 OFFCURVE",
"184 106 OFFCURVE",
"152 106 CURVE SMOOTH",
"120 106 OFFCURVE",
"94 82 OFFCURVE",
"94 50 CURVE SMOOTH"
);
}
);
width = 500;
}
);
note = question;
unicode = 003F;
},
{
glyphname = at;
lastChange = "2017-06-09 11:44:12 +0000";
layers = (
{
layerId = "FDC62533-83BB-4EB8-8B15-51662AB4ACD2";
paths = (
{
closed = 1;
nodes = (
"514 300 OFFCURVE",
"440 194 OFFCURVE",
"381 194 CURVE SMOOTH",
"348 194 OFFCURVE",
"323 226 OFFCURVE",
"323 274 CURVE SMOOTH",
"323 393 OFFCURVE",
"407 484 OFFCURVE",
"462 484 CURVE SMOOTH",
"500 484 OFFCURVE",
"514 460 OFFCURVE",
"514 422 CURVE SMOOTH"
);
},
{
closed = 1;
nodes = (
"517 497 OFFCURVE",
"500 526 OFFCURVE",
"454 526 CURVE SMOOTH",
"330 526 OFFCURVE",
"253 367 OFFCURVE",
"253 271 CURVE SMOOTH",
"253 198 OFFCURVE",
"298 150 OFFCURVE",
"345 150 CURVE SMOOTH",
"412 150 OFFCURVE",
"443 189 OFFCURVE",
"471 223 CURVE",
"473 223 LINE",
"480 192 OFFCURVE",
"506 150 OFFCURVE",
"566 150 CURVE SMOOTH",
"689 150 OFFCURVE",
"757 291 OFFCURVE",
"757 396 CURVE SMOOTH",
"757 570 OFFCURVE",
"609 700 OFFCURVE",
"418 700 CURVE SMOOTH",
"215 700 OFFCURVE",
"42 551 OFFCURVE",
"42 328 CURVE SMOOTH",
"42 190 OFFCURVE",
"160 -12 OFFCURVE",
"429 -12 CURVE SMOOTH",
"510 -12 OFFCURVE",
"579 17 OFFCURVE",
"646 46 CURVE",
"633 72 LINE",
"574 45 OFFCURVE",
"519 20 OFFCURVE",
"428 20 CURVE SMOOTH",
"240 20 OFFCURVE",
"122 169 OFFCURVE",
"122 317 CURVE SMOOTH",
"122 547 OFFCURVE",
"253 674 OFFCURVE",
"418 674 CURVE SMOOTH",
"614 674 OFFCURVE",
"725 514 OFFCURVE",
"725 395 CURVE SMOOTH",
"725 303 OFFCURVE",
"674 182 OFFCURVE",
"582 182 CURVE SMOOTH",
"551 182 OFFCURVE",
"539 200 OFFCURVE",
"539 220 CURVE SMOOTH",
"539 231 OFFCURVE",
"541 242 OFFCURVE",
"543 251 CURVE",
"611 512 LINE",
"541 512 LINE",
"530 472 LINE"
);
}
);
width = 800;
}
);
note = at;
unicode = 0040;
},
{
glyphname = A;
lastChange = "2017-06-09 11:44:12 +0000";
layers = (
{
layerId = "FDC62533-83BB-4EB8-8B15-51662AB4ACD2";
paths = (
{
closed = 1;
nodes = (
"199 30 LINE",
"123 33 OFFCURVE",
"109 48 OFFCURVE",
"109 66 CURVE SMOOTH",
"109 94 OFFCURVE",
"175 198 OFFCURVE",
"193 234 CURVE",
"426 234 LINE",
"438 144 OFFCURVE",
"448 106 OFFCURVE",
"448 89 CURVE SMOOTH",
"448 53 OFFCURVE",
"433 39 OFFCURVE",
"343 30 CURVE",
"337 0 LINE",
"625 0 LINE",
"631 30 LINE",
"565 35 OFFCURVE",
"554 45 OFFCURVE",
"545 103 CURVE SMOOTH",
"457 688 LINE",
"414 688 LINE",
"112 165 LINE SMOOTH",
"74 100 OFFCURVE",
"26 42 OFFCURVE",
"-63 30 CURVE",
"-70 0 LINE",
"193 0 LINE"
);
},
{
closed = 1;
nodes = (
"384 563 LINE",
"421 270 LINE",
"218 270 LINE",
"382 563 LINE"
);
}
);
width = 667;
}
);
leftKerningGroup = A;
note = A;
rightKerningGroup = A;
unicode = 0041;
},
{
glyphname = B;
lastChange = "2017-06-09 11:44:12 +0000";
layers = (
{
layerId = "FDC62533-83BB-4EB8-8B15-51662AB4ACD2";
paths = (
{
closed = 1;
nodes = (
"132 658 LINE",
"196 658 OFFCURVE",
"214 646 OFFCURVE",
"214 616 CURVE SMOOTH",
"214 602 OFFCURVE",
"204 572 OFFCURVE",
"194 532 CURVE SMOOTH",
"88 125 LINE SMOOTH",
"71 61 OFFCURVE",
"50 38 OFFCURVE",
"-42 30 CURVE",
"-49 0 LINE",
"296 0 LINE SMOOTH",
"506 0 OFFCURVE",
"614 80 OFFCURVE",
"614 194 CURVE SMOOTH",
"614 300 OFFCURVE",
"542 358 OFFCURVE",
"413 364 CURVE",
"413 366 LINE",
"604 374 OFFCURVE",
"669 451 OFFCURVE",
"669 553 CURVE SMOOTH",
"669 656 OFFCURVE",
"610 688 OFFCURVE",
"428 688 CURVE SMOOTH",
"139 688 LINE"
);
},
{
closed = 1;
nodes = (
"466 350 OFFCURVE",
"504 310 OFFCURVE",
"504 235 CURVE SMOOTH",
"504 170 OFFCURVE",
"478 77 OFFCURVE",
"390 48 CURVE SMOOTH",
"350 35 OFFCURVE",
"299 30 OFFCURVE",
"250 30 CURVE SMOOTH",
"194 30 OFFCURVE",
"173 40 OFFCURVE",
"173 69 CURVE SMOOTH",
"173 85 OFFCURVE",
"184 110 OFFCURVE",
"190 134 CURVE SMOOTH",
"245 350 LINE",
"360 350 LINE SMOOTH"
);
},
{
closed = 1;
nodes = (
"305 575 LINE SMOOTH",
"321 635 OFFCURVE",
"348 658 OFFCURVE",
"444 658 CURVE SMOOTH",
"525 658 OFFCURVE",
"559 632 OFFCURVE",
"559 571 CURVE SMOOTH",
"559 445 OFFCURVE",
"487 386 OFFCURVE",
"393 386 CURVE SMOOTH",
"255 386 LINE"
);
}
);
width = 667;
}
);
note = B;
unicode = 0042;
},
{
glyphname = C;
lastChange = "2017-06-09 11:44:12 +0000";
layers = (
{
layerId = "FDC62533-83BB-4EB8-8B15-51662AB4ACD2";
paths = (
{
closed = 1;
nodes = (
"532 130 OFFCURVE",
"454 24 OFFCURVE",
"324 24 CURVE SMOOTH",
"234 24 OFFCURVE",
"156 64 OFFCURVE",
"157 204 CURVE SMOOTH",
"158 444 OFFCURVE",
"274 664 OFFCURVE",
"462 664 CURVE SMOOTH",
"602 664 OFFCURVE",
"620 566 OFFCURVE",
"621 442 CURVE",
"646 444 LINE",
"706 684 LINE",
"677 684 LINE",
"659 659 OFFCURVE",
"647 632 OFFCURVE",
"637 632 CURVE SMOOTH",
"625 632 OFFCURVE",
"586 700 OFFCURVE",
"466 700 CURVE SMOOTH",
"276 700 OFFCURVE",
"47 516 OFFCURVE",
"47 286 CURVE SMOOTH",
"47 115 OFFCURVE",
"162 -12 OFFCURVE",
"316 -12 CURVE SMOOTH",
"466 -12 OFFCURVE",
"569 109 OFFCURVE",
"607 251 CURVE",
"572 254 LINE"
);
}
);
width = 667;
}
);
note = C;
unicode = 0043;
},
{
glyphname = D;
lastChange = "2017-06-09 11:44:12 +0000";
layers = (
{
layerId = "FDC62533-83BB-4EB8-8B15-51662AB4ACD2";
paths = (
{
closed = 1;
nodes = (
"78 69 OFFCURVE",
"61 37 OFFCURVE",
"-33 30 CURVE",
"-40 0 LINE",
"287 0 LINE SMOOTH",
"608 0 OFFCURVE",
"699 278 OFFCURVE",
"699 417 CURVE SMOOTH",
"699 517 OFFCURVE",
"650 688 OFFCURVE",
"471 688 CURVE SMOOTH",
"144 688 LINE",
"136 658 LINE",
"200 658 OFFCURVE",
"218 646 OFFCURVE",
"218 616 CURVE SMOOTH",
"218 602 OFFCURVE",
"202 548 OFFCURVE",
"190 502 CURVE SMOOTH",
"100 153 LINE SMOOTH"
);
},
{
closed = 1;
nodes = (
"589 370 OFFCURVE",
"541 180 OFFCURVE",
"474 108 CURVE SMOOTH",
"422 52 OFFCURVE",
"362 30 OFFCURVE",
"278 30 CURVE SMOOTH",
"206 30 OFFCURVE",
"186 46 OFFCURVE",
"186 82 CURVE SMOOTH",
"186 98 OFFCURVE",
"205 168 OFFCURVE",
"217 212 CURVE SMOOTH",
"313 573 LINE SMOOTH",
"330 637 OFFCURVE",
"360 658 OFFCURVE",
"434 658 CURVE SMOOTH",
"537 658 OFFCURVE",
"589 620 OFFCURVE",
"589 486 CURVE SMOOTH"
);
}
);
width = 722;
}
);
note = D;
unicode = 0044;
},
{
glyphname = E;
lastChange = "2017-06-09 11:44:12 +0000";
layers = (
{
layerId = "FDC62533-83BB-4EB8-8B15-51662AB4ACD2";
paths = (
{
closed = 1;
nodes = (
"556 252 LINE",
"497 104 OFFCURVE",
"414 30 OFFCURVE",
"245 30 CURVE SMOOTH",
"194 30 OFFCURVE",
"178 46 OFFCURVE",
"178 72 CURVE SMOOTH",
"178 93 OFFCURVE",
"191 131 OFFCURVE",
"199 160 CURVE SMOOTH",
"248 348 LINE",
"359 346 OFFCURVE",
"375 342 OFFCURVE",
"375 224 CURVE",
"403 224 LINE",
"472 498 LINE",
"443 498 LINE",
"402 402 OFFCURVE",
"380 380 OFFCURVE",
"258 384 CURVE",
"308 578 LINE SMOOTH",
"321 630 OFFCURVE",
"344 658 OFFCURVE",
"432 658 CURVE SMOOTH",
"557 658 OFFCURVE",
"602 606 OFFCURVE",
"602 496 CURVE SMOOTH",
"602 480 OFFCURVE",
"600 460 OFFCURVE",
"600 444 CURVE",
"630 444 LINE",
"689 688 LINE",
"141 688 LINE",
"133 658 LINE",
"199 656 OFFCURVE",
"212 645 OFFCURVE",
"212 610 CURVE SMOOTH",
"212 593 OFFCURVE",
"199 550 OFFCURVE",
"188 509 CURVE SMOOTH",
"85 110 LINE SMOOTH",
"70 51 OFFCURVE",
"46 31 OFFCURVE",
"-34 30 CURVE",
"-41 0 LINE",
"517 0 LINE",
"589 252 LINE"
);
}
);
width = 667;
}
);
note = E;
unicode = 0045;
},
{
glyphname = F;
lastChange = "2017-06-09 11:44:12 +0000";
layers = (
{
layerId = "FDC62533-83BB-4EB8-8B15-51662AB4ACD2";
paths = (
{
closed = 1;
nodes = (
"133 658 LINE",
"199 656 OFFCURVE",
"212 645 OFFCURVE",
"212 610 CURVE SMOOTH",
"212 593 OFFCURVE",
"199 550 OFFCURVE",
"188 509 CURVE SMOOTH",
"85 110 LINE SMOOTH",
"70 51 OFFCURVE",
"46 31 OFFCURVE",
"-34 30 CURVE",
"-41 0 LINE",
"273 0 LINE",
"281 30 LINE",
"194 30 OFFCURVE",
"178 48 OFFCURVE",
"178 74 CURVE SMOOTH",
"178 87 OFFCURVE",
"198 154 OFFCURVE",
"213 211 CURVE SMOOTH",
"248 348 LINE",
"367 346 OFFCURVE",
"383 342 OFFCURVE",
"383 224 CURVE",
"411 224 LINE",
"480 498 LINE",
"451 498 LINE",
"410 402 OFFCURVE",
"390 382 OFFCURVE",
"258 384 CURVE",
"303 558 LINE SMOOTH",
"324 639 OFFCURVE",
"344 658 OFFCURVE",
"446 658 CURVE SMOOTH",
"559 658 OFFCURVE",
"604 606 OFFCURVE",
"604 496 CURVE SMOOTH",
"604 480 OFFCURVE",
"602 460 OFFCURVE",
"602 444 CURVE",
"632 444 LINE",
"691 688 LINE",
"141 688 LINE"
);
}
);
width = 611;
}
);
note = F;
rightKerningGroup = F;
unicode = 0046;
},
{
glyphname = G;
lastChange = "2017-06-09 11:44:12 +0000";
layers = (
{
layerId = "FDC62533-83BB-4EB8-8B15-51662AB4ACD2";
paths = (
{
closed = 1;
nodes = (
"391 297 LINE",
"461 297 OFFCURVE",
"481 274 OFFCURVE",
"481 240 CURVE SMOOTH",
"481 114 OFFCURVE",
"404 24 OFFCURVE",
"302 24 CURVE SMOOTH",
"228 24 OFFCURVE",
"154 66 OFFCURVE",
"154 190 CURVE SMOOTH",
"154 440 OFFCURVE",
"274 664 OFFCURVE",
"452 664 CURVE SMOOTH",
"564 664 OFFCURVE",
"596 590 OFFCURVE",
"598 438 CURVE",
"630 438 LINE",
"682 688 LINE",
"652 688 LINE",
"649 683 OFFCURVE",
"626 636 OFFCURVE",
"618 636 CURVE SMOOTH",
"610 636 OFFCURVE",
"558 700 OFFCURVE",
"450 700 CURVE SMOOTH",
"260 700 OFFCURVE",
"44 508 OFFCURVE",
"44 286 CURVE SMOOTH",
"44 138 OFFCURVE",
"149 -12 OFFCURVE",
"300 -12 CURVE SMOOTH",
"405 -12 OFFCURVE",
"460 50 OFFCURVE",
"472 50 CURVE SMOOTH",
"480 50 OFFCURVE",
"494 5 OFFCURVE",
"496 0 CURVE",
"527 0 LINE",
"581 216 LINE SMOOTH",
"596 277 OFFCURVE",
"618 297 OFFCURVE",
"700 297 CURVE",
"706 327 LINE",
"398 327 LINE"
);
}
);
width = 722;
}
);
note = G;
unicode = 0047;
},
{
glyphname = H;
lastChange = "2017-06-09 11:44:12 +0000";
layers = (
{
layerId = "FDC62533-83BB-4EB8-8B15-51662AB4ACD2";
paths = (
{
closed = 1;
nodes = (
"271 30 LINE",
"202 30 OFFCURVE",
"184 47 OFFCURVE",
"184 77 CURVE SMOOTH",
"184 99 OFFCURVE",
"197 138 OFFCURVE",
"212 196 CURVE SMOOTH",
"253 350 LINE",
"551 350 LINE",
"492 115 LINE SMOOTH",
"474 42 OFFCURVE",
"454 30 OFFCURVE",
"363 30 CURVE",
"356 0 LINE",
"668 0 LINE",
"675 30 LINE",
"606 28 OFFCURVE",
"584 38 OFFCURVE",
"584 67 CURVE SMOOTH",
"584 86 OFFCURVE",
"599 129 OFFCURVE",
"608 164 CURVE SMOOTH",
"703 533 LINE SMOOTH",
"731 640 OFFCURVE",
"752 658 OFFCURVE",
"837 658 CURVE",
"843 688 LINE",
"539 688 LINE",
"532 658 LINE",
"606 656 OFFCURVE",
"619 636 OFFCURVE",
"619 618 CURVE SMOOTH",
"619 602 OFFCURVE",
"609 565 OFFCURVE",
"598 523 CURVE SMOOTH",
"561 386 LINE",
"263 386 LINE",
"313 562 LINE SMOOTH",
"337 646 OFFCURVE",
"349 658 OFFCURVE",
"441 658 CURVE",
"447 688 LINE",
"142 688 LINE",
"137 658 LINE",
"211 659 OFFCURVE",
"222 650 OFFCURVE",
"222 623 CURVE SMOOTH",
"222 609 OFFCURVE",
"210 566 OFFCURVE",
"202 535 CURVE SMOOTH",
"86 113 LINE SMOOTH",
"67 44 OFFCURVE",
"51 34 OFFCURVE",
"-34 30 CURVE",
"-41 0 LINE",
"265 0 LINE"
);
}
);
width = 778;
}
);
note = H;
unicode = 0048;
},
{
glyphname = I;
lastChange = "2017-06-09 11:44:12 +0000";
layers = (
{
layerId = "FDC62533-83BB-4EB8-8B15-51662AB4ACD2";
paths = (
{
closed = 1;
nodes = (
"282 30 LINE",
"212 26 OFFCURVE",
"192 42 OFFCURVE",
"192 72 CURVE SMOOTH",
"192 102 OFFCURVE",
"219 184 OFFCURVE",
"235 247 CURVE SMOOTH",
"323 589 LINE SMOOTH",
"335 636 OFFCURVE",
"354 658 OFFCURVE",
"438 658 CURVE",
"442 688 LINE",
"153 688 LINE",
"145 658 LINE",
"212 658 OFFCURVE",
"225 638 OFFCURVE",
"225 618 CURVE SMOOTH",
"225 596 OFFCURVE",
"212 546 OFFCURVE",
"198 494 CURVE SMOOTH",
"97 105 LINE SMOOTH",
"80 41 OFFCURVE",
"56 26 OFFCURVE",
"-14 30 CURVE",
"-24 0 LINE",
"274 0 LINE"
);
}
);
width = 389;
}
);
note = I;
unicode = 0049;
},
{
glyphname = J;
lastChange = "2017-06-09 11:44:12 +0000";
layers = (
{
layerId = "FDC62533-83BB-4EB8-8B15-51662AB4ACD2";
paths = (
{
closed = 1;
nodes = (
"269 658 LINE",
"346 658 OFFCURVE",
"360 646 OFFCURVE",
"360 616 CURVE SMOOTH",
"360 600 OFFCURVE",
"353 570 OFFCURVE",
"342 525 CURVE SMOOTH",
"246 135 LINE SMOOTH",
"232 77 OFFCURVE",
"202 18 OFFCURVE",
"118 18 CURVE SMOOTH",
"44 18 OFFCURVE",
"17 72 OFFCURVE",
"17 105 CURVE SMOOTH",
"17 115 OFFCURVE",
"22 124 OFFCURVE",
"28 124 CURVE SMOOTH",
"41 124 OFFCURVE",
"51 113 OFFCURVE",
"69 113 CURVE SMOOTH",
"103 113 OFFCURVE",
"124 133 OFFCURVE",
"124 171 CURVE SMOOTH",
"124 209 OFFCURVE",
"99 229 OFFCURVE",
"61 229 CURVE SMOOTH",
"2 229 OFFCURVE",
"-25 177 OFFCURVE",
"-25 135 CURVE SMOOTH",
"-25 53 OFFCURVE",
"26 -12 OFFCURVE",
"137 -12 CURVE SMOOTH",
"253 -12 OFFCURVE",
"322 50 OFFCURVE",
"350 161 CURVE SMOOTH",
"459 594 LINE SMOOTH",
"472 645 OFFCURVE",
"502 656 OFFCURVE",
"563 658 CURVE",
"567 688 LINE",
"276 688 LINE"
);
}
);
width = 500;
}
);
note = J;
unicode = 004A;
},
{
glyphname = K;
lastChange = "2017-06-09 11:44:12 +0000";
layers = (
{
layerId = "FDC62533-83BB-4EB8-8B15-51662AB4ACD2";
paths = (
{
closed = 1;
nodes = (
"294 30 LINE",
"232 30 OFFCURVE",
"198 38 OFFCURVE",
"198 63 CURVE SMOOTH",
"198 79 OFFCURVE",
"207 101 OFFCURVE",
"211 116 CURVE SMOOTH",
"248 262 LINE",
"358 351 LINE",
"457 111 LINE SMOOTH",
"463 97 OFFCURVE",
"466 86 OFFCURVE",
"466 74 CURVE SMOOTH",
"466 42 OFFCURVE",
"429 30 OFFCURVE",
"368 30 CURVE",
"361 0 LINE",
"679 0 LINE",
"684 30 LINE",
"632 30 OFFCURVE",
"603 35 OFFCURVE",
"583 83 CURVE SMOOTH",
"446 419 LINE",
"624 563 LINE SMOOTH",
"677 606 OFFCURVE",
"731 647 OFFCURVE",
"804 658 CURVE",
"808 688 LINE",
"549 688 LINE",
"542 658 LINE",
"605 658 OFFCURVE",
"612 655 OFFCURVE",
"612 629 CURVE SMOOTH",
"612 613 OFFCURVE",
"599 596 OFFCURVE",
"579 580 CURVE SMOOTH",
"268 328 LINE",
"266 330 LINE",
"326 567 LINE SMOOTH",
"347 649 OFFCURVE",
"374 659 OFFCURVE",
"454 658 CURVE",
"461 688 LINE",
"153 688 LINE",
"146 658 LINE",
"216 660 OFFCURVE",
"232 642 OFFCURVE",
"232 617 CURVE SMOOTH",
"232 604 OFFCURVE",
"224 573 OFFCURVE",
"218 551 CURVE SMOOTH",
"99 100 LINE SMOOTH",
"88 58 OFFCURVE",
"55 30 OFFCURVE",
"-28 30 CURVE",
"-35 0 LINE",
"288 0 LINE"
);
}
);
width = 722;
}
);
note = K;
unicode = 004B;
},
{
glyphname = L;
lastChange = "2017-06-09 11:44:12 +0000";
layers = (
{
layerId = "FDC62533-83BB-4EB8-8B15-51662AB4ACD2";
paths = (
{
closed = 1;
nodes = (
"588 252 LINE",
"557 255 LINE",
"498 104 OFFCURVE",
"415 30 OFFCURVE",
"247 30 CURVE SMOOTH",
"199 30 OFFCURVE",
"183 48 OFFCURVE",
"183 79 CURVE SMOOTH",
"183 97 OFFCURVE",
"191 121 OFFCURVE",
"201 160 CURVE SMOOTH",
"310 572 LINE SMOOTH",
"329 646 OFFCURVE",
"347 658 OFFCURVE",
"433 658 CURVE",
"438 688 LINE",
"137 688 LINE",
"130 658 LINE",
"207 658 OFFCURVE",
"216 646 OFFCURVE",
"216 616 CURVE SMOOTH",
"216 598 OFFCURVE",
"208 561 OFFCURVE",
"201 536 CURVE SMOOTH",
"80 84 LINE SMOOTH",
"70 47 OFFCURVE",
"52 34 OFFCURVE",
"-37 30 CURVE",
"-44 0 LINE",
"516 0 LINE"
);
}
);
width = 611;
}
);
note = L;
rightKerningGroup = L;
unicode = 004C;
},
{
glyphname = M;
lastChange = "2017-06-09 11:44:12 +0000";
layers = (
{
layerId = "FDC62533-83BB-4EB8-8B15-51662AB4ACD2";
paths = (
{
closed = 1;
nodes = (
"206 29 LINE",
"138 29 OFFCURVE",
"117 46 OFFCURVE",
"117 78 CURVE SMOOTH",
"117 102 OFFCURVE",
"131 140 OFFCURVE",
"141 180 CURVE SMOOTH",
"261 644 LINE",
"263 644 LINE",
"294 0 LINE",
"331 0 LINE",
"700 652 LINE",
"702 650 LINE",
"552 80 LINE SMOOTH",
"543 46 OFFCURVE",
"526 30 OFFCURVE",
"442 30 CURVE",
"435 0 LINE",
"726 0 LINE",
"734 28 LINE",
"674 26 OFFCURVE",
"655 40 OFFCURVE",
"655 74 CURVE SMOOTH",
"655 100 OFFCURVE",
"664 123 OFFCURVE",
"682 192 CURVE SMOOTH",
"778 551 LINE SMOOTH",
"797 622 OFFCURVE",
"817 658 OFFCURVE",
"897 658 CURVE",
"903 688 LINE",
"672 688 LINE",
"382 168 LINE",
"380 168 LINE",
"358 688 LINE",
"132 688 LINE",
"127 658 LINE",
"170 662 OFFCURVE",
"213 652 OFFCURVE",
"213 622 CURVE SMOOTH",
"213 596 OFFCURVE",
"199 561 OFFCURVE",
"187 515 CURVE SMOOTH",
"78 110 LINE SMOOTH",
"65 60 OFFCURVE",
"38 34 OFFCURVE",
"-41 30 CURVE",
"-48 0 LINE",
"200 0 LINE"
);
}
);
width = 833;
}
);
note = M;
unicode = 004D;
},
{
glyphname = N;
lastChange = "2017-06-09 11:44:12 +0000";
layers = (
{
layerId = "FDC62533-83BB-4EB8-8B15-51662AB4ACD2";
paths = (
{
closed = 1;
nodes = (
"204 30 LINE",
"139 30 OFFCURVE",
"116 49 OFFCURVE",
"116 84 CURVE SMOOTH",
"116 110 OFFCURVE",
"128 147 OFFCURVE",
"137 183 CURVE SMOOTH",
"235 562 LINE",
"237 562 LINE",
"488 0 LINE",
"525 0 LINE",
"675 564 LINE SMOOTH",
"692 629 OFFCURVE",
"724 658 OFFCURVE",
"789 658 CURVE",
"794 688 LINE",
"563 688 LINE",
"556 658 LINE",
"624 654 OFFCURVE",
"639 626 OFFCURVE",
"639 606 CURVE SMOOTH",
"639 582 OFFCURVE",
"633 558 OFFCURVE",
"613 481 CURVE SMOOTH",
"528 156 LINE",
"526 156 LINE",
"289 688 LINE",
"127 688 LINE",
"120 658 LINE",
"195 655 OFFCURVE",
"209 632 OFFCURVE",
"209 612 CURVE SMOOTH",
"209 590 OFFCURVE",
"194 544 OFFCURVE",
"181 497 CURVE SMOOTH",
"73 102 LINE SMOOTH",
"61 57 OFFCURVE",
"23 36 OFFCURVE",
"-43 30 CURVE",
"-50 0 LINE",
"198 0 LINE"
);
}
);
width = 722;
}
);
note = N;
unicode = 004E;
},
{
glyphname = O;
lastChange = "2017-06-09 11:44:12 +0000";
layers = (
{
layerId = "FDC62533-83BB-4EB8-8B15-51662AB4ACD2";
paths = (
{
closed = 1;
nodes = (
"695 566 OFFCURVE",
"586 700 OFFCURVE",
"444 700 CURVE SMOOTH",
"252 700 OFFCURVE",
"52 500 OFFCURVE",
"52 302 CURVE SMOOTH",
"52 104 OFFCURVE",
"156 -12 OFFCURVE",
"296 -12 CURVE SMOOTH",
"496 -12 OFFCURVE",
"695 184 OFFCURVE",
"695 400 CURVE SMOOTH"
);
},
{
closed = 1;
nodes = (
"597 336 OFFCURVE",
"518 24 OFFCURVE",
"306 24 CURVE SMOOTH",
"224 24 OFFCURVE",
"150 66 OFFCURVE",
"150 192 CURVE SMOOTH",
"150 336 OFFCURVE",
"218 664 OFFCURVE",
"440 664 CURVE SMOOTH",
"542 664 OFFCURVE",
"597 594 OFFCURVE",
"597 476 CURVE SMOOTH"
);
}
);
width = 722;
}
);
note = O;
unicode = 004F;
},
{
glyphname = P;
lastChange = "2017-06-09 11:44:12 +0000";
layers = (
{
layerId = "FDC62533-83BB-4EB8-8B15-51662AB4ACD2";
paths = (
{
closed = 1;
nodes = (
"266 30 LINE",
"190 30 OFFCURVE",
"172 58 OFFCURVE",
"172 76 CURVE SMOOTH",
"172 98 OFFCURVE",
"184 139 OFFCURVE",
"192 169 CURVE SMOOTH",
"231 315 LINE",
"306 315 LINE SMOOTH",
"554 315 OFFCURVE",
"643 394 OFFCURVE",
"643 521 CURVE SMOOTH",
"643 619 OFFCURVE",
"590 688 OFFCURVE",
"404 688 CURVE SMOOTH",
"130 688 LINE",
"123 658 LINE",
"188 658 OFFCURVE",
"201 640 OFFCURVE",
"201 614 CURVE SMOOTH",
"201 602 OFFCURVE",
"193 574 OFFCURVE",
"183 536 CURVE SMOOTH",
"70 108 LINE SMOOTH",
"54 49 OFFCURVE",
"38 38 OFFCURVE",
"-45 30 CURVE",
"-52 0 LINE",
"260 0 LINE"
);
},
{
closed = 1;
nodes = (
"302 584 LINE SMOOTH",
"318 645 OFFCURVE",
"354 658 OFFCURVE",
"420 658 CURVE SMOOTH",
"498 658 OFFCURVE",
"533 610 OFFCURVE",
"533 564 CURVE SMOOTH",
"533 396 OFFCURVE",
"460 351 OFFCURVE",
"340 351 CURVE SMOOTH",
"241 351 LINE"
);
}
);
width = 611;
}
);
note = P;
rightKerningGroup = P;
unicode = 0050;
},
{
glyphname = Q;
lastChange = "2017-06-09 11:44:12 +0000";
layers = (
{
layerId = "FDC62533-83BB-4EB8-8B15-51662AB4ACD2";
paths = (
{
closed = 1;
nodes = (
"213 165 OFFCURVE",
"238 186 OFFCURVE",
"276 186 CURVE SMOOTH",
"311 186 OFFCURVE",
"336 162 OFFCURVE",
"336 111 CURVE SMOOTH",
"336 82 OFFCURVE",
"332 48 OFFCURVE",
"330 27 CURVE",
"323 26 OFFCURVE",
"312 24 OFFCURVE",
"303 24 CURVE SMOOTH",
"255 24 OFFCURVE",
"213 60 OFFCURVE",
"213 112 CURVE SMOOTH"
);
},
{
closed = 1;
nodes = (
"695 566 OFFCURVE",
"586 700 OFFCURVE",
"444 700 CURVE SMOOTH",
"252 700 OFFCURVE",
"52 500 OFFCURVE",
"52 302 CURVE SMOOTH",
"52 115 OFFCURVE",
"155 -12 OFFCURVE",
"296 -12 CURVE SMOOTH",
"307 -12 OFFCURVE",
"317 -11 OFFCURVE",
"330 -10 CURVE",
"334 -97 OFFCURVE",
"364 -146 OFFCURVE",
"427 -146 CURVE SMOOTH",
"506 -146 OFFCURVE",
"563 -92 OFFCURVE",
"597 16 CURVE",
"575 27 LINE",
"556 -12 OFFCURVE",
"529 -68 OFFCURVE",
"485 -68 CURVE SMOOTH",
"447 -68 OFFCURVE",
"429 -36 OFFCURVE",
"422 14 CURVE",
"571 72 OFFCURVE",
"695 230 OFFCURVE",
"695 400 CURVE SMOOTH"
);
},
{
closed = 1;
nodes = (
"597 362 OFFCURVE",
"545 135 OFFCURVE",
"414 54 CURVE",
"402 161 OFFCURVE",
"347 216 OFFCURVE",
"279 216 CURVE SMOOTH",
"218 216 OFFCURVE",
"181 173 OFFCURVE",
"181 119 CURVE SMOOTH",
"181 100 OFFCURVE",
"189 74 OFFCURVE",
"199 58 CURVE",
"199 56 LINE",
"170 84 OFFCURVE",
"150 126 OFFCURVE",
"150 192 CURVE SMOOTH",
"150 336 OFFCURVE",
"218 664 OFFCURVE",
"440 664 CURVE SMOOTH",
"542 664 OFFCURVE",
"597 594 OFFCURVE",
"597 476 CURVE SMOOTH"
);
}
);
width = 722;
}
);
note = Q;
unicode = 0051;
},
{
glyphname = R;
lastChange = "2017-06-09 11:44:12 +0000";
layers = (
{
layerId = "FDC62533-83BB-4EB8-8B15-51662AB4ACD2";
paths = (
{
closed = 1;
nodes = (
"607 125 OFFCURVE",
"580 50 OFFCURVE",
"547 50 CURVE SMOOTH",
"524 50 OFFCURVE",
"510 63 OFFCURVE",
"510 104 CURVE SMOOTH",
"510 267 OFFCURVE",
"471 313 OFFCURVE",
"389 344 CURVE",
"389 346 LINE",
"424 346 LINE SMOOTH",
"561 346 OFFCURVE",
"657 422 OFFCURVE",
"657 523 CURVE SMOOTH",
"657 613 OFFCURVE",
"600 688 OFFCURVE",
"445 688 CURVE SMOOTH",
"130 688 LINE",
"123 658 LINE",
"197 658 OFFCURVE",
"209 649 OFFCURVE",
"209 620 CURVE SMOOTH",
"209 603 OFFCURVE",
"203 573 OFFCURVE",
"195 542 CURVE SMOOTH",
"91 140 LINE SMOOTH",
"72 66 OFFCURVE",
"44 32 OFFCURVE",
"-44 30 CURVE",
"-52 0 LINE",
"265 0 LINE",
"273 30 LINE",
"194 30 OFFCURVE",
"179 46 OFFCURVE",
"179 79 CURVE SMOOTH",
"179 103 OFFCURVE",
"191 132 OFFCURVE",
"200 167 CURVE SMOOTH",
"243 332 LINE",
"314 332 LINE SMOOTH",
"380 332 OFFCURVE",
"406 308 OFFCURVE",
"409 264 CURVE SMOOTH",
"412 222 OFFCURVE",
"392 147 OFFCURVE",
"392 86 CURVE SMOOTH",
"392 32 OFFCURVE",
"428 -12 OFFCURVE",
"491 -12 CURVE SMOOTH",
"579 -12 OFFCURVE",
"619 72 OFFCURVE",
"646 143 CURVE",
"617 151 LINE"
);
},
{
closed = 1;
nodes = (
"325 637 OFFCURVE",
"361 652 OFFCURVE",
"438 652 CURVE SMOOTH",
"506 652 OFFCURVE",
"547 618 OFFCURVE",
"547 544 CURVE SMOOTH",
"547 432 OFFCURVE",
"490 372 OFFCURVE",
"368 372 CURVE SMOOTH",
"255 372 LINE",
"315 600 LINE SMOOTH"
);
}
);
width = 667;
}
);
note = R;
rightKerningGroup = R;
unicode = 0052;
},
{
glyphname = S;
lastChange = "2017-06-09 11:44:12 +0000";
layers = (
{
layerId = "FDC62533-83BB-4EB8-8B15-51662AB4ACD2";
paths = (
{
closed = 1;
nodes = (
"13 9 OFFCURVE",
"37 47 OFFCURVE",
"49 47 CURVE SMOOTH",
"70 47 OFFCURVE",
"106 -12 OFFCURVE",
"233 -12 CURVE SMOOTH",
"388 -12 OFFCURVE",
"504 86 OFFCURVE",
"504 214 CURVE SMOOTH",
"504 412 OFFCURVE",
"202 396 OFFCURVE",
"202 543 CURVE SMOOTH",
"202 625 OFFCURVE",
"270 670 OFFCURVE",
"343 670 CURVE SMOOTH",
"450 670 OFFCURVE",
"498 606 OFFCURVE",
"498 494 CURVE SMOOTH",
"498 438 LINE",
"526 438 LINE",
"586 688 LINE",
"554 688 LINE",
"549 679 OFFCURVE",
"531 636 OFFCURVE",
"516 636 CURVE SMOOTH",
"503 636 OFFCURVE",
"468 700 OFFCURVE",
"355 700 CURVE SMOOTH",
"202 700 OFFCURVE",
"104 604 OFFCURVE",
"104 483 CURVE SMOOTH",
"104 304 OFFCURVE",
"406 320 OFFCURVE",
"406 166 CURVE SMOOTH",
"406 60 OFFCURVE",
"312 18 OFFCURVE",
"230 18 CURVE SMOOTH",
"145 18 OFFCURVE",
"70 56 OFFCURVE",
"70 191 CURVE SMOOTH",
"70 251 LINE",
"42 251 LINE",
"-25 0 LINE",
"9 0 LINE"
);
}
);
width = 556;
}
);
note = S;
unicode = 0053;
},
{
glyphname = T;
lastChange = "2017-06-09 11:44:12 +0000";
layers = (
{
layerId = "FDC62533-83BB-4EB8-8B15-51662AB4ACD2";
paths = (
{
closed = 1;
nodes = (
"394 30 LINE",
"316 28 OFFCURVE",
"302 46 OFFCURVE",
"302 70 CURVE SMOOTH",
"302 94 OFFCURVE",
"314 130 OFFCURVE",
"330 192 CURVE SMOOTH",
"451 658 LINE",
"570 658 OFFCURVE",
"602 620 OFFCURVE",
"602 502 CURVE SMOOTH",
"602 449 LINE",
"632 449 LINE",
"691 688 LINE",
"137 688 LINE",
"67 451 LINE",
"96 451 LINE",
"154 580 OFFCURVE",
"216 657 OFFCURVE",
"353 658 CURVE",
"209 111 LINE SMOOTH",
"193 50 OFFCURVE",
"162 32 OFFCURVE",
"79 30 CURVE",
"71 0 LINE",
"386 0 LINE"
);
}
);
width = 611;
}
);
leftKerningGroup = T;
note = T;
rightKerningGroup = T;
unicode = 0054;
},
{
glyphname = U;
lastChange = "2017-06-09 11:44:12 +0000";
layers = (
{
layerId = "FDC62533-83BB-4EB8-8B15-51662AB4ACD2";
paths = (
{
closed = 1;
nodes = (
"111 658 LINE",
"186 658 OFFCURVE",
"196 649 OFFCURVE",
"196 621 CURVE SMOOTH",
"196 594 OFFCURVE",
"83 233 OFFCURVE",
"83 160 CURVE SMOOTH",
"83 72 OFFCURVE",
"167 -12 OFFCURVE",
"313 -12 CURVE SMOOTH",
"451 -12 OFFCURVE",
"546 50 OFFCURVE",
"581 181 CURVE SMOOTH",
"687 581 LINE SMOOTH",
"704 646 OFFCURVE",
"738 656 OFFCURVE",
"794 658 CURVE",
"799 688 LINE",
"567 688 LINE",
"563 658 LINE",
"628 658 OFFCURVE",
"646 649 OFFCURVE",
"646 605 CURVE SMOOTH",
"646 569 OFFCURVE",
"631 527 OFFCURVE",
"619 482 CURVE SMOOTH",
"543 190 LINE SMOOTH",
"520 100 OFFCURVE",
"475 24 OFFCURVE",
"328 24 CURVE SMOOTH",
"247 24 OFFCURVE",
"181 63 OFFCURVE",
"181 131 CURVE SMOOTH",
"181 165 OFFCURVE",
"195 211 OFFCURVE",
"204 244 CURVE SMOOTH",
"296 593 LINE SMOOTH",
"310 645 OFFCURVE",
"328 658 OFFCURVE",
"413 658 CURVE",
"419 688 LINE",
"118 688 LINE"
);
}
);
width = 722;
}
);
note = U;
unicode = 0055;
},
{
glyphname = V;
lastChange = "2017-06-09 11:44:12 +0000";
layers = (
{
layerId = "FDC62533-83BB-4EB8-8B15-51662AB4ACD2";
paths = (
{
closed = 1;
nodes = (
"60 658 LINE",
"130 658 OFFCURVE",
"137 619 OFFCURVE",
"146 561 CURVE SMOOTH",
"231 0 LINE",
"279 0 LINE",
"574 533 LINE SMOOTH",
"624 624 OFFCURVE",
"644 658 OFFCURVE",
"694 658 CURVE",
"700 688 LINE",
"493 688 LINE",
"488 658 LINE",
"541 654 OFFCURVE",
"562 638 OFFCURVE",
"562 617 CURVE SMOOTH",
"562 602 OFFCURVE",
"547 573 OFFCURVE",
"513 510 CURVE SMOOTH",
"310 128 LINE",
"305 129 LINE",
"259 494 LINE SMOOTH",
"252 546 OFFCURVE",
"246 580 OFFCURVE",
"246 606 CURVE SMOOTH",
"246 638 OFFCURVE",
"287 658 OFFCURVE",
"339 658 CURVE",
"343 688 LINE",
"65 688 LINE"
);
}
);
width = 611;
}
);
leftKerningGroup = V;
note = V;
rightKerningGroup = V;
unicode = 0056;
},
{
glyphname = W;
lastChange = "2017-06-09 11:44:12 +0000";
layers = (
{
layerId = "FDC62533-83BB-4EB8-8B15-51662AB4ACD2";
paths = (
{
closed = 1;
nodes = (
"67 658 LINE",
"125 651 OFFCURVE",
"134 645 OFFCURVE",
"141 568 CURVE SMOOTH",
"190 0 LINE",
"234 0 LINE",
"457 485 LINE",
"459 485 LINE",
"502 0 LINE",
"543 0 LINE",
"791 529 LINE SMOOTH",
"838 629 OFFCURVE",
"852 648 OFFCURVE",
"912 658 CURVE",
"919 688 LINE",
"722 688 LINE",
"715 658 LINE",
"773 654 OFFCURVE",
"785 645 OFFCURVE",
"785 621 CURVE SMOOTH",
"785 605 OFFCURVE",
"767 577 OFFCURVE",
"750 541 CURVE SMOOTH",
"582 174 LINE",
"580 174 LINE",
"554 532 LINE SMOOTH",
"552 558 OFFCURVE",
"550 580 OFFCURVE",
"550 599 CURVE SMOOTH",
"550 634 OFFCURVE",
"563 658 OFFCURVE",
"628 658 CURVE",
"634 688 LINE",
"384 688 LINE",
"377 658 LINE",
"430 656 OFFCURVE",
"452 638 OFFCURVE",
"452 603 CURVE SMOOTH",
"452 557 LINE",
"272 176 LINE",
"270 176 LINE",
"244 523 LINE SMOOTH",
"242 548 OFFCURVE",
"239 572 OFFCURVE",
"239 609 CURVE SMOOTH",
"239 636 OFFCURVE",
"252 658 OFFCURVE",
"324 658 CURVE",
"329 688 LINE",
"74 688 LINE"
);
}
);
width = 833;
}
);
leftKerningGroup = W;
note = W;
rightKerningGroup = W;
unicode = 0057;
},
{
glyphname = X;
lastChange = "2017-06-09 11:44:12 +0000";
layers = (
{
layerId = "FDC62533-83BB-4EB8-8B15-51662AB4ACD2";
paths = (
{
closed = 1;
nodes = (
"211 30 LINE",
"135 34 OFFCURVE",
"123 52 OFFCURVE",
"123 74 CURVE SMOOTH",
"123 102 OFFCURVE",
"181 154 OFFCURVE",
"219 198 CURVE SMOOTH",
"315 308 LINE",
"349 218 LINE SMOOTH",
"368 168 OFFCURVE",
"396 104 OFFCURVE",
"396 72 CURVE SMOOTH",
"396 46 OFFCURVE",
"372 32 OFFCURVE",
"308 30 CURVE",
"301 0 LINE",
"586 0 LINE",
"593 30 LINE",
"539 31 OFFCURVE",
"516 45 OFFCURVE",
"498 93 CURVE SMOOTH",
"392 380 LINE",
"576 576 LINE SMOOTH",
"625 628 OFFCURVE",
"677 659 OFFCURVE",
"735 658 CURVE",
"741 688 LINE",
"481 688 LINE",
"475 658 LINE",
"528 658 OFFCURVE",
"544 638 OFFCURVE",
"544 622 CURVE SMOOTH",
"544 600 OFFCURVE",
"528 577 OFFCURVE",
"497 544 CURVE SMOOTH",
"377 416 LINE",
"345 500 LINE SMOOTH",
"327 548 OFFCURVE",
"306 601 OFFCURVE",
"306 616 CURVE SMOOTH",
"306 646 OFFCURVE",
"317 658 OFFCURVE",
"391 658 CURVE",
"398 688 LINE",
"111 688 LINE",
"106 658 LINE",
"167 658 OFFCURVE",
"190 643 OFFCURVE",
"205 602 CURVE SMOOTH",
"301 346 LINE",
"66 91 LINE SMOOTH",
"35 58 OFFCURVE",
"-20 40 OFFCURVE",
"-66 30 CURVE",
"-71 0 LINE",
"204 0 LINE"
);
}
);
width = 667;
}
);
note = X;
unicode = 0058;
},
{
glyphname = Y;
lastChange = "2017-06-09 11:44:12 +0000";
layers = (
{
layerId = "FDC62533-83BB-4EB8-8B15-51662AB4ACD2";
paths = (
{
closed = 1;
nodes = (
"382 30 LINE",
"307 32 OFFCURVE",
"293 43 OFFCURVE",
"293 78 CURVE SMOOTH",
"293 95 OFFCURVE",
"298 114 OFFCURVE",
"307 146 CURVE SMOOTH",
"346 288 LINE",
"593 585 LINE SMOOTH",
"632 632 OFFCURVE",
"661 653 OFFCURVE",
"705 658 CURVE",
"711 688 LINE",
"484 688 LINE",
"479 658 LINE",
"538 658 OFFCURVE",
"552 648 OFFCURVE",
"552 622 CURVE SMOOTH",
"552 592 OFFCURVE",
"518 558 OFFCURVE",
"506 543 CURVE SMOOTH",
"333 336 LINE",
"276 562 LINE SMOOTH",
"272 579 OFFCURVE",
"265 595 OFFCURVE",
"265 612 CURVE SMOOTH",
"265 639 OFFCURVE",
"300 662 OFFCURVE",
"355 658 CURVE",
"361 688 LINE",
"97 688 LINE",
"93 658 LINE",
"146 658 OFFCURVE",
"157 648 OFFCURVE",
"163 624 CURVE SMOOTH",
"244 290 LINE",
"196 100 LINE SMOOTH",
"183 49 OFFCURVE",
"162 36 OFFCURVE",
"82 30 CURVE",
"76 0 LINE",
"374 0 LINE"
);
}
);
width = 611;
}
);
leftKerningGroup = Y;
note = Y;
rightKerningGroup = Y;
unicode = 0059;
},
{
glyphname = Z;
lastChange = "2017-06-09 11:44:12 +0000";
layers = (
{
layerId = "FDC62533-83BB-4EB8-8B15-51662AB4ACD2";
paths = (
{
closed = 1;
nodes = (
"555 249 LINE",
"526 249 LINE",
"453 94 OFFCURVE",
"371 36 OFFCURVE",
"163 36 CURVE SMOOTH",
"130 36 LINE",
"645 670 LINE",
"650 688 LINE",
"196 688 LINE",
"128 444 LINE",
"158 444 LINE",
"227 596 OFFCURVE",
"283 652 OFFCURVE",
"454 652 CURVE SMOOTH",
"509 652 LINE",
"-5 22 LINE",
"-10 0 LINE",
"482 0 LINE"
);
}
);
width = 611;
}
);
note = Z;
unicode = 005A;
},
{
glyphname = bracketleft;
lastChange = "2017-06-09 11:44:12 +0000";
layers = (
{
layerId = "FDC62533-83BB-4EB8-8B15-51662AB4ACD2";
paths = (
{
closed = 1;
nodes = (
"194 -178 LINE",
"203 -142 LINE",
"139 -142 OFFCURVE",
"128 -127 OFFCURVE",
"133 -99 CURVE SMOOTH",
"142 -45 OFFCURVE",
"286 471 OFFCURVE",
"317 593 CURVE SMOOTH",
"332 652 OFFCURVE",
"355 658 OFFCURVE",
"421 658 CURVE",
"429 688 LINE",
"271 688 LINE",
"34 -178 LINE"
);
}
);
width = 444;
}
);
note = bracketleft;
unicode = 005B;
},
{
glyphname = backslash;
lastChange = "2017-06-09 11:44:12 +0000";
layers = (
{
layerId = "FDC62533-83BB-4EB8-8B15-51662AB4ACD2";
paths = (
{
closed = 1;
nodes = (
"295 -12 LINE",
"349 -12 LINE",
"-15 700 LINE",
"-69 700 LINE"
);
}
);
width = 278;
}
);
note = backslash;
unicode = 005C;
},
{
glyphname = bracketright;
lastChange = "2017-06-09 11:44:12 +0000";
layers = (
{
layerId = "FDC62533-83BB-4EB8-8B15-51662AB4ACD2";
paths = (
{
closed = 1;
nodes = (
"224 688 LINE",
"215 652 LINE",
"279 652 OFFCURVE",
"290 637 OFFCURVE",
"285 609 CURVE SMOOTH",
"276 555 OFFCURVE",
"132 39 OFFCURVE",
"101 -83 CURVE SMOOTH",
"86 -142 OFFCURVE",
"63 -148 OFFCURVE",
"-3 -148 CURVE",
"-11 -178 LINE",
"147 -178 LINE",
"384 688 LINE"
);
}
);
width = 444;
}
);
note = bracketright;
unicode = 005D;
},
{
glyphname = asciicircum;
lastChange = "2017-06-09 11:44:12 +0000";
layers = (
{
layerId = "FDC62533-83BB-4EB8-8B15-51662AB4ACD2";
paths = (
{
closed = 1;
nodes = (
"300 616 LINE",
"447 323 LINE",
"509 323 LINE",
"326 688 LINE",
"274 688 LINE",
"91 323 LINE",
"153 323 LINE"
);
}
);
width = 600;
}
);
note = asciicircum;
unicode = 005E;
},
{
glyphname = underscore;
lastChange = "2017-06-09 11:44:12 +0000";
layers = (
{
layerId = "FDC62533-83BB-4EB8-8B15-51662AB4ACD2";
paths = (
{
closed = 1;
nodes = (
"500 -75 LINE",
"0 -75 LINE",
"0 -125 LINE",
"500 -125 LINE"
);
}
);
width = 500;
}
);
note = underscore;
unicode = 005F;
},
{
glyphname = quoteleft;
lastChange = "2017-06-09 11:44:12 +0000";
layers = (
{
layerId = "FDC62533-83BB-4EB8-8B15-51662AB4ACD2";
paths = (
{
closed = 1;
nodes = (
"159 667 OFFCURVE",
"96 590 OFFCURVE",
"96 519 CURVE SMOOTH",
"96 463 OFFCURVE",
"127 436 OFFCURVE",
"159 436 CURVE SMOOTH",
"196 436 OFFCURVE",
"220 464 OFFCURVE",
"220 500 CURVE SMOOTH",
"220 557 OFFCURVE",
"154 550 OFFCURVE",
"154 571 CURVE SMOOTH",
"154 599 OFFCURVE",
"200 651 OFFCURVE",
"234 688 CURVE",
"210 712 LINE"
);
}
);
width = 222;
}
);
note = quoteleft;
unicode = 2018;
},
{
glyphname = a;
lastChange = "2017-06-09 11:44:12 +0000";
layers = (
{
layerId = "FDC62533-83BB-4EB8-8B15-51662AB4ACD2";
paths = (
{
closed = 1;
nodes = (
"365 367 LINE",
"363 367 LINE",
"356 442 OFFCURVE",
"331 482 OFFCURVE",
"271 482 CURVE SMOOTH",
"182 482 OFFCURVE",
"23 364 OFFCURVE",
"23 174 CURVE SMOOTH",
"23 66 OFFCURVE",
"84 -12 OFFCURVE",
"164 -12 CURVE SMOOTH",
"242 -12 OFFCURVE",
"284 62 OFFCURVE",
"307 105 CURVE",
"310 103 LINE",
"306 23 OFFCURVE",
"346 -12 OFFCURVE",
"390 -12 CURVE SMOOTH",
"467 -12 OFFCURVE",
"505 96 OFFCURVE",
"543 179 CURVE",
"519 185 LINE",
"482 92 OFFCURVE",
"440 18 OFFCURVE",
"409 18 CURVE SMOOTH",
"389 18 OFFCURVE",
"378 31 OFFCURVE",
"378 53 CURVE SMOOTH",
"378 62 OFFCURVE",
"383 85 OFFCURVE",
"391 119 CURVE SMOOTH",
"476 470 LINE",
"388 470 LINE"
);
},
{
closed = 1;
nodes = (
"339 183 OFFCURVE",
"250 18 OFFCURVE",
"172 18 CURVE SMOOTH",
"132 18 OFFCURVE",
"109 41 OFFCURVE",
"109 108 CURVE SMOOTH",
"109 248 OFFCURVE",
"188 452 OFFCURVE",
"276 452 CURVE SMOOTH",
"315 452 OFFCURVE",
"339 403 OFFCURVE",
"339 322 CURVE SMOOTH"
);
}
);
width = 556;
}
);
leftKerningGroup = a;
note = a;
unicode = 0061;
},
{
glyphname = b;
lastChange = "2017-06-09 11:44:12 +0000";
layers = (
{
layerId = "FDC62533-83BB-4EB8-8B15-51662AB4ACD2";
paths = (
{
closed = 1;
nodes = (
"139 645 OFFCURVE",
"151 638 OFFCURVE",
"151 612 CURVE SMOOTH",
"151 547 OFFCURVE",
"36 251 OFFCURVE",
"36 152 CURVE SMOOTH",
"36 58 OFFCURVE",
"88 -12 OFFCURVE",
"186 -12 CURVE SMOOTH",
"326 -12 OFFCURVE",
"452 140 OFFCURVE",
"452 298 CURVE SMOOTH",
"452 410 OFFCURVE",
"385 482 OFFCURVE",
"319 482 CURVE SMOOTH",
"254 482 OFFCURVE",
"206 434 OFFCURVE",
"183 382 CURVE",
"181 384 LINE",
"256 676 LINE",
"85 672 LINE",
"79 646 LINE"
);
},
{
closed = 1;
nodes = (
"366 298 OFFCURVE",
"316 18 OFFCURVE",
"188 18 CURVE SMOOTH",
"147 18 OFFCURVE",
"118 49 OFFCURVE",
"118 93 CURVE SMOOTH",
"118 204 OFFCURVE",
"199 452 OFFCURVE",
"312 452 CURVE SMOOTH",
"346 452 OFFCURVE",
"366 422 OFFCURVE",
"366 365 CURVE SMOOTH"
);
}
);
width = 500;
}
);
note = b;
unicode = 0062;
},
{
glyphname = c;
lastChange = "2017-06-09 11:44:12 +0000";
layers = (
{
layerId = "FDC62533-83BB-4EB8-8B15-51662AB4ACD2";
paths = (
{
closed = 1;
nodes = (
"426 449 OFFCURVE",
"385 482 OFFCURVE",
"304 482 CURVE SMOOTH",
"200 482 OFFCURVE",
"18 363 OFFCURVE",
"18 179 CURVE SMOOTH",
"18 55 OFFCURVE",
"100 -12 OFFCURVE",
"184 -12 CURVE SMOOTH",
"298 -12 OFFCURVE",
"358 74 OFFCURVE",
"399 169 CURVE",
"375 180 LINE",
"345 110 OFFCURVE",
"288 18 OFFCURVE",
"202 18 CURVE SMOOTH",
"132 18 OFFCURVE",
"110 52 OFFCURVE",
"110 128 CURVE SMOOTH",
"110 232 OFFCURVE",
"180 452 OFFCURVE",
"314 452 CURVE SMOOTH",
"350 452 OFFCURVE",
"378 438 OFFCURVE",
"378 426 CURVE SMOOTH",
"378 404 OFFCURVE",
"317 416 OFFCURVE",
"317 360 CURVE SMOOTH",
"317 328 OFFCURVE",
"344 310 OFFCURVE",
"366 310 CURVE SMOOTH",
"396 310 OFFCURVE",
"426 334 OFFCURVE",
"426 382 CURVE SMOOTH"
);
}
);
width = 444;
}
);
leftKerningGroup = c;
note = c;
unicode = 0063;
},
{
glyphname = d;
lastChange = "2017-06-09 11:44:12 +0000";
layers = (
{
layerId = "FDC62533-83BB-4EB8-8B15-51662AB4ACD2";
paths = (
{
closed = 1;
nodes = (
"311 456 OFFCURVE",
"335 407 OFFCURVE",
"335 324 CURVE SMOOTH",
"335 183 OFFCURVE",
"246 18 OFFCURVE",
"172 18 CURVE SMOOTH",
"128 18 OFFCURVE",
"105 47 OFFCURVE",
"105 110 CURVE SMOOTH",
"105 247 OFFCURVE",
"184 456 OFFCURVE",
"272 456 CURVE SMOOTH"
);
},
{
closed = 1;
nodes = (
"413 645 OFFCURVE",
"423 628 OFFCURVE",
"423 606 CURVE SMOOTH",
"423 587 OFFCURVE",
"412 552 OFFCURVE",
"394 486 CURVE SMOOTH",
"361 367 LINE",
"359 367 LINE",
"352 442 OFFCURVE",
"327 482 OFFCURVE",
"267 482 CURVE SMOOTH",
"178 482 OFFCURVE",
"19 371 OFFCURVE",
"19 173 CURVE SMOOTH",
"19 72 OFFCURVE",
"73 -12 OFFCURVE",
"154 -12 CURVE SMOOTH",
"235 -12 OFFCURVE",
"273 42 OFFCURVE",
"306 104 CURVE",
"308 104 LINE",
"309 29 OFFCURVE",
"326 -12 OFFCURVE",
"378 -12 CURVE SMOOTH",
"474 -12 OFFCURVE",
"510 105 OFFCURVE",
"544 174 CURVE",
"520 184 LINE",
"505 149 OFFCURVE",
"446 24 OFFCURVE",
"398 24 CURVE SMOOTH",
"379 24 OFFCURVE",
"370 34 OFFCURVE",
"370 58 CURVE SMOOTH",
"370 83 OFFCURVE",
"411 217 OFFCURVE",
"420 252 CURVE SMOOTH",
"532 676 LINE",
"359 672 LINE",
"353 646 LINE"
);
}
);
width = 556;
}
);
note = d;
unicode = 0064;
},
{
glyphname = e;
lastChange = "2017-06-09 11:44:12 +0000";
layers = (
{
layerId = "FDC62533-83BB-4EB8-8B15-51662AB4ACD2";
paths = (
{
closed = 1;
nodes = (
"24 58 OFFCURVE",
"102 -12 OFFCURVE",
"185 -12 CURVE SMOOTH",
"291 -12 OFFCURVE",
"340 63 OFFCURVE",
"409 146 CURVE",
"388 167 LINE",
"341 105 OFFCURVE",
"275 18 OFFCURVE",
"194 18 CURVE SMOOTH",
"138 18 OFFCURVE",
"106 53 OFFCURVE",
"106 117 CURVE SMOOTH",
"106 142 OFFCURVE",
"110 166 OFFCURVE",
"115 190 CURVE",
"364 228 OFFCURVE",
"430 315 OFFCURVE",
"430 388 CURVE SMOOTH",
"430 445 OFFCURVE",
"393 482 OFFCURVE",
"310 482 CURVE SMOOTH",
"198 482 OFFCURVE",
"24 363 OFFCURVE",
"24 176 CURVE SMOOTH"
);
},
{
closed = 1;
nodes = (
"362 290 OFFCURVE",
"241 233 OFFCURVE",
"121 217 CURVE",
"151 368 OFFCURVE",
"244 452 OFFCURVE",
"305 452 CURVE SMOOTH",
"342 452 OFFCURVE",
"362 426 OFFCURVE",
"362 394 CURVE SMOOTH"
);
}
);
width = 444;
}
);
leftKerningGroup = e;
note = e;
unicode = 0065;
},
{
glyphname = f;
lastChange = "2017-06-09 11:44:12 +0000";
layers = (
{
layerId = "FDC62533-83BB-4EB8-8B15-51662AB4ACD2";
paths = (
{
closed = 1;
nodes = (
"140 440 LINE",
"107 330 OFFCURVE",
"96 161 OFFCURVE",
"71 16 CURVE SMOOTH",
"50 -107 OFFCURVE",
"-6 -160 OFFCURVE",
"-68 -160 CURVE SMOOTH",
"-94 -160 OFFCURVE",
"-98 -157 OFFCURVE",
"-98 -151 CURVE SMOOTH",
"-98 -140 OFFCURVE",
"-73 -141 OFFCURVE",
"-73 -100 CURVE SMOOTH",
"-73 -79 OFFCURVE",
"-89 -59 OFFCURVE",
"-121 -59 CURVE SMOOTH",
"-154 -59 OFFCURVE",
"-175 -87 OFFCURVE",
"-175 -112 CURVE SMOOTH",
"-175 -159 OFFCURVE",
"-129 -190 OFFCURVE",
"-83 -190 CURVE SMOOTH",
"17 -190 OFFCURVE",
"130 -106 OFFCURVE",
"180 132 CURVE SMOOTH",
"201 233 OFFCURVE",
"219 354 OFFCURVE",
"233 440 CURVE",
"337 440 LINE",
"345 470 LINE",
"238 470 LINE",
"260 598 OFFCURVE",
"326 658 OFFCURVE",
"375 658 CURVE SMOOTH",
"385 658 OFFCURVE",
"392 655 OFFCURVE",
"392 651 CURVE SMOOTH",
"392 643 OFFCURVE",
"378 641 OFFCURVE",
"378 616 CURVE SMOOTH",
"378 594 OFFCURVE",
"398 578 OFFCURVE",
"419 578 CURVE SMOOTH",
"447 578 OFFCURVE",
"470 597 OFFCURVE",
"470 627 CURVE SMOOTH",
"470 658 OFFCURVE",
"443 688 OFFCURVE",
"394 688 CURVE SMOOTH",
"325 688 OFFCURVE",
"203 617 OFFCURVE",
"149 470 CURVE",
"65 470 LINE",
"56 440 LINE"
);
}
);
width = 333;
}
);
note = f;
rightKerningGroup = f;
unicode = 0066;
},
{
glyphname = g;
lastChange = "2017-06-09 11:44:12 +0000";
layers = (
{
layerId = "FDC62533-83BB-4EB8-8B15-51662AB4ACD2";
paths = (
{
closed = 1;
nodes = (
"116 232 OFFCURVE",
"188 452 OFFCURVE",
"276 452 CURVE SMOOTH",
"320 452 OFFCURVE",
"344 415 OFFCURVE",
"344 320 CURVE SMOOTH",
"344 175 OFFCURVE",
"248 18 OFFCURVE",
"179 18 CURVE SMOOTH",
"139 18 OFFCURVE",
"116 47 OFFCURVE",
"116 110 CURVE SMOOTH"
);
},
{
closed = 1;
nodes = (
"374 356 LINE",
"372 356 LINE",
"364 418 OFFCURVE",
"352 482 OFFCURVE",
"278 482 CURVE SMOOTH",
"182 482 OFFCURVE",
"30 362 OFFCURVE",
"30 173 CURVE SMOOTH",
"30 72 OFFCURVE",
"80 -12 OFFCURVE",
"170 -12 CURVE SMOOTH",
"228 -12 OFFCURVE",
"267 26 OFFCURVE",
"297 78 CURVE",
"299 76 LINE",
"259 -108 OFFCURVE",
"192 -160 OFFCURVE",
"90 -160 CURVE SMOOTH",
"61 -160 OFFCURVE",
"49 -154 OFFCURVE",
"49 -148 CURVE SMOOTH",
"49 -136 OFFCURVE",
"68 -125 OFFCURVE",
"68 -100 CURVE SMOOTH",
"68 -71 OFFCURVE",
"52 -54 OFFCURVE",
"23 -54 CURVE SMOOTH",
"-6 -54 OFFCURVE",
"-30 -69 OFFCURVE",
"-30 -103 CURVE SMOOTH",
"-30 -170 OFFCURVE",
"41 -190 OFFCURVE",
"107 -190 CURVE SMOOTH",
"191 -190 OFFCURVE",
"291 -150 OFFCURVE",
"337 -62 CURVE SMOOTH",
"353 -31 OFFCURVE",
"365 2 OFFCURVE",
"374 38 CURVE SMOOTH",
"486 470 LINE",
"403 470 LINE"
);
}
);
width = 500;
}
);
note = g;
unicode = 0067;
},
{
glyphname = h;
lastChange = "2017-06-09 11:44:12 +0000";
layers = (
{
layerId = "FDC62533-83BB-4EB8-8B15-51662AB4ACD2";
paths = (
{
closed = 1;
nodes = (
"125 184 OFFCURVE",
"248 452 OFFCURVE",
"345 452 CURVE SMOOTH",
"374 452 OFFCURVE",
"380 426 OFFCURVE",
"380 402 CURVE SMOOTH",
"380 334 OFFCURVE",
"276 195 OFFCURVE",
"276 106 CURVE SMOOTH",
"276 34 OFFCURVE",
"312 -12 OFFCURVE",
"376 -12 CURVE SMOOTH",
"444 -12 OFFCURVE",
"496 60 OFFCURVE",
"550 174 CURVE",
"525 185 LINE",
"465 64 OFFCURVE",
"427 24 OFFCURVE",
"394 24 CURVE SMOOTH",
"375 24 OFFCURVE",
"354 37 OFFCURVE",
"354 66 CURVE SMOOTH",
"354 96 OFFCURVE",
"380 143 OFFCURVE",
"406 196 CURVE SMOOTH",
"432 249 OFFCURVE",
"458 307 OFFCURVE",
"458 358 CURVE SMOOTH",
"458 432 OFFCURVE",
"418 482 OFFCURVE",
"352 482 CURVE SMOOTH",
"265 482 OFFCURVE",
"206 366 OFFCURVE",
"167 301 CURVE",
"165 301 LINE",
"261 676 LINE",
"78 672 LINE",
"71 646 LINE",
"143 644 OFFCURVE",
"157 638 OFFCURVE",
"157 614 CURVE SMOOTH",
"157 593 OFFCURVE",
"144 551 OFFCURVE",
"139 531 CURVE SMOOTH",
"1 0 LINE",
"90 0 LINE"
);
}
);
width = 556;
}
);
note = h;
unicode = 0068;
},
{
glyphname = i;
lastChange = "2017-06-09 11:44:12 +0000";
layers = (
{
layerId = "FDC62533-83BB-4EB8-8B15-51662AB4ACD2";
paths = (
{
closed = 1;
nodes = (
"284 68 OFFCURVE",
"240 18 OFFCURVE",
"206 18 CURVE SMOOTH",
"180 18 OFFCURVE",
"171 33 OFFCURVE",
"171 57 CURVE SMOOTH",
"171 120 OFFCURVE",
"266 263 OFFCURVE",
"266 366 CURVE SMOOTH",
"266 421 OFFCURVE",
"232 482 OFFCURVE",
"174 482 CURVE SMOOTH",
"99 482 OFFCURVE",
"52 400 OFFCURVE",
"14 309 CURVE",
"38 301 LINE",
"78 388 OFFCURVE",
"114 452 OFFCURVE",
"159 452 CURVE SMOOTH",
"183 452 OFFCURVE",
"194 437 OFFCURVE",
"194 404 CURVE SMOOTH",
"194 354 OFFCURVE",
"170 308 OFFCURVE",
"145 259 CURVE SMOOTH",
"120 210 OFFCURVE",
"93 158 OFFCURVE",
"93 94 CURVE SMOOTH",
"93 40 OFFCURVE",
"130 -12 OFFCURVE",
"188 -12 CURVE SMOOTH",
"258 -12 OFFCURVE",
"316 70 OFFCURVE",
"362 168 CURVE",
"338 178 LINE"
);
},
{
closed = 1;
nodes = (
"208 595 OFFCURVE",
"233 570 OFFCURVE",
"266 570 CURVE SMOOTH",
"297 570 OFFCURVE",
"324 596 OFFCURVE",
"324 629 CURVE SMOOTH",
"324 661 OFFCURVE",
"297 688 OFFCURVE",
"266 688 CURVE SMOOTH",
"234 688 OFFCURVE",
"208 662 OFFCURVE",
"208 629 CURVE SMOOTH"
);
}
);
width = 389;
}
);
leftKerningGroup = i;
note = i;
unicode = 0069;
},
{
glyphname = j;
lastChange = "2017-06-09 11:44:12 +0000";
layers = (
{
layerId = "FDC62533-83BB-4EB8-8B15-51662AB4ACD2";
paths = (
{
closed = 1;
nodes = (
"274 314 OFFCURVE",
"288 371 OFFCURVE",
"288 396 CURVE SMOOTH",
"288 451 OFFCURVE",
"254 482 OFFCURVE",
"193 482 CURVE SMOOTH",
"104 482 OFFCURVE",
"45 381 OFFCURVE",
"11 312 CURVE",
"36 300 LINE",
"56 338 OFFCURVE",
"117 452 OFFCURVE",
"171 452 CURVE SMOOTH",
"192 452 OFFCURVE",
"202 442 OFFCURVE",
"202 424 CURVE SMOOTH",
"202 396 OFFCURVE",
"195 362 OFFCURVE",
"183 321 CURVE SMOOTH",
"81 -38 LINE SMOOTH",
"63 -102 OFFCURVE",
"27 -160 OFFCURVE",
"-47 -160 CURVE SMOOTH",
"-74 -160 OFFCURVE",
"-83 -153 OFFCURVE",
"-83 -148 CURVE SMOOTH",
"-83 -141 OFFCURVE",
"-48 -127 OFFCURVE",
"-48 -97 CURVE SMOOTH",
"-48 -73 OFFCURVE",
"-66 -58 OFFCURVE",
"-94 -58 CURVE SMOOTH",
"-125 -58 OFFCURVE",
"-146 -82 OFFCURVE",
"-146 -115 CURVE SMOOTH",
"-146 -145 OFFCURVE",
"-112 -190 OFFCURVE",
"-26 -190 CURVE SMOOTH",
"80 -190 OFFCURVE",
"150 -116 OFFCURVE",
"178 -19 CURVE SMOOTH",
"264 280 LINE SMOOTH"
);
},
{
closed = 1;
nodes = (
"230 595 OFFCURVE",
"255 570 OFFCURVE",
"288 570 CURVE SMOOTH",
"319 570 OFFCURVE",
"346 596 OFFCURVE",
"346 629 CURVE SMOOTH",
"346 661 OFFCURVE",
"319 688 OFFCURVE",
"288 688 CURVE SMOOTH",
"256 688 OFFCURVE",
"230 662 OFFCURVE",
"230 629 CURVE SMOOTH"
);
}
);
width = 333;
}
);
note = j;
unicode = 006A;
},
{
glyphname = k;
lastChange = "2017-06-09 11:44:12 +0000";
layers = (
{
layerId = "FDC62533-83BB-4EB8-8B15-51662AB4ACD2";
paths = (
{
closed = 1;
nodes = (
"147 244 LINE",
"226 238 OFFCURVE",
"239 228 OFFCURVE",
"239 182 CURVE SMOOTH",
"239 132 OFFCURVE",
"231 97 OFFCURVE",
"231 62 CURVE SMOOTH",
"231 15 OFFCURVE",
"257 -12 OFFCURVE",
"306 -12 CURVE SMOOTH",
"370 -12 OFFCURVE",
"426 26 OFFCURVE",
"483 170 CURVE",
"461 184 LINE",
"408 67 OFFCURVE",
"373 30 OFFCURVE",
"344 30 CURVE SMOOTH",
"302 30 OFFCURVE",
"350 174 OFFCURVE",
"302 222 CURVE SMOOTH",
"288 236 OFFCURVE",
"255 249 OFFCURVE",
"226 253 CURVE",
"226 257 LINE",
"255 263 OFFCURVE",
"281 274 OFFCURVE",
"307 327 CURVE SMOOTH",
"320 353 OFFCURVE",
"357 446 OFFCURVE",
"384 446 CURVE SMOOTH",
"387 446 OFFCURVE",
"388 445 OFFCURVE",
"388 441 CURVE SMOOTH",
"388 436 OFFCURVE",
"382 425 OFFCURVE",
"382 416 CURVE SMOOTH",
"382 389 OFFCURVE",
"399 372 OFFCURVE",
"423 372 CURVE SMOOTH",
"454 372 OFFCURVE",
"474 392 OFFCURVE",
"474 424 CURVE SMOOTH",
"474 464 OFFCURVE",
"444 482 OFFCURVE",
"410 482 CURVE SMOOTH",
"361 482 OFFCURVE",
"333 461 OFFCURVE",
"291 361 CURVE SMOOTH",
"260 288 OFFCURVE",
"228 274 OFFCURVE",
"156 274 CURVE",
"261 676 LINE",
"90 672 LINE",
"84 646 LINE",
"144 645 OFFCURVE",
"152 635 OFFCURVE",
"152 614 CURVE SMOOTH",
"152 596 OFFCURVE",
"147 578 OFFCURVE",
"142 560 CURVE SMOOTH",
"-3 0 LINE",
"84 0 LINE"
);
}
);
width = 500;
}
);
note = k;
unicode = 006B;
},
{
glyphname = l;
lastChange = "2017-06-09 11:44:12 +0000";
layers = (
{
layerId = "FDC62533-83BB-4EB8-8B15-51662AB4ACD2";
paths = (
{
closed = 1;
nodes = (
"14 28 OFFCURVE",
"52 -12 OFFCURVE",
"105 -12 CURVE SMOOTH",
"196 -12 OFFCURVE",
"236 107 OFFCURVE",
"269 163 CURVE",
"246 175 LINE",
"228 141 OFFCURVE",
"172 18 OFFCURVE",
"122 18 CURVE SMOOTH",
"104 18 OFFCURVE",
"92 30 OFFCURVE",
"92 50 CURVE SMOOTH",
"92 77 OFFCURVE",
"105 125 OFFCURVE",
"110 142 CURVE SMOOTH",
"253 676 LINE",
"80 672 LINE",
"74 646 LINE",
"128 645 OFFCURVE",
"144 638 OFFCURVE",
"144 614 CURVE SMOOTH",
"144 596 OFFCURVE",
"135 570 OFFCURVE",
"130 552 CURVE SMOOTH",
"29 176 LINE SMOOTH",
"20 142 OFFCURVE",
"14 118 OFFCURVE",
"14 88 CURVE SMOOTH"
);
}
);
width = 278;
}
);
note = l;
unicode = 006C;
},
{
glyphname = m;
lastChange = "2017-06-09 11:44:12 +0000";
layers = (
{
layerId = "FDC62533-83BB-4EB8-8B15-51662AB4ACD2";
paths = (
{
closed = 1;
nodes = (
"192 119 LINE SMOOTH",
"225 237 OFFCURVE",
"326 452 OFFCURVE",
"394 452 CURVE SMOOTH",
"414 452 OFFCURVE",
"428 438 OFFCURVE",
"428 410 CURVE SMOOTH",
"428 382 OFFCURVE",
"418 338 OFFCURVE",
"410 307 CURVE SMOOTH",
"328 0 LINE",
"419 0 LINE",
"450 123 LINE SMOOTH",
"480 243 OFFCURVE",
"585 451 OFFCURVE",
"660 451 CURVE SMOOTH",
"686 451 OFFCURVE",
"700 430 OFFCURVE",
"700 396 CURVE SMOOTH",
"700 358 OFFCURVE",
"677 307 OFFCURVE",
"653 253 CURVE SMOOTH",
"629 199 OFFCURVE",
"606 143 OFFCURVE",
"607 94 CURVE SMOOTH",
"608 28 OFFCURVE",
"646 -12 OFFCURVE",
"701 -12 CURVE SMOOTH",
"762 -12 OFFCURVE",
"814 58 OFFCURVE",
"869 169 CURVE",
"841 177 LINE",
"780 58 OFFCURVE",
"746 24 OFFCURVE",
"716 24 CURVE SMOOTH",
"696 24 OFFCURVE",
"679 39 OFFCURVE",
"679 59 CURVE SMOOTH",
"679 90 OFFCURVE",
"702 139 OFFCURVE",
"724 192 CURVE SMOOTH",
"746 246 OFFCURVE",
"768 302 OFFCURVE",
"768 346 CURVE SMOOTH",
"768 421 OFFCURVE",
"728 482 OFFCURVE",
"668 482 CURVE SMOOTH",
"600 482 OFFCURVE",
"537 405 OFFCURVE",
"488 289 CURVE",
"486 291 LINE",
"488 308 OFFCURVE",
"490 327 OFFCURVE",
"490 352 CURVE SMOOTH",
"490 456 OFFCURVE",
"440 482 OFFCURVE",
"402 482 CURVE SMOOTH",
"346 482 OFFCURVE",
"280 406 OFFCURVE",
"232 292 CURVE",
"230 292 LINE",
"230 294 LINE SMOOTH",
"230 319 OFFCURVE",
"234 345 OFFCURVE",
"234 371 CURVE SMOOTH",
"234 434 OFFCURVE",
"206 482 OFFCURVE",
"152 482 CURVE SMOOTH",
"82 482 OFFCURVE",
"32 412 OFFCURVE",
"-4 306 CURVE",
"23 297 LINE",
"65 410 OFFCURVE",
"107 452 OFFCURVE",
"144 452 CURVE SMOOTH",
"164 452 OFFCURVE",
"172 436 OFFCURVE",
"172 413 CURVE SMOOTH",
"172 392 OFFCURVE",
"166 349 OFFCURVE",
"149 289 CURVE SMOOTH",
"69 0 LINE",
"159 0 LINE"
);
}
);
width = 889;
}
);
note = m;
unicode = 006D;
},
{
glyphname = n;
lastChange = "2017-06-09 11:44:12 +0000";
layers = (
{
layerId = "FDC62533-83BB-4EB8-8B15-51662AB4ACD2";
paths = (
{
closed = 1;
nodes = (
"179 104 LINE SMOOTH",
"210 209 OFFCURVE",
"304 452 OFFCURVE",
"404 452 CURVE SMOOTH",
"429 452 OFFCURVE",
"444 437 OFFCURVE",
"444 406 CURVE SMOOTH",
"444 372 OFFCURVE",
"420 322 OFFCURVE",
"396 268 CURVE SMOOTH",
"371 214 OFFCURVE",
"347 155 OFFCURVE",
"347 101 CURVE SMOOTH",
"347 32 OFFCURVE",
"380 -12 OFFCURVE",
"432 -12 CURVE SMOOTH",
"496 -12 OFFCURVE",
"548 60 OFFCURVE",
"598 167 CURVE",
"575 177 LINE",
"518 60 OFFCURVE",
"480 24 OFFCURVE",
"452 24 CURVE SMOOTH",
"433 24 OFFCURVE",
"419 33 OFFCURVE",
"419 64 CURVE SMOOTH",
"419 89 OFFCURVE",
"442 142 OFFCURVE",
"466 199 CURVE SMOOTH",
"489 256 OFFCURVE",
"512 318 OFFCURVE",
"512 360 CURVE SMOOTH",
"512 424 OFFCURVE",
"486 482 OFFCURVE",
"408 482 CURVE SMOOTH",
"333 482 OFFCURVE",
"268 388 OFFCURVE",
"219 284 CURVE",
"217 286 LINE",
"222 308 OFFCURVE",
"227 343 OFFCURVE",
"227 384 CURVE SMOOTH",
"227 438 OFFCURVE",
"198 482 OFFCURVE",
"146 482 CURVE SMOOTH",
"73 482 OFFCURVE",
"24 384 OFFCURVE",
"-6 310 CURVE",
"20 301 LINE",
"52 388 OFFCURVE",
"100 452 OFFCURVE",
"135 452 CURVE SMOOTH",
"155 452 OFFCURVE",
"165 437 OFFCURVE",
"165 411 CURVE SMOOTH",
"165 379 OFFCURVE",
"133 272 OFFCURVE",
"99 140 CURVE SMOOTH",
"63 0 LINE",
"148 0 LINE"
);
}
);
width = 611;
}
);
note = n;
unicode = 006E;
},
{
glyphname = o;
lastChange = "2017-06-09 11:44:12 +0000";
layers = (
{
layerId = "FDC62533-83BB-4EB8-8B15-51662AB4ACD2";
paths = (
{
closed = 1;
nodes = (
"154 482 OFFCURVE",
"24 352 OFFCURVE",
"24 198 CURVE SMOOTH",
"24 84 OFFCURVE",
"82 -12 OFFCURVE",
"188 -12 CURVE SMOOTH",
"324 -12 OFFCURVE",
"448 138 OFFCURVE",
"448 272 CURVE SMOOTH",
"448 386 OFFCURVE",
"390 482 OFFCURVE",
"284 482 CURVE SMOOTH"
);
},
{
closed = 1;
nodes = (
"341 452 OFFCURVE",
"370 416 OFFCURVE",
"370 352 CURVE SMOOTH",
"370 258 OFFCURVE",
"318 18 OFFCURVE",
"188 18 CURVE SMOOTH",
"135 18 OFFCURVE",
"102 58 OFFCURVE",
"102 126 CURVE SMOOTH",
"102 212 OFFCURVE",
"158 452 OFFCURVE",
"284 452 CURVE SMOOTH"
);
}
);
width = 500;
}
);
leftKerningGroup = o;
note = o;
unicode = 006F;
},
{
glyphname = p;
lastChange = "2017-06-09 11:44:12 +0000";
layers = (
{
layerId = "FDC62533-83BB-4EB8-8B15-51662AB4ACD2";
paths = (
{
closed = 1;
nodes = (
"162 382 OFFCURVE",
"150 341 OFFCURVE",
"139 299 CURVE SMOOTH",
"43 -70 LINE SMOOTH",
"27 -132 OFFCURVE",
"12 -146 OFFCURVE",
"-73 -148 CURVE",
"-78 -178 LINE",
"200 -178 LINE",
"206 -148 LINE",
"144 -146 OFFCURVE",
"122 -142 OFFCURVE",
"122 -118 CURVE SMOOTH",
"122 -98 OFFCURVE",
"131 -69 OFFCURVE",
"137 -41 CURVE SMOOTH",
"166 88 LINE",
"168 88 LINE",
"168 28 OFFCURVE",
"212 -12 OFFCURVE",
"260 -12 CURVE SMOOTH",
"378 -12 OFFCURVE",
"515 138 OFFCURVE",
"515 284 CURVE SMOOTH",
"515 404 OFFCURVE",
"450 482 OFFCURVE",
"373 482 CURVE SMOOTH",
"296 482 OFFCURVE",
"247 404 OFFCURVE",
"224 340 CURVE",
"222 342 LINE",
"225 358 OFFCURVE",
"224 377 OFFCURVE",
"224 388 CURVE SMOOTH",
"224 438 OFFCURVE",
"192 482 OFFCURVE",
"150 482 CURVE SMOOTH",
"73 482 OFFCURVE",
"33 389 OFFCURVE",
"-5 304 CURVE",
"20 296 LINE",
"56 379 OFFCURVE",
"92 446 OFFCURVE",
"135 446 CURVE SMOOTH",
"152 446 OFFCURVE",
"162 436 OFFCURVE",
"162 413 CURVE SMOOTH"
);
},
{
closed = 1;
nodes = (
"409 452 OFFCURVE",
"429 423 OFFCURVE",
"429 351 CURVE SMOOTH",
"429 267 OFFCURVE",
"378 18 OFFCURVE",
"260 18 CURVE SMOOTH",
"219 18 OFFCURVE",
"192 45 OFFCURVE",
"192 124 CURVE SMOOTH",
"192 250 OFFCURVE",
"287 452 OFFCURVE",
"363 452 CURVE SMOOTH"
);
}
);
width = 556;
}
);
leftKerningGroup = p;
note = p;
unicode = 0070;
},
{
glyphname = q;
lastChange = "2017-06-09 11:44:12 +0000";
layers = (
{
layerId = "FDC62533-83BB-4EB8-8B15-51662AB4ACD2";
paths = (
{
closed = 1;
nodes = (
"405 -148 LINE",
"343 -148 OFFCURVE",
"330 -140 OFFCURVE",
"330 -114 CURVE SMOOTH",
"330 -94 OFFCURVE",
"341 -64 OFFCURVE",
"346 -42 CURVE SMOOTH",
"472 470 LINE",
"442 470 LINE",
"391 396 LINE",
"370 449 OFFCURVE",
"337 482 OFFCURVE",
"277 482 CURVE SMOOTH",
"179 482 OFFCURVE",
"22 344 OFFCURVE",
"22 169 CURVE SMOOTH",
"22 72 OFFCURVE",
"80 -12 OFFCURVE",
"154 -12 CURVE SMOOTH",
"215 -12 OFFCURVE",
"250 29 OFFCURVE",
"292 91 CURVE",
"294 89 LINE",
"248 -81 LINE SMOOTH",
"237 -122 OFFCURVE",
"226 -146 OFFCURVE",
"132 -148 CURVE",
"127 -178 LINE",
"399 -178 LINE"
);
},
{
closed = 1;
nodes = (
"108 181 OFFCURVE",
"168 452 OFFCURVE",
"280 452 CURVE SMOOTH",
"325 452 OFFCURVE",
"349 421 OFFCURVE",
"349 362 CURVE SMOOTH",
"349 231 OFFCURVE",
"248 18 OFFCURVE",
"168 18 CURVE SMOOTH",
"130 18 OFFCURVE",
"108 46 OFFCURVE",
"108 96 CURVE SMOOTH"
);
}
);
width = 500;
}
);
leftKerningGroup = q;
note = q;
unicode = 0071;
},
{
glyphname = r;
lastChange = "2017-06-09 11:44:12 +0000";
layers = (
{
layerId = "FDC62533-83BB-4EB8-8B15-51662AB4ACD2";
paths = (
{
closed = 1;
nodes = (
"181 104 LINE SMOOTH",
"212 209 OFFCURVE",
"306 452 OFFCURVE",
"397 452 CURVE SMOOTH",
"403 452 OFFCURVE",
"409 449 OFFCURVE",
"409 443 CURVE SMOOTH",
"409 436 OFFCURVE",
"371 427 OFFCURVE",
"371 393 CURVE SMOOTH",
"371 367 OFFCURVE",
"392 351 OFFCURVE",
"420 351 CURVE SMOOTH",
"455 351 OFFCURVE",
"477 380 OFFCURVE",
"477 414 CURVE SMOOTH",
"477 456 OFFCURVE",
"448 482 OFFCURVE",
"407 482 CURVE SMOOTH",
"337 482 OFFCURVE",
"272 388 OFFCURVE",
"223 284 CURVE",
"221 286 LINE",
"226 308 OFFCURVE",
"231 343 OFFCURVE",
"231 384 CURVE SMOOTH",
"231 438 OFFCURVE",
"202 482 OFFCURVE",
"150 482 CURVE SMOOTH",
"77 482 OFFCURVE",
"28 384 OFFCURVE",
"-2 310 CURVE",
"24 301 LINE",
"56 388 OFFCURVE",
"104 452 OFFCURVE",
"139 452 CURVE SMOOTH",
"159 452 OFFCURVE",
"169 437 OFFCURVE",
"169 411 CURVE SMOOTH",
"169 379 OFFCURVE",
"137 272 OFFCURVE",
"103 140 CURVE SMOOTH",
"67 0 LINE",
"150 0 LINE"
);
}
);
width = 444;
}
);
leftKerningGroup = r;
note = r;
rightKerningGroup = r;
unicode = 0072;
},
{
glyphname = s;
lastChange = "2017-06-09 11:44:12 +0000";
layers = (
{
layerId = "FDC62533-83BB-4EB8-8B15-51662AB4ACD2";
paths = (
{
closed = 1;
nodes = (
"374 284 OFFCURVE",
"156 274 OFFCURVE",
"156 372 CURVE SMOOTH",
"156 418 OFFCURVE",
"206 452 OFFCURVE",
"267 452 CURVE SMOOTH",
"296 452 OFFCURVE",
"338 443 OFFCURVE",
"338 433 CURVE SMOOTH",
"338 418 OFFCURVE",
"308 414 OFFCURVE",
"308 384 CURVE SMOOTH",
"308 358 OFFCURVE",
"330 339 OFFCURVE",
"356 339 CURVE SMOOTH",
"382 339 OFFCURVE",
"410 359 OFFCURVE",
"410 392 CURVE SMOOTH",
"410 434 OFFCURVE",
"366 482 OFFCURVE",
"264 482 CURVE SMOOTH",
"166 482 OFFCURVE",
"78 432 OFFCURVE",
"78 342 CURVE SMOOTH",
"78 203 OFFCURVE",
"296 204 OFFCURVE",
"296 111 CURVE SMOOTH",
"296 65 OFFCURVE",
"249 18 OFFCURVE",
"151 18 CURVE SMOOTH",
"107 18 OFFCURVE",
"66 42 OFFCURVE",
"66 53 CURVE SMOOTH",
"66 69 OFFCURVE",
"111 63 OFFCURVE",
"111 116 CURVE SMOOTH",
"111 146 OFFCURVE",
"91 166 OFFCURVE",
"58 166 CURVE SMOOTH",
"21 166 OFFCURVE",
"1 139 OFFCURVE",
"1 106 CURVE SMOOTH",
"1 48 OFFCURVE",
"61 -12 OFFCURVE",
"162 -12 CURVE SMOOTH",
"275 -12 OFFCURVE",
"374 56 OFFCURVE",
"374 150 CURVE SMOOTH"
);
}
);
width = 444;
}
);
leftKerningGroup = s;
note = s;
unicode = 0073;
},
{
glyphname = t;
lastChange = "2017-06-09 11:44:12 +0000";
layers = (
{
layerId = "FDC62533-83BB-4EB8-8B15-51662AB4ACD2";
paths = (
{
closed = 1;
nodes = (
"192 612 LINE",
"151 470 LINE",
"66 470 LINE",
"58 440 LINE",
"143 440 LINE",
"72 180 LINE SMOOTH",
"64 152 OFFCURVE",
"55 114 OFFCURVE",
"55 84 CURVE SMOOTH",
"55 27 OFFCURVE",
"86 -12 OFFCURVE",
"144 -12 CURVE SMOOTH",
"214 -12 OFFCURVE",
"272 70 OFFCURVE",
"318 168 CURVE",
"294 178 LINE",
"240 68 OFFCURVE",
"196 18 OFFCURVE",
"162 18 CURVE SMOOTH",
"136 18 OFFCURVE",
"127 33 OFFCURVE",
"127 57 CURVE SMOOTH",
"127 86 OFFCURVE",
"143 130 OFFCURVE",
"168 223 CURVE SMOOTH",
"227 440 LINE",
"318 440 LINE",
"326 470 LINE",
"235 470 LINE",
"276 612 LINE"
);
}
);
width = 333;
}
);
leftKerningGroup = t;
note = t;
unicode = 0074;
},
{
glyphname = u;
lastChange = "2017-06-09 11:44:12 +0000";
layers = (
{
layerId = "FDC62533-83BB-4EB8-8B15-51662AB4ACD2";
paths = (
{
closed = 1;
nodes = (
"80 32 OFFCURVE",
"120 -12 OFFCURVE",
"188 -12 CURVE SMOOTH",
"276 -12 OFFCURVE",
"335 103 OFFCURVE",
"360 153 CURVE",
"362 151 LINE",
"358 130 OFFCURVE",
"353 104 OFFCURVE",
"353 66 CURVE SMOOTH",
"353 25 OFFCURVE",
"384 -12 OFFCURVE",
"428 -12 CURVE SMOOTH",
"506 -12 OFFCURVE",
"542 78 OFFCURVE",
"588 168 CURVE",
"565 181 LINE",
"516 78 OFFCURVE",
"490 24 OFFCURVE",
"444 24 CURVE SMOOTH",
"422 24 OFFCURVE",
"415 38 OFFCURVE",
"415 58 CURVE SMOOTH",
"415 80 OFFCURVE",
"431 135 OFFCURVE",
"448 195 CURVE SMOOTH",
"528 470 LINE",
"440 470 LINE",
"382 268 LINE SMOOTH",
"354 171 OFFCURVE",
"266 24 OFFCURVE",
"207 24 CURVE SMOOTH",
"178 24 OFFCURVE",
"162 40 OFFCURVE",
"162 66 CURVE SMOOTH",
"162 120 OFFCURVE",
"252 276 OFFCURVE",
"250 368 CURVE SMOOTH",
"249 428 OFFCURVE",
"222 482 OFFCURVE",
"152 482 CURVE SMOOTH",
"84 482 OFFCURVE",
"42 417 OFFCURVE",
"3 313 CURVE",
"28 301 LINE",
"70 404 OFFCURVE",
"104 452 OFFCURVE",
"147 452 CURVE SMOOTH",
"171 452 OFFCURVE",
"182 437 OFFCURVE",
"182 406 CURVE SMOOTH",
"182 378 OFFCURVE",
"157 324 OFFCURVE",
"131 266 CURVE SMOOTH",
"106 208 OFFCURVE",
"80 146 OFFCURVE",
"80 101 CURVE SMOOTH"
);
}
);
width = 611;
}
);
leftKerningGroup = u;
note = u;
unicode = 0075;
},
{
glyphname = v;
lastChange = "2017-06-09 11:44:12 +0000";
layers = (
{
layerId = "FDC62533-83BB-4EB8-8B15-51662AB4ACD2";
paths = (
{
closed = 1;
nodes = (
"60 388 OFFCURVE",
"98 452 OFFCURVE",
"143 452 CURVE SMOOTH",
"167 452 OFFCURVE",
"178 439 OFFCURVE",
"178 412 CURVE SMOOTH",
"178 376 OFFCURVE",
"157 333 OFFCURVE",
"135 284 CURVE SMOOTH",
"114 235 OFFCURVE",
"92 181 OFFCURVE",
"92 120 CURVE SMOOTH",
"92 37 OFFCURVE",
"134 -12 OFFCURVE",
"222 -12 CURVE SMOOTH",
"380 -12 OFFCURVE",
"475 240 OFFCURVE",
"475 376 CURVE SMOOTH",
"475 438 OFFCURVE",
"445 482 OFFCURVE",
"405 482 CURVE SMOOTH",
"378 482 OFFCURVE",
"361 461 OFFCURVE",
"361 438 CURVE SMOOTH",
"361 381 OFFCURVE",
"427 387 OFFCURVE",
"427 298 CURVE SMOOTH",
"427 200 OFFCURVE",
"326 18 OFFCURVE",
"228 18 CURVE SMOOTH",
"194 18 OFFCURVE",
"170 36 OFFCURVE",
"170 80 CURVE SMOOTH",
"170 120 OFFCURVE",
"189 161 OFFCURVE",
"209 216 CURVE SMOOTH",
"230 272 OFFCURVE",
"250 329 OFFCURVE",
"250 366 CURVE SMOOTH",
"250 444 OFFCURVE",
"216 482 OFFCURVE",
"158 482 CURVE SMOOTH",
"72 482 OFFCURVE",
"32 388 OFFCURVE",
"2 311 CURVE",
"27 304 LINE"
);
}
);
width = 500;
}
);
leftKerningGroup = v;
note = v;
rightKerningGroup = v;
unicode = 0076;
},
{
glyphname = w;
lastChange = "2017-06-09 11:44:12 +0000";
layers = (
{
layerId = "FDC62533-83BB-4EB8-8B15-51662AB4ACD2";
paths = (
{
closed = 1;
nodes = (
"61 391 OFFCURVE",
"107 452 OFFCURVE",
"148 452 CURVE SMOOTH",
"169 452 OFFCURVE",
"180 433 OFFCURVE",
"180 415 CURVE SMOOTH",
"180 375 OFFCURVE",
"159 330 OFFCURVE",
"138 280 CURVE SMOOTH",
"117 231 OFFCURVE",
"96 179 OFFCURVE",
"96 124 CURVE SMOOTH",
"96 48 OFFCURVE",
"136 -12 OFFCURVE",
"192 -12 CURVE SMOOTH",
"287 -12 OFFCURVE",
"334 96 OFFCURVE",
"372 164 CURVE",
"374 164 LINE",
"369 70 OFFCURVE",
"386 -12 OFFCURVE",
"488 -12 CURVE SMOOTH",
"656 -12 OFFCURVE",
"737 264 OFFCURVE",
"737 376 CURVE SMOOTH",
"737 448 OFFCURVE",
"711 482 OFFCURVE",
"671 482 CURVE SMOOTH",
"638 482 OFFCURVE",
"621 464 OFFCURVE",
"621 434 CURVE SMOOTH",
"621 387 OFFCURVE",
"695 380 OFFCURVE",
"695 332 CURVE SMOOTH",
"695 219 OFFCURVE",
"610 18 OFFCURVE",
"501 18 CURVE SMOOTH",
"454 18 OFFCURVE",
"446 50 OFFCURVE",
"446 92 CURVE SMOOTH",
"446 154 OFFCURVE",
"476 252 OFFCURVE",
"484 281 CURVE SMOOTH",
"534 470 LINE",
"442 470 LINE",
"406 330 LINE SMOOTH",
"374 205 OFFCURVE",
"283 18 OFFCURVE",
"218 18 CURVE SMOOTH",
"189 18 OFFCURVE",
"174 41 OFFCURVE",
"174 69 CURVE SMOOTH",
"174 110 OFFCURVE",
"194 155 OFFCURVE",
"213 204 CURVE SMOOTH",
"232 253 OFFCURVE",
"252 307 OFFCURVE",
"252 366 CURVE SMOOTH",
"252 424 OFFCURVE",
"220 482 OFFCURVE",
"151 482 CURVE SMOOTH",
"77 482 OFFCURVE",
"19 378 OFFCURVE",
"2 303 CURVE",
"30 295 LINE"
);
}
);
width = 778;
}
);
leftKerningGroup = w;
note = w;
rightKerningGroup = w;
unicode = 0077;
},
{
glyphname = x;
lastChange = "2017-06-09 11:44:12 +0000";
layers = (
{
layerId = "FDC62533-83BB-4EB8-8B15-51662AB4ACD2";
paths = (
{
closed = 1;
nodes = (
"93 398 OFFCURVE",
"138 452 OFFCURVE",
"192 452 CURVE SMOOTH",
"230 452 OFFCURVE",
"250 421 OFFCURVE",
"250 373 CURVE SMOOTH",
"250 294 OFFCURVE",
"185 14 OFFCURVE",
"68 14 CURVE SMOOTH",
"39 14 OFFCURVE",
"27 24 OFFCURVE",
"27 35 CURVE SMOOTH",
"27 45 OFFCURVE",
"72 47 OFFCURVE",
"72 88 CURVE SMOOTH",
"72 112 OFFCURVE",
"54 131 OFFCURVE",
"28 131 CURVE SMOOTH",
"-2 131 OFFCURVE",
"-26 108 OFFCURVE",
"-26 70 CURVE SMOOTH",
"-26 22 OFFCURVE",
"8 -12 OFFCURVE",
"63 -12 CURVE SMOOTH",
"127 -12 OFFCURVE",
"184 32 OFFCURVE",
"223 146 CURVE",
"225 144 LINE",
"225 134 OFFCURVE",
"224 126 OFFCURVE",
"224 117 CURVE SMOOTH",
"224 46 OFFCURVE",
"254 -12 OFFCURVE",
"324 -12 CURVE SMOOTH",
"375 -12 OFFCURVE",
"442 27 OFFCURVE",
"511 175 CURVE",
"486 185 LINE",
"434 77 OFFCURVE",
"384 18 OFFCURVE",
"333 18 CURVE SMOOTH",
"306 18 OFFCURVE",
"292 36 OFFCURVE",
"292 75 CURVE SMOOTH",
"292 187 OFFCURVE",
"373 456 OFFCURVE",
"471 456 CURVE SMOOTH",
"481 456 OFFCURVE",
"486 452 OFFCURVE",
"486 447 CURVE SMOOTH",
"486 442 OFFCURVE",
"464 433 OFFCURVE",
"464 402 CURVE SMOOTH",
"464 378 OFFCURVE",
"484 361 OFFCURVE",
"514 361 CURVE SMOOTH",
"542 361 OFFCURVE",
"562 384 OFFCURVE",
"562 416 CURVE SMOOTH",
"562 453 OFFCURVE",
"532 482 OFFCURVE",
"487 482 CURVE SMOOTH",
"407 482 OFFCURVE",
"356 415 OFFCURVE",
"314 311 CURVE",
"312 311 LINE",
"316 413 OFFCURVE",
"275 482 OFFCURVE",
"203 482 CURVE SMOOTH",
"109 482 OFFCURVE",
"57 380 OFFCURVE",
"34 302 CURVE",
"60 297 LINE"
);
}
);
width = 556;
}
);
note = x;
unicode = 0078;
},
{
glyphname = y;
lastChange = "2017-06-09 11:44:12 +0000";
layers = (
{
layerId = "FDC62533-83BB-4EB8-8B15-51662AB4ACD2";
paths = (
{
closed = 1;
nodes = (
"405 275 LINE SMOOTH",
"375 163 OFFCURVE",
"280 24 OFFCURVE",
"218 24 CURVE SMOOTH",
"190 24 OFFCURVE",
"168 36 OFFCURVE",
"168 67 CURVE SMOOTH",
"168 90 OFFCURVE",
"191 141 OFFCURVE",
"215 199 CURVE SMOOTH",
"238 257 OFFCURVE",
"262 320 OFFCURVE",
"262 366 CURVE SMOOTH",
"262 421 OFFCURVE",
"232 482 OFFCURVE",
"170 482 CURVE SMOOTH",
"89 482 OFFCURVE",
"53 402 OFFCURVE",
"11 310 CURVE",
"38 301 LINE",
"87 404 OFFCURVE",
"114 452 OFFCURVE",
"159 452 CURVE SMOOTH",
"183 452 OFFCURVE",
"194 437 OFFCURVE",
"194 406 CURVE SMOOTH",
"194 372 OFFCURVE",
"169 318 OFFCURVE",
"143 267 CURVE SMOOTH",
"118 217 OFFCURVE",
"90 162 OFFCURVE",
"90 101 CURVE SMOOTH",
"90 32 OFFCURVE",
"132 -12 OFFCURVE",
"189 -12 CURVE SMOOTH",
"262 -12 OFFCURVE",
"325 52 OFFCURVE",
"348 97 CURVE",
"350 95 LINE",
"306 -116 OFFCURVE",
"239 -160 OFFCURVE",
"130 -160 CURVE SMOOTH",
"99 -160 OFFCURVE",
"87 -155 OFFCURVE",
"87 -149 CURVE SMOOTH",
"87 -139 OFFCURVE",
"106 -123 OFFCURVE",
"106 -94 CURVE SMOOTH",
"106 -69 OFFCURVE",
"84 -50 OFFCURVE",
"58 -50 CURVE SMOOTH",
"29 -50 OFFCURVE",
"8 -73 OFFCURVE",
"8 -104 CURVE SMOOTH",
"8 -154 OFFCURVE",
"78 -190 OFFCURVE",
"148 -190 CURVE SMOOTH",
"316 -190 OFFCURVE",
"385 -97 OFFCURVE",
"419 23 CURVE SMOOTH",
"544 470 LINE",
"458 470 LINE"
);
}
);
width = 556;
}
);
leftKerningGroup = y;
note = y;
rightKerningGroup = y;
unicode = 0079;
},
{
glyphname = z;
lastChange = "2017-06-09 11:44:12 +0000";
layers = (
{
layerId = "FDC62533-83BB-4EB8-8B15-51662AB4ACD2";
paths = (
{
closed = 1;
nodes = (
"94 350 OFFCURVE",
"126 404 OFFCURVE",
"166 404 CURVE SMOOTH",
"186 404 OFFCURVE",
"206 391 OFFCURVE",
"231 378 CURVE SMOOTH",
"256 365 OFFCURVE",
"286 352 OFFCURVE",
"326 352 CURVE SMOOTH",
"374 352 OFFCURVE",
"394 359 OFFCURVE",
"417 372 CURVE",
"419 370 LINE",
"376 312 OFFCURVE",
"158 236 OFFCURVE",
"43 124 CURVE SMOOTH",
"10 92 OFFCURVE",
"-8 67 OFFCURVE",
"-8 40 CURVE SMOOTH",
"-8 11 OFFCURVE",
"7 -4 OFFCURVE",
"27 -4 CURVE SMOOTH",
"46 -4 OFFCURVE",
"60 10 OFFCURVE",
"60 30 CURVE SMOOTH",
"60 53 OFFCURVE",
"50 55 OFFCURVE",
"50 69 CURVE SMOOTH",
"50 81 OFFCURVE",
"63 88 OFFCURVE",
"85 88 CURVE SMOOTH",
"112 88 OFFCURVE",
"133 63 OFFCURVE",
"159 38 CURVE SMOOTH",
"186 13 OFFCURVE",
"219 -12 OFFCURVE",
"269 -12 CURVE SMOOTH",
"351 -12 OFFCURVE",
"421 72 OFFCURVE",
"448 182 CURVE",
"419 185 LINE",
"403 139 OFFCURVE",
"382 74 OFFCURVE",
"324 74 CURVE SMOOTH",
"297 74 OFFCURVE",
"271 87 OFFCURVE",
"243 99 CURVE SMOOTH",
"215 112 OFFCURVE",
"184 124 OFFCURVE",
"146 124 CURVE SMOOTH",
"118 124 OFFCURVE",
"75 114 OFFCURVE",
"47 99 CURVE",
"45 101 LINE",
"86 130 OFFCURVE",
"136 162 OFFCURVE",
"253 221 CURVE SMOOTH",
"410 301 OFFCURVE",
"478 374 OFFCURVE",
"478 440 CURVE SMOOTH",
"478 463 OFFCURVE",
"468 482 OFFCURVE",
"446 482 CURVE SMOOTH",
"422 482 OFFCURVE",
"414 470 OFFCURVE",
"414 455 CURVE SMOOTH",
"414 438 OFFCURVE",
"424 428 OFFCURVE",
"424 414 CURVE SMOOTH",
"424 403 OFFCURVE",
"410 382 OFFCURVE",
"386 382 CURVE SMOOTH",
"361 382 OFFCURVE",
"343 407 OFFCURVE",
"320 432 CURVE SMOOTH",
"297 457 OFFCURVE",
"270 482 OFFCURVE",
"227 482 CURVE SMOOTH",
"146 482 OFFCURVE",
"76 396 OFFCURVE",
"50 311 CURVE",
"75 305 LINE"
);
}
);
width = 500;
}
);
note = z;
unicode = 007A;
},
{
glyphname = braceleft;
lastChange = "2017-06-09 11:44:12 +0000";
layers = (
{
layerId = "FDC62533-83BB-4EB8-8B15-51662AB4ACD2";
paths = (
{
closed = 1;
nodes = (
"164 298 OFFCURVE",
"130 272 OFFCURVE",
"77 255 CURVE",
"112 242 OFFCURVE",
"130 222 OFFCURVE",
"130 194 CURVE SMOOTH",
"130 158 OFFCURVE",
"52 -73 OFFCURVE",
"52 -110 CURVE SMOOTH",
"52 -165 OFFCURVE",
"79 -190 OFFCURVE",
"168 -190 CURVE",
"173 -170 LINE",
"147 -166 OFFCURVE",
"124 -148 OFFCURVE",
"124 -113 CURVE SMOOTH",
"124 -85 OFFCURVE",
"143 -26 OFFCURVE",
"161 34 CURVE SMOOTH",
"179 93 OFFCURVE",
"198 154 OFFCURVE",
"198 186 CURVE SMOOTH",
"198 229 OFFCURVE",
"174 246 OFFCURVE",
"143 254 CURVE",
"144 256 LINE",
"210 274 OFFCURVE",
"237 299 OFFCURVE",
"263 388 CURVE SMOOTH",
"314 562 LINE SMOOTH",
"335 633 OFFCURVE",
"364 669 OFFCURVE",
"424 680 CURVE",
"427 700 LINE",
"337 700 OFFCURVE",
"277 680 OFFCURVE",
"240 556 CURVE SMOOTH",
"179 350 LINE SMOOTH"
);
}
);
width = 444;
}
);
note = braceleft;
unicode = 007B;
},
{
glyphname = bar;
lastChange = "2017-06-09 11:44:12 +0000";
layers = (
{
layerId = "FDC62533-83BB-4EB8-8B15-51662AB4ACD2";
paths = (
{
closed = 1;
nodes = (
"148 676 LINE",
"94 676 LINE",
"94 0 LINE",
"148 0 LINE"
);
}
);
width = 222;
}
);
note = bar;
unicode = 007C;
},
{
glyphname = braceright;
lastChange = "2017-06-09 11:44:12 +0000";
layers = (
{
layerId = "FDC62533-83BB-4EB8-8B15-51662AB4ACD2";
paths = (
{
closed = 1;
nodes = (
"253 212 OFFCURVE",
"287 238 OFFCURVE",
"340 255 CURVE",
"305 268 OFFCURVE",
"287 288 OFFCURVE",
"287 316 CURVE SMOOTH",
"287 352 OFFCURVE",
"365 583 OFFCURVE",
"365 620 CURVE SMOOTH",
"365 675 OFFCURVE",
"338 700 OFFCURVE",
"249 700 CURVE",
"244 680 LINE",
"270 676 OFFCURVE",
"293 660 OFFCURVE",
"293 623 CURVE SMOOTH",
"293 595 OFFCURVE",
"274 536 OFFCURVE",
"256 476 CURVE SMOOTH",
"238 417 OFFCURVE",
"219 356 OFFCURVE",
"219 324 CURVE SMOOTH",
"219 281 OFFCURVE",
"243 264 OFFCURVE",
"274 256 CURVE",
"273 254 LINE",
"207 236 OFFCURVE",
"180 211 OFFCURVE",
"154 122 CURVE SMOOTH",
"103 -52 LINE SMOOTH",
"82 -123 OFFCURVE",
"53 -159 OFFCURVE",
"-7 -170 CURVE",
"-10 -190 LINE",
"80 -190 OFFCURVE",
"140 -170 OFFCURVE",
"177 -46 CURVE SMOOTH",
"238 160 LINE SMOOTH"
);
}
);
width = 444;
}
);
note = braceright;
unicode = 007D;
},
{
glyphname = asciitilde;
lastChange = "2017-06-09 11:44:12 +0000";
layers = (
{
layerId = "FDC62533-83BB-4EB8-8B15-51662AB4ACD2";
paths = (
{
closed = 1;
nodes = (
"472 266 OFFCURVE",
"447 229 OFFCURVE",
"406 229 CURVE SMOOTH",
"382 229 OFFCURVE",
"347 246 OFFCURVE",
"313 261 CURVE SMOOTH",
"272 279 OFFCURVE",
"233 297 OFFCURVE",
"194 297 CURVE SMOOTH",
"127 297 OFFCURVE",
"91 253 OFFCURVE",
"69 211 CURVE",
"105 169 LINE",
"129 216 OFFCURVE",
"149 239 OFFCURVE",
"193 239 CURVE SMOOTH",
"225 239 OFFCURVE",
"271 225 OFFCURVE",
"312 202 CURVE SMOOTH",
"339 186 OFFCURVE",
"367 173 OFFCURVE",
"406 173 CURVE SMOOTH",
"468 173 OFFCURVE",
"501 217 OFFCURVE",
"531 259 CURVE",
"495 301 LINE"
);
}
);
width = 600;
}
);
note = asciitilde;
unicode = 007E;
},
{
glyphname = exclamdown;
lastChange = "2017-06-09 11:44:12 +0000";
layers = (
{
layerId = "FDC62533-83BB-4EB8-8B15-51662AB4ACD2";
paths = (
{
closed = 1;
nodes = (
"64 8 OFFCURVE",
"-1 -34 OFFCURVE",
"-1 -120 CURVE SMOOTH",
"-1 -154 OFFCURVE",
"20 -178 OFFCURVE",
"54 -178 CURVE SMOOTH",
"92 -178 OFFCURVE",
"120 -138 OFFCURVE",
"126 -90 CURVE SMOOTH",
"141 29 OFFCURVE",
"157 155 OFFCURVE",
"191 308 CURVE",
"157 308 LINE"
);
},
{
closed = 1;
nodes = (
"268 480 OFFCURVE",
"244 504 OFFCURVE",
"210 504 CURVE SMOOTH",
"178 504 OFFCURVE",
"152 480 OFFCURVE",
"152 448 CURVE SMOOTH",
"152 416 OFFCURVE",
"178 392 OFFCURVE",
"210 392 CURVE SMOOTH",
"242 392 OFFCURVE",
"268 416 OFFCURVE",
"268 448 CURVE SMOOTH"
);
}
);
width = 333;
}
);
note = exclamdown;
unicode = 00A1;
},
{
glyphname = cent;
lastChange = "2017-06-09 11:44:12 +0000";
layers = (
{
layerId = "FDC62533-83BB-4EB8-8B15-51662AB4ACD2";
paths = (
{
closed = 1;
nodes = (
"166 169 OFFCURVE",
"146 205 OFFCURVE",
"146 249 CURVE SMOOTH",
"146 350 OFFCURVE",
"201 505 OFFCURVE",
"293 544 CURVE",
"195 157 LINE"
);
},
{
closed = 1;
nodes = (
"223 118 LINE",
"302 128 OFFCURVE",
"370 174 OFFCURVE",
"418 296 CURVE",
"394 307 LINE",
"361 229 OFFCURVE",
"308 157 OFFCURVE",
"232 150 CURVE",
"333 553 LINE",
"338 554 OFFCURVE",
"342 554 OFFCURVE",
"347 554 CURVE SMOOTH",
"373 554 OFFCURVE",
"396 545 OFFCURVE",
"396 532 CURVE SMOOTH",
"396 508 OFFCURVE",
"342 516 OFFCURVE",
"342 468 CURVE SMOOTH",
"342 443 OFFCURVE",
"361 423 OFFCURVE",
"391 423 CURVE SMOOTH",
"419 423 OFFCURVE",
"444 449 OFFCURVE",
"444 485 CURVE SMOOTH",
"444 553 OFFCURVE",
"390 578 OFFCURVE",
"340 578 CURVE",
"370 700 LINE",
"332 700 LINE",
"301 575 LINE",
"179 552 OFFCURVE",
"68 434 OFFCURVE",
"68 300 CURVE SMOOTH",
"68 202 OFFCURVE",
"117 138 OFFCURVE",
"186 123 CURVE",
"152 -12 LINE",
"190 -12 LINE"
);
}
);
width = 556;
}
);
note = cent;
unicode = 00A2;
},
{
glyphname = sterling;
lastChange = "2017-06-09 11:44:12 +0000";
layers = (
{
layerId = "FDC62533-83BB-4EB8-8B15-51662AB4ACD2";
paths = (
{
closed = 1;
nodes = (
"328 287 OFFCURVE",
"355 246 OFFCURVE",
"355 194 CURVE SMOOTH",
"355 160 OFFCURVE",
"344 132 OFFCURVE",
"334 118 CURVE",
"267 152 OFFCURVE",
"210 185 OFFCURVE",
"135 185 CURVE SMOOTH",
"85 185 OFFCURVE",
"17 152 OFFCURVE",
"17 89 CURVE SMOOTH",
"17 43 OFFCURVE",
"52 -12 OFFCURVE",
"146 -12 CURVE SMOOTH",
"218 -12 OFFCURVE",
"266 10 OFFCURVE",
"316 43 CURVE",
"340 24 OFFCURVE",
"384 -6 OFFCURVE",
"454 -6 CURVE SMOOTH",
"550 -6 OFFCURVE",
"599 76 OFFCURVE",
"633 156 CURVE",
"610 175 LINE",
"589 120 OFFCURVE",
"546 72 OFFCURVE",
"490 72 CURVE SMOOTH",
"436 72 OFFCURVE",
"396 86 OFFCURVE",
"369 102 CURVE",
"394 132 OFFCURVE",
"423 186 OFFCURVE",
"423 240 CURVE SMOOTH",
"423 274 OFFCURVE",
"415 304 OFFCURVE",
"404 334 CURVE",
"548 334 LINE",
"557 364 LINE",
"386 364 LINE",
"344 418 OFFCURVE",
"289 486 OFFCURVE",
"289 545 CURVE SMOOTH",
"289 621 OFFCURVE",
"347 670 OFFCURVE",
"430 670 CURVE SMOOTH",
"487 670 OFFCURVE",
"511 650 OFFCURVE",
"511 636 CURVE SMOOTH",
"511 624 OFFCURVE",
"456 618 OFFCURVE",
"456 578 CURVE SMOOTH",
"456 546 OFFCURVE",
"478 527 OFFCURVE",
"510 527 CURVE SMOOTH",
"542 527 OFFCURVE",
"570 550 OFFCURVE",
"570 592 CURVE SMOOTH",
"570 640 OFFCURVE",
"522 700 OFFCURVE",
"421 700 CURVE SMOOTH",
"315 700 OFFCURVE",
"207 622 OFFCURVE",
"207 516 CURVE SMOOTH",
"207 456 OFFCURVE",
"238 410 OFFCURVE",
"273 365 CURVE",
"135 365 LINE",
"128 333 LINE",
"295 333 LINE"
);
},
{
closed = 1;
nodes = (
"53 126 OFFCURVE",
"81 149 OFFCURVE",
"126 149 CURVE SMOOTH",
"181 149 OFFCURVE",
"247 90 OFFCURVE",
"285 64 CURVE",
"250 35 OFFCURVE",
"193 18 OFFCURVE",
"148 18 CURVE SMOOTH",
"94 18 OFFCURVE",
"53 43 OFFCURVE",
"53 90 CURVE SMOOTH"
);
}
);
width = 556;
}
);
note = sterling;
unicode = 00A3;
},
{
glyphname = fraction;
lastChange = "2017-06-09 11:44:12 +0000";
layers = (
{
layerId = "FDC62533-83BB-4EB8-8B15-51662AB4ACD2";
paths = (
{
closed = 1;
nodes = (
"279 700 LINE",
"-167 -12 LINE",
"-112 -12 LINE",
"334 700 LINE"
);
}
);
width = 167;
}
);
note = fraction;
unicode = 2044;
},
{
glyphname = yen;
lastChange = "2017-06-09 11:44:12 +0000";
layers = (
{
layerId = "FDC62533-83BB-4EB8-8B15-51662AB4ACD2";
paths = (
{
closed = 1;
nodes = (
"512 284 LINE",
"345 284 LINE",
"346 288 LINE",
"403 356 LINE",
"524 356 LINE",
"536 386 LINE",
"428 386 LINE",
"593 585 LINE SMOOTH",
"632 632 OFFCURVE",
"661 653 OFFCURVE",
"705 658 CURVE",
"711 688 LINE",
"484 688 LINE",
"479 658 LINE",
"538 658 OFFCURVE",
"552 648 OFFCURVE",
"552 622 CURVE SMOOTH",
"552 592 OFFCURVE",
"518 558 OFFCURVE",
"506 543 CURVE SMOOTH",
"333 336 LINE",
"278 555 LINE SMOOTH",
"274 571 OFFCURVE",
"265 604 OFFCURVE",
"265 620 CURVE SMOOTH",
"265 640 OFFCURVE",
"300 662 OFFCURVE",
"355 658 CURVE",
"361 688 LINE",
"97 688 LINE",
"93 658 LINE",
"146 658 OFFCURVE",
"157 648 OFFCURVE",
"163 624 CURVE SMOOTH",
"221 386 LINE",
"110 386 LINE",
"98 356 LINE",
"228 356 LINE",
"244 290 LINE",
"243 284 LINE",
"86 284 LINE",
"74 254 LINE",
"235 254 LINE",
"196 100 LINE SMOOTH",
"183 49 OFFCURVE",
"162 36 OFFCURVE",
"82 30 CURVE",
"76 0 LINE",
"374 0 LINE",
"382 30 LINE",
"307 32 OFFCURVE",
"293 43 OFFCURVE",
"293 78 CURVE SMOOTH",
"293 95 OFFCURVE",
"298 114 OFFCURVE",
"307 146 CURVE SMOOTH",
"337 254 LINE",
"500 254 LINE"
);
}
);
width = 556;
}
);
note = yen;
unicode = 00A5;
},
{
glyphname = florin;
lastChange = "2017-06-09 11:44:12 +0000";
layers = (
{
layerId = "FDC62533-83BB-4EB8-8B15-51662AB4ACD2";
paths = (
{
closed = 1;
nodes = (
"328 418 LINE",
"371 616 OFFCURVE",
"400 670 OFFCURVE",
"451 670 CURVE SMOOTH",
"470 670 OFFCURVE",
"480 664 OFFCURVE",
"480 659 CURVE SMOOTH",
"480 653 OFFCURVE",
"443 642 OFFCURVE",
"443 606 CURVE SMOOTH",
"443 578 OFFCURVE",
"461 562 OFFCURVE",
"487 562 CURVE SMOOTH",
"521 562 OFFCURVE",
"553 588 OFFCURVE",
"553 630 CURVE SMOOTH",
"553 665 OFFCURVE",
"526 700 OFFCURVE",
"456 700 CURVE SMOOTH",
"369 700 OFFCURVE",
"279 645 OFFCURVE",
"237 418 CURVE",
"131 418 LINE",
"122 388 LINE",
"231 388 LINE",
"160 53 LINE SMOOTH",
"122 -128 OFFCURVE",
"83 -160 OFFCURVE",
"42 -160 CURVE SMOOTH",
"25 -160 OFFCURVE",
"16 -157 OFFCURVE",
"16 -153 CURVE SMOOTH",
"16 -146 OFFCURVE",
"52 -131 OFFCURVE",
"52 -93 CURVE SMOOTH",
"52 -68 OFFCURVE",
"30 -52 OFFCURVE",
"11 -52 CURVE SMOOTH",
"-30 -52 OFFCURVE",
"-54 -87 OFFCURVE",
"-54 -118 CURVE SMOOTH",
"-54 -160 OFFCURVE",
"-20 -190 OFFCURVE",
"33 -190 CURVE SMOOTH",
"88 -190 OFFCURVE",
"196 -160 OFFCURVE",
"238 24 CURVE SMOOTH",
"321 388 LINE",
"439 388 LINE",
"447 418 LINE"
);
}
);
width = 556;
}
);
note = florin;
unicode = 0192;
},
{
glyphname = section;
lastChange = "2017-06-09 11:44:12 +0000";
layers = (
{
layerId = "FDC62533-83BB-4EB8-8B15-51662AB4ACD2";
paths = (
{
closed = 1;
nodes = (
"420 381 OFFCURVE",
"241 513 OFFCURVE",
"241 585 CURVE SMOOTH",
"241 638 OFFCURVE",
"273 678 OFFCURVE",
"339 678 CURVE SMOOTH",
"388 678 OFFCURVE",
"399 662 OFFCURVE",
"399 649 CURVE SMOOTH",
"399 632 OFFCURVE",
"363 625 OFFCURVE",
"363 590 CURVE SMOOTH",
"363 564 OFFCURVE",
"383 546 OFFCURVE",
"408 546 CURVE SMOOTH",
"440 546 OFFCURVE",
"461 572 OFFCURVE",
"461 605 CURVE SMOOTH",
"461 653 OFFCURVE",
"420 700 OFFCURVE",
"335 700 CURVE SMOOTH",
"259 700 OFFCURVE",
"183 657 OFFCURVE",
"183 570 CURVE SMOOTH",
"183 518 OFFCURVE",
"209 477 OFFCURVE",
"242 435 CURVE",
"240 433 LINE",
"226 444 OFFCURVE",
"209 448 OFFCURVE",
"192 448 CURVE SMOOTH",
"121 448 OFFCURVE",
"76 388 OFFCURVE",
"76 320 CURVE SMOOTH",
"76 162 OFFCURVE",
"255 86 OFFCURVE",
"255 -13 CURVE SMOOTH",
"255 -60 OFFCURVE",
"216 -106 OFFCURVE",
"148 -106 CURVE SMOOTH",
"101 -106 OFFCURVE",
"78 -92 OFFCURVE",
"78 -76 CURVE SMOOTH",
"78 -50 OFFCURVE",
"124 -42 OFFCURVE",
"124 -3 CURVE SMOOTH",
"124 27 OFFCURVE",
"103 41 OFFCURVE",
"78 41 CURVE SMOOTH",
"46 41 OFFCURVE",
"20 17 OFFCURVE",
"20 -28 CURVE SMOOTH",
"20 -73 OFFCURVE",
"70 -132 OFFCURVE",
"150 -132 CURVE SMOOTH",
"252 -132 OFFCURVE",
"317 -56 OFFCURVE",
"317 16 CURVE SMOOTH",
"317 68 OFFCURVE",
"280 108 OFFCURVE",
"258 135 CURVE",
"259 137 LINE",
"272 133 OFFCURVE",
"286 131 OFFCURVE",
"298 131 CURVE SMOOTH",
"363 131 OFFCURVE",
"420 182 OFFCURVE",
"420 267 CURVE SMOOTH"
);
},
{
closed = 1;
nodes = (
"134 396 OFFCURVE",
"164 418 OFFCURVE",
"210 418 CURVE SMOOTH",
"271 418 OFFCURVE",
"358 294 OFFCURVE",
"358 228 CURVE SMOOTH",
"358 188 OFFCURVE",
"326 157 OFFCURVE",
"289 157 CURVE SMOOTH",
"253 157 OFFCURVE",
"236 171 OFFCURVE",
"192 229 CURVE SMOOTH",
"148 287 OFFCURVE",
"134 316 OFFCURVE",
"134 348 CURVE SMOOTH"
);
}
);
width = 500;
}
);
note = section;
unicode = 00A7;
},
{
glyphname = currency;
lastChange = "2017-06-09 11:44:12 +0000";
layers = (
{
layerId = "FDC62533-83BB-4EB8-8B15-51662AB4ACD2";
paths = (
{
closed = 1;
nodes = (
"496 191 LINE",
"532 236 OFFCURVE",
"548 290 OFFCURVE",
"548 344 CURVE SMOOTH",
"548 400 OFFCURVE",
"532 456 OFFCURVE",
"495 498 CURVE",
"550 552 LINE",
"508 594 LINE",
"452 538 LINE",
"410 574 OFFCURVE",
"356 592 OFFCURVE",
"300 592 CURVE SMOOTH",
"244 592 OFFCURVE",
"190 574 OFFCURVE",
"148 538 CURVE",
"92 594 LINE",
"50 552 LINE",
"105 498 LINE",
"68 456 OFFCURVE",
"52 400 OFFCURVE",
"52 344 CURVE SMOOTH",
"52 290 OFFCURVE",
"68 236 OFFCURVE",
"104 191 CURVE",
"51 135 LINE",
"91 95 LINE",
"145 153 LINE",
"188 114 OFFCURVE",
"243 96 OFFCURVE",
"300 96 CURVE SMOOTH",
"357 96 OFFCURVE",
"412 114 OFFCURVE",
"455 153 CURVE",
"509 95 LINE",
"549 135 LINE"
);
},
{
closed = 1;
nodes = (
"114 446 OFFCURVE",
"194 534 OFFCURVE",
"300 534 CURVE SMOOTH",
"406 534 OFFCURVE",
"486 446 OFFCURVE",
"486 344 CURVE SMOOTH",
"486 242 OFFCURVE",
"406 154 OFFCURVE",
"300 154 CURVE SMOOTH",
"194 154 OFFCURVE",
"114 242 OFFCURVE",
"114 344 CURVE SMOOTH"
);
}
);
width = 556;
}
);
note = currency;
unicode = 00A4;
},
{
glyphname = quotesingle;
lastChange = "2017-06-09 11:44:12 +0000";
layers = (
{
layerId = "FDC62533-83BB-4EB8-8B15-51662AB4ACD2";
paths = (
{
closed = 1;
nodes = (
"142 390 OFFCURVE",
"148 384 OFFCURVE",
"156 384 CURVE SMOOTH",
"165 384 OFFCURVE",
"170 391 OFFCURVE",
"172 415 CURVE SMOOTH",
"191 641 LINE SMOOTH",
"194 674 OFFCURVE",
"181 700 OFFCURVE",
"156 700 CURVE SMOOTH",
"132 700 OFFCURVE",
"118 679 OFFCURVE",
"122 632 CURVE SMOOTH",
"140 415 LINE SMOOTH"
);
}
);
width = 222;
}
);
note = quotesingle;
unicode = 0027;
},
{
glyphname = quotedblleft;
lastChange = "2017-06-09 11:44:12 +0000";
layers = (
{
layerId = "FDC62533-83BB-4EB8-8B15-51662AB4ACD2";
paths = (
{
closed = 1;
nodes = (
"356 667 OFFCURVE",
"293 590 OFFCURVE",
"293 519 CURVE SMOOTH",
"293 463 OFFCURVE",
"324 436 OFFCURVE",
"356 436 CURVE SMOOTH",
"397 436 OFFCURVE",
"417 464 OFFCURVE",
"417 500 CURVE SMOOTH",
"417 557 OFFCURVE",
"351 550 OFFCURVE",
"351 571 CURVE SMOOTH",
"351 599 OFFCURVE",
"397 651 OFFCURVE",
"431 688 CURVE",
"407 712 LINE"
);
},
{
closed = 1;
nodes = (
"152 667 OFFCURVE",
"89 590 OFFCURVE",
"89 519 CURVE SMOOTH",
"89 463 OFFCURVE",
"120 436 OFFCURVE",
"152 436 CURVE SMOOTH",
"193 436 OFFCURVE",
"213 464 OFFCURVE",
"213 500 CURVE SMOOTH",
"213 557 OFFCURVE",
"147 550 OFFCURVE",
"147 571 CURVE SMOOTH",
"147 599 OFFCURVE",
"193 651 OFFCURVE",
"227 688 CURVE",
"203 712 LINE"
);
}
);
width = 389;
}
);
note = quotedblleft;
unicode = 201C;
},
{
glyphname = guillemotleft;
lastChange = "2017-06-09 11:44:12 +0000";
layers = (
{
layerId = "FDC62533-83BB-4EB8-8B15-51662AB4ACD2";
paths = (
{
closed = 1;
nodes = (
"288 154 OFFCURVE",
"344 54 OFFCURVE",
"355 54 CURVE SMOOTH",
"362 54 OFFCURVE",
"367 58 OFFCURVE",
"367 64 CURVE SMOOTH",
"367 74 OFFCURVE",
"321 156 OFFCURVE",
"286 230 CURVE",
"311 254 OFFCURVE",
"443 392 OFFCURVE",
"443 409 CURVE SMOOTH",
"443 412 OFFCURVE",
"440 416 OFFCURVE",
"433 416 CURVE SMOOTH",
"420 416 OFFCURVE",
"343 333 OFFCURVE",
"215 241 CURVE",
"215 229 LINE"
);
},
{
closed = 1;
nodes = (
"128 154 OFFCURVE",
"184 54 OFFCURVE",
"195 54 CURVE SMOOTH",
"202 54 OFFCURVE",
"207 58 OFFCURVE",
"207 64 CURVE SMOOTH",
"207 74 OFFCURVE",
"161 156 OFFCURVE",
"126 230 CURVE",
"151 254 OFFCURVE",
"283 392 OFFCURVE",
"283 409 CURVE SMOOTH",
"283 412 OFFCURVE",
"280 416 OFFCURVE",
"273 416 CURVE SMOOTH",
"260 416 OFFCURVE",
"183 333 OFFCURVE",
"55 241 CURVE",
"55 229 LINE"
);
}
);
width = 500;
}
);
note = guillemotleft;
unicode = 00AB;
},
{
glyphname = guilsinglleft;
lastChange = "2017-06-09 11:44:12 +0000";
layers = (
{
layerId = "FDC62533-83BB-4EB8-8B15-51662AB4ACD2";
paths = (
{
closed = 1;
nodes = (
"117 154 OFFCURVE",
"173 54 OFFCURVE",
"184 54 CURVE SMOOTH",
"191 54 OFFCURVE",
"196 58 OFFCURVE",
"196 64 CURVE SMOOTH",
"196 74 OFFCURVE",
"150 156 OFFCURVE",
"115 230 CURVE",
"140 254 OFFCURVE",
"272 392 OFFCURVE",
"272 409 CURVE SMOOTH",
"272 412 OFFCURVE",
"269 416 OFFCURVE",
"262 416 CURVE SMOOTH",
"249 416 OFFCURVE",
"172 333 OFFCURVE",
"44 241 CURVE",
"44 229 LINE"
);
}
);
width = 333;
}
);
note = guilsinglleft;
unicode = 2039;
},
{
glyphname = guilsinglright;
lastChange = "2017-06-09 11:44:12 +0000";
layers = (
{
layerId = "FDC62533-83BB-4EB8-8B15-51662AB4ACD2";
paths = (
{
closed = 1;
nodes = (
"197 316 OFFCURVE",
"141 416 OFFCURVE",
"130 416 CURVE SMOOTH",
"123 416 OFFCURVE",
"118 412 OFFCURVE",
"118 406 CURVE SMOOTH",
"118 396 OFFCURVE",
"164 314 OFFCURVE",
"199 240 CURVE",
"174 216 OFFCURVE",
"42 78 OFFCURVE",
"42 61 CURVE SMOOTH",
"42 58 OFFCURVE",
"45 54 OFFCURVE",
"52 54 CURVE SMOOTH",
"65 54 OFFCURVE",
"142 137 OFFCURVE",
"270 229 CURVE",
"270 241 LINE"
);
}
);
width = 333;
}
);
note = guilsinglright;
unicode = 203A;
},
{
glyphname = fi;
lastChange = "2017-06-09 11:44:12 +0000";
layers = (
{
layerId = "FDC62533-83BB-4EB8-8B15-51662AB4ACD2";
paths = (
{
closed = 1;
nodes = (
"351 306 LINE SMOOTH",
"334 240 OFFCURVE",
"305 133 OFFCURVE",
"305 90 CURVE SMOOTH",
"305 40 OFFCURVE",
"342 -12 OFFCURVE",
"400 -12 CURVE SMOOTH",
"470 -12 OFFCURVE",
"528 70 OFFCURVE",
"574 168 CURVE",
"550 178 LINE",
"496 68 OFFCURVE",
"452 18 OFFCURVE",
"418 18 CURVE SMOOTH",
"392 18 OFFCURVE",
"383 33 OFFCURVE",
"383 60 CURVE SMOOTH",
"383 97 OFFCURVE",
"399 144 OFFCURVE",
"408 179 CURVE SMOOTH",
"483 470 LINE",
"202 470 LINE",
"221 600 OFFCURVE",
"303 658 OFFCURVE",
"390 658 CURVE SMOOTH",
"404 658 OFFCURVE",
"417 658 OFFCURVE",
"425 650 CURVE",
"417 644 OFFCURVE",
"413 632 OFFCURVE",
"413 619 CURVE SMOOTH",
"413 594 OFFCURVE",
"432 576 OFFCURVE",
"457 576 CURVE SMOOTH",
"488 576 OFFCURVE",
"505 599 OFFCURVE",
"505 628 CURVE SMOOTH",
"505 661 OFFCURVE",
"471 688 OFFCURVE",
"399 688 CURVE SMOOTH",
"278 688 OFFCURVE",
"162 586 OFFCURVE",
"121 470 CURVE",
"27 470 LINE",
"20 440 LINE",
"109 440 LINE",
"92 379 LINE SMOOTH",
"76 321 OFFCURVE",
"61 180 OFFCURVE",
"34 16 CURVE SMOOTH",
"21 -62 OFFCURVE",
"-17 -160 OFFCURVE",
"-105 -160 CURVE SMOOTH",
"-131 -160 OFFCURVE",
"-135 -157 OFFCURVE",
"-135 -151 CURVE SMOOTH",
"-135 -140 OFFCURVE",
"-110 -141 OFFCURVE",
"-110 -100 CURVE SMOOTH",
"-110 -79 OFFCURVE",
"-126 -59 OFFCURVE",
"-158 -59 CURVE SMOOTH",
"-191 -59 OFFCURVE",
"-212 -87 OFFCURVE",
"-212 -112 CURVE SMOOTH",
"-212 -159 OFFCURVE",
"-166 -190 OFFCURVE",
"-120 -190 CURVE SMOOTH",
"-17 -190 OFFCURVE",
"74 -99 OFFCURVE",
"118 44 CURVE SMOOTH",
"157 171 OFFCURVE",
"178 330 OFFCURVE",
"197 440 CURVE",
"386 440 LINE"
);
}
);
width = 556;
}
);
note = fi;
rightKerningGroup = f;
unicode = FB01;
},
{
glyphname = fl;
lastChange = "2017-06-09 11:44:12 +0000";
layers = (
{
layerId = "FDC62533-83BB-4EB8-8B15-51662AB4ACD2";
paths = (
{
closed = 1;
nodes = (
"323 176 LINE SMOOTH",
"314 142 OFFCURVE",
"308 118 OFFCURVE",
"308 88 CURVE SMOOTH",
"308 28 OFFCURVE",
"346 -12 OFFCURVE",
"399 -12 CURVE SMOOTH",
"490 -12 OFFCURVE",
"530 107 OFFCURVE",
"563 163 CURVE",
"540 175 LINE",
"522 141 OFFCURVE",
"466 18 OFFCURVE",
"416 18 CURVE SMOOTH",
"398 18 OFFCURVE",
"386 30 OFFCURVE",
"386 50 CURVE SMOOTH",
"386 77 OFFCURVE",
"399 125 OFFCURVE",
"404 142 CURVE SMOOTH",
"547 676 LINE",
"472 674 LINE",
"453 686 OFFCURVE",
"433 688 OFFCURVE",
"410 688 CURVE SMOOTH",
"289 688 OFFCURVE",
"173 586 OFFCURVE",
"132 470 CURVE",
"38 470 LINE",
"31 440 LINE",
"120 440 LINE",
"103 379 LINE SMOOTH",
"87 321 OFFCURVE",
"72 180 OFFCURVE",
"45 16 CURVE SMOOTH",
"32 -62 OFFCURVE",
"-6 -160 OFFCURVE",
"-94 -160 CURVE SMOOTH",
"-120 -160 OFFCURVE",
"-124 -157 OFFCURVE",
"-124 -151 CURVE SMOOTH",
"-124 -140 OFFCURVE",
"-99 -141 OFFCURVE",
"-99 -100 CURVE SMOOTH",
"-99 -79 OFFCURVE",
"-115 -59 OFFCURVE",
"-147 -59 CURVE SMOOTH",
"-180 -59 OFFCURVE",
"-201 -87 OFFCURVE",
"-201 -112 CURVE SMOOTH",
"-201 -159 OFFCURVE",
"-155 -190 OFFCURVE",
"-106 -190 CURVE SMOOTH",
"52 -190 OFFCURVE",
"131 -11 OFFCURVE",
"173 241 CURVE SMOOTH",
"206 440 LINE",
"393 440 LINE"
);
},
{
closed = 1;
nodes = (
"237 596 OFFCURVE",
"313 658 OFFCURVE",
"402 658 CURVE SMOOTH",
"414 658 OFFCURVE",
"428 653 OFFCURVE",
"431 646 CURVE",
"423 638 OFFCURVE",
"419 628 OFFCURVE",
"419 616 CURVE SMOOTH",
"419 603 OFFCURVE",
"424 592 OFFCURVE",
"432 586 CURVE",
"401 470 LINE",
"210 470 LINE"
);
}
);
width = 556;
}
);
note = fl;
rightKerningGroup = f;
unicode = FB02;
},
{
glyphname = endash;
lastChange = "2017-06-09 11:44:12 +0000";
layers = (
{
layerId = "FDC62533-83BB-4EB8-8B15-51662AB4ACD2";
paths = (
{
closed = 1;
nodes = (
"491 208 LINE",
"503 262 LINE",
"-9 262 LINE",
"-21 208 LINE"
);
}
);
width = 500;
}
);
note = endash;
unicode = 2013;
},
{
glyphname = dagger;
lastChange = "2017-06-09 11:44:12 +0000";
layers = (
{
layerId = "FDC62533-83BB-4EB8-8B15-51662AB4ACD2";
paths = (
{
closed = 1;
nodes = (
"219 123 OFFCURVE",
"266 250 OFFCURVE",
"300 293 CURVE",
"289 326 OFFCURVE",
"287 348 OFFCURVE",
"287 368 CURVE SMOOTH",
"287 389 OFFCURVE",
"294 433 OFFCURVE",
"302 460 CURVE",
"393 460 OFFCURVE",
"399 428 OFFCURVE",
"445 428 CURVE SMOOTH",
"473 428 OFFCURVE",
"491 452 OFFCURVE",
"491 473 CURVE SMOOTH",
"491 497 OFFCURVE",
"472 508 OFFCURVE",
"446 508 CURVE SMOOTH",
"409 508 OFFCURVE",
"388 478 OFFCURVE",
"307 478 CURVE",
"323 572 OFFCURVE",
"387 604 OFFCURVE",
"387 659 CURVE SMOOTH",
"387 684 OFFCURVE",
"370 700 OFFCURVE",
"351 700 CURVE SMOOTH",
"317 700 OFFCURVE",
"295 676 OFFCURVE",
"295 643 CURVE SMOOTH",
"295 616 OFFCURVE",
"301 593 OFFCURVE",
"301 564 CURVE SMOOTH",
"301 526 OFFCURVE",
"292 514 OFFCURVE",
"286 478 CURVE",
"196 478 OFFCURVE",
"191 508 OFFCURVE",
"148 508 CURVE SMOOTH",
"124 508 OFFCURVE",
"102 495 OFFCURVE",
"102 468 CURVE SMOOTH",
"102 446 OFFCURVE",
"118 428 OFFCURVE",
"141 428 CURVE SMOOTH",
"186 428 OFFCURVE",
"194 460 OFFCURVE",
"281 460 CURVE",
"268 394 OFFCURVE",
"236 333 OFFCURVE",
"200 298 CURVE",
"202 280 OFFCURVE",
"201 260 OFFCURVE",
"201 235 CURVE SMOOTH",
"201 205 OFFCURVE",
"188 103 OFFCURVE",
"160 -2 CURVE SMOOTH",
"128 -124 LINE",
"150 -124 LINE",
"203 65 LINE SMOOTH"
);
}
);
width = 500;
}
);
note = dagger;
unicode = 2020;
},
{
glyphname = daggerdbl;
lastChange = "2017-06-09 11:44:12 +0000";
layers = (
{
layerId = "FDC62533-83BB-4EB8-8B15-51662AB4ACD2";
paths = (
{
closed = 1;
nodes = (
"491 497 OFFCURVE",
"472 508 OFFCURVE",
"446 508 CURVE SMOOTH",
"409 508 OFFCURVE",
"388 478 OFFCURVE",
"307 478 CURVE",
"323 572 OFFCURVE",
"387 604 OFFCURVE",
"387 659 CURVE SMOOTH",
"387 684 OFFCURVE",
"370 700 OFFCURVE",
"351 700 CURVE SMOOTH",
"317 700 OFFCURVE",
"295 676 OFFCURVE",
"295 643 CURVE SMOOTH",
"295 616 OFFCURVE",
"301 593 OFFCURVE",
"301 564 CURVE SMOOTH",
"301 526 OFFCURVE",
"292 514 OFFCURVE",
"286 478 CURVE",
"196 478 OFFCURVE",
"191 508 OFFCURVE",
"148 508 CURVE SMOOTH",
"124 508 OFFCURVE",
"102 495 OFFCURVE",
"102 468 CURVE SMOOTH",
"102 446 OFFCURVE",
"118 428 OFFCURVE",
"141 428 CURVE SMOOTH",
"186 428 OFFCURVE",
"194 460 OFFCURVE",
"281 460 CURVE",
"268 394 OFFCURVE",
"236 333 OFFCURVE",
"200 298 CURVE",
"208 271 OFFCURVE",
"212 251 OFFCURVE",
"212 223 CURVE SMOOTH",
"212 197 OFFCURVE",
"205 156 OFFCURVE",
"198 131 CURVE",
"107 131 OFFCURVE",
"101 163 OFFCURVE",
"55 163 CURVE SMOOTH",
"27 163 OFFCURVE",
"9 139 OFFCURVE",
"9 118 CURVE SMOOTH",
"9 94 OFFCURVE",
"28 83 OFFCURVE",
"54 83 CURVE SMOOTH",
"91 83 OFFCURVE",
"112 113 OFFCURVE",
"193 113 CURVE",
"177 19 OFFCURVE",
"113 -13 OFFCURVE",
"113 -68 CURVE SMOOTH",
"113 -93 OFFCURVE",
"130 -109 OFFCURVE",
"149 -109 CURVE SMOOTH",
"183 -109 OFFCURVE",
"205 -85 OFFCURVE",
"205 -52 CURVE SMOOTH",
"205 -25 OFFCURVE",
"199 -2 OFFCURVE",
"199 27 CURVE SMOOTH",
"199 65 OFFCURVE",
"208 77 OFFCURVE",
"214 113 CURVE",
"304 113 OFFCURVE",
"309 83 OFFCURVE",
"352 83 CURVE SMOOTH",
"376 83 OFFCURVE",
"398 96 OFFCURVE",
"398 123 CURVE SMOOTH",
"398 145 OFFCURVE",
"382 163 OFFCURVE",
"359 163 CURVE SMOOTH",
"314 163 OFFCURVE",
"306 131 OFFCURVE",
"219 131 CURVE",
"232 197 OFFCURVE",
"264 258 OFFCURVE",
"300 293 CURVE",
"292 320 OFFCURVE",
"288 340 OFFCURVE",
"288 368 CURVE SMOOTH",
"288 399 OFFCURVE",
"295 430 OFFCURVE",
"302 460 CURVE",
"393 460 OFFCURVE",
"399 428 OFFCURVE",
"445 428 CURVE SMOOTH",
"473 428 OFFCURVE",
"491 452 OFFCURVE",
"491 473 CURVE SMOOTH"
);
}
);
width = 500;
}
);
note = daggerdbl;
unicode = 2021;
},
{
glyphname = periodcentered;
lastChange = "2017-06-09 11:44:12 +0000";
layers = (
{
layerId = "FDC62533-83BB-4EB8-8B15-51662AB4ACD2";
paths = (
{
closed = 1;
nodes = (
"76 203 OFFCURVE",
"102 177 OFFCURVE",
"134 177 CURVE SMOOTH",
"166 177 OFFCURVE",
"192 203 OFFCURVE",
"192 235 CURVE SMOOTH",
"192 267 OFFCURVE",
"166 293 OFFCURVE",
"134 293 CURVE SMOOTH",
"102 293 OFFCURVE",
"76 267 OFFCURVE",
"76 235 CURVE SMOOTH"
);
}
);
width = 278;
}
);
note = periodcentered;
unicode = 00B7;
},
{
glyphname = paragraph;
lastChange = "2017-06-09 11:44:12 +0000";
layers = (
{
layerId = "FDC62533-83BB-4EB8-8B15-51662AB4ACD2";
paths = (
{
closed = 1;
nodes = (
"541 606 LINE SMOOTH",
"551 644 OFFCURVE",
"569 658 OFFCURVE",
"636 658 CURVE",
"644 688 LINE",
"363 688 LINE SMOOTH",
"182 688 OFFCURVE",
"120 511 OFFCURVE",
"120 407 CURVE SMOOTH",
"120 328 OFFCURVE",
"163 280 OFFCURVE",
"272 277 CURVE",
"147 -178 LINE",
"205 -178 LINE",
"435 658 LINE",
"498 658 LINE",
"268 -178 LINE",
"326 -178 LINE"
);
}
);
width = 600;
}
);
note = paragraph;
unicode = 00B6;
},
{
glyphname = bullet;
lastChange = "2017-06-09 11:44:12 +0000";
layers = (
{
layerId = "FDC62533-83BB-4EB8-8B15-51662AB4ACD2";
paths = (
{
closed = 1;
nodes = (
"418 439 OFFCURVE",
"341 516 OFFCURVE",
"246 516 CURVE SMOOTH",
"149 516 OFFCURVE",
"74 439 OFFCURVE",
"74 344 CURVE SMOOTH",
"75 248 OFFCURVE",
"150 172 OFFCURVE",
"246 172 CURVE SMOOTH",
"341 172 OFFCURVE",
"418 249 OFFCURVE",
"418 344 CURVE SMOOTH"
);
}
);
width = 500;
}
);
note = bullet;
unicode = 2022;
},
{
glyphname = quotesinglbase;
lastChange = "2017-06-09 11:44:12 +0000";
layers = (
{
layerId = "FDC62533-83BB-4EB8-8B15-51662AB4ACD2";
paths = (
{
closed = 1;
nodes = (
"58 -119 OFFCURVE",
"121 -42 OFFCURVE",
"121 29 CURVE SMOOTH",
"121 85 OFFCURVE",
"90 112 OFFCURVE",
"58 112 CURVE SMOOTH",
"17 112 OFFCURVE",
"-3 84 OFFCURVE",
"-3 48 CURVE SMOOTH",
"-3 -9 OFFCURVE",
"63 -2 OFFCURVE",
"63 -23 CURVE SMOOTH",
"63 -51 OFFCURVE",
"17 -103 OFFCURVE",
"-17 -140 CURVE",
"7 -164 LINE"
);
}
);
width = 222;
}
);
note = quotesinglbase;
unicode = 201A;
},
{
glyphname = quotedblbase;
lastChange = "2017-06-09 11:44:12 +0000";
layers = (
{
layerId = "FDC62533-83BB-4EB8-8B15-51662AB4ACD2";
paths = (
{
closed = 1;
nodes = (
"36 -119 OFFCURVE",
"99 -42 OFFCURVE",
"99 29 CURVE SMOOTH",
"99 85 OFFCURVE",
"68 112 OFFCURVE",
"36 112 CURVE SMOOTH",
"-5 112 OFFCURVE",
"-25 84 OFFCURVE",
"-25 48 CURVE SMOOTH",
"-25 -9 OFFCURVE",
"41 -2 OFFCURVE",
"41 -23 CURVE SMOOTH",
"41 -51 OFFCURVE",
"-5 -103 OFFCURVE",
"-39 -140 CURVE",
"-15 -164 LINE"
);
},
{
closed = 1;
nodes = (
"240 -119 OFFCURVE",
"303 -42 OFFCURVE",
"303 29 CURVE SMOOTH",
"303 85 OFFCURVE",
"272 112 OFFCURVE",
"240 112 CURVE SMOOTH",
"199 112 OFFCURVE",
"179 84 OFFCURVE",
"179 48 CURVE SMOOTH",
"179 -9 OFFCURVE",
"245 -2 OFFCURVE",
"245 -23 CURVE SMOOTH",
"245 -51 OFFCURVE",
"199 -103 OFFCURVE",
"165 -140 CURVE",
"189 -164 LINE"
);
}
);
width = 389;
}
);
note = quotedblbase;
unicode = 201E;
},
{
glyphname = quotedblright;
lastChange = "2017-06-09 11:44:12 +0000";
layers = (
{
layerId = "FDC62533-83BB-4EB8-8B15-51662AB4ACD2";
paths = (
{
closed = 1;
nodes = (
"169 469 OFFCURVE",
"232 546 OFFCURVE",
"232 617 CURVE SMOOTH",
"232 673 OFFCURVE",
"201 700 OFFCURVE",
"169 700 CURVE SMOOTH",
"128 700 OFFCURVE",
"108 672 OFFCURVE",
"108 636 CURVE SMOOTH",
"108 579 OFFCURVE",
"174 586 OFFCURVE",
"174 565 CURVE SMOOTH",
"174 537 OFFCURVE",
"128 485 OFFCURVE",
"94 448 CURVE",
"118 424 LINE"
);
},
{
closed = 1;
nodes = (
"373 469 OFFCURVE",
"436 546 OFFCURVE",
"436 617 CURVE SMOOTH",
"436 673 OFFCURVE",
"405 700 OFFCURVE",
"373 700 CURVE SMOOTH",
"332 700 OFFCURVE",
"312 672 OFFCURVE",
"312 636 CURVE SMOOTH",
"312 579 OFFCURVE",
"378 586 OFFCURVE",
"378 565 CURVE SMOOTH",
"378 537 OFFCURVE",
"332 485 OFFCURVE",
"298 448 CURVE",
"322 424 LINE"
);
}
);
width = 389;
}
);
note = quotedblright;
unicode = 201D;
},
{
glyphname = guillemotright;
lastChange = "2017-06-09 11:44:12 +0000";
layers = (
{
layerId = "FDC62533-83BB-4EB8-8B15-51662AB4ACD2";
paths = (
{
closed = 1;
nodes = (
"194 316 OFFCURVE",
"138 416 OFFCURVE",
"127 416 CURVE SMOOTH",
"120 416 OFFCURVE",
"115 412 OFFCURVE",
"115 406 CURVE SMOOTH",
"115 396 OFFCURVE",
"161 314 OFFCURVE",
"196 240 CURVE",
"171 216 OFFCURVE",
"39 78 OFFCURVE",
"39 61 CURVE SMOOTH",
"39 58 OFFCURVE",
"42 54 OFFCURVE",
"49 54 CURVE SMOOTH",
"62 54 OFFCURVE",
"139 137 OFFCURVE",
"267 229 CURVE",
"267 241 LINE"
);
},
{
closed = 1;
nodes = (
"354 316 OFFCURVE",
"298 416 OFFCURVE",
"287 416 CURVE SMOOTH",
"280 416 OFFCURVE",
"275 412 OFFCURVE",
"275 406 CURVE SMOOTH",
"275 396 OFFCURVE",
"321 314 OFFCURVE",
"356 240 CURVE",
"331 216 OFFCURVE",
"199 78 OFFCURVE",
"199 61 CURVE SMOOTH",
"199 58 OFFCURVE",
"202 54 OFFCURVE",
"209 54 CURVE SMOOTH",
"222 54 OFFCURVE",
"299 137 OFFCURVE",
"427 229 CURVE",
"427 241 LINE"
);
}
);
width = 500;
}
);
note = guillemotright;
unicode = 00BB;
},
{
glyphname = ellipsis;
lastChange = "2017-06-09 11:44:12 +0000";
layers = (
{
layerId = "FDC62533-83BB-4EB8-8B15-51662AB4ACD2";
paths = (
{
closed = 1;
nodes = (
"52 17 OFFCURVE",
"77 -6 OFFCURVE",
"110 -6 CURVE SMOOTH",
"142 -6 OFFCURVE",
"168 18 OFFCURVE",
"168 50 CURVE SMOOTH",
"168 81 OFFCURVE",
"141 106 OFFCURVE",
"110 106 CURVE SMOOTH",
"78 106 OFFCURVE",
"52 82 OFFCURVE",
"52 50 CURVE SMOOTH"
);
},
{
closed = 1;
nodes = (
"385 17 OFFCURVE",
"410 -6 OFFCURVE",
"443 -6 CURVE SMOOTH",
"475 -6 OFFCURVE",
"501 18 OFFCURVE",
"501 50 CURVE SMOOTH",
"501 81 OFFCURVE",
"474 106 OFFCURVE",
"443 106 CURVE SMOOTH",
"411 106 OFFCURVE",
"385 82 OFFCURVE",
"385 50 CURVE SMOOTH"
);
},
{
closed = 1;
nodes = (
"718 17 OFFCURVE",
"743 -6 OFFCURVE",
"776 -6 CURVE SMOOTH",
"808 -6 OFFCURVE",
"834 18 OFFCURVE",
"834 50 CURVE SMOOTH",
"834 81 OFFCURVE",
"807 106 OFFCURVE",
"776 106 CURVE SMOOTH",
"744 106 OFFCURVE",
"718 82 OFFCURVE",
"718 50 CURVE SMOOTH"
);
}
);
width = 1000;
}
);
note = ellipsis;
unicode = 2026;
},
{
glyphname = perthousand;
lastChange = "2017-06-09 11:44:12 +0000";
layers = (
{
layerId = "FDC62533-83BB-4EB8-8B15-51662AB4ACD2";
paths = (
{
closed = 1;
nodes = (
"109 317 OFFCURVE",
"91 337 OFFCURVE",
"91 392 CURVE SMOOTH",
"91 480 OFFCURVE",
"151 662 OFFCURVE",
"220 662 CURVE SMOOTH",
"246 662 OFFCURVE",
"263 638 OFFCURVE",
"263 594 CURVE SMOOTH",
"263 486 OFFCURVE",
"201 317 OFFCURVE",
"135 317 CURVE SMOOTH"
);
},
{
closed = 1;
nodes = (
"241 291 OFFCURVE",
"317 432 OFFCURVE",
"317 545 CURVE SMOOTH",
"317 638 OFFCURVE",
"276 688 OFFCURVE",
"220 688 CURVE SMOOTH",
"138 688 OFFCURVE",
"37 568 OFFCURVE",
"37 427 CURVE SMOOTH",
"37 340 OFFCURVE",
"77 291 OFFCURVE",
"134 291 CURVE SMOOTH"
);
},
{
closed = 1;
nodes = (
"411 26 OFFCURVE",
"393 46 OFFCURVE",
"393 101 CURVE SMOOTH",
"393 189 OFFCURVE",
"453 371 OFFCURVE",
"522 371 CURVE SMOOTH",
"548 371 OFFCURVE",
"565 347 OFFCURVE",
"565 303 CURVE SMOOTH",
"565 195 OFFCURVE",
"503 26 OFFCURVE",
"437 26 CURVE SMOOTH"
);
},
{
closed = 1;
nodes = (
"543 0 OFFCURVE",
"619 141 OFFCURVE",
"619 254 CURVE SMOOTH",
"619 347 OFFCURVE",
"578 397 OFFCURVE",
"522 397 CURVE SMOOTH",
"440 397 OFFCURVE",
"339 277 OFFCURVE",
"339 136 CURVE SMOOTH",
"339 49 OFFCURVE",
"379 0 OFFCURVE",
"436 0 CURVE SMOOTH"
);
},
{
closed = 1;
nodes = (
"715 26 OFFCURVE",
"697 46 OFFCURVE",
"697 101 CURVE SMOOTH",
"697 189 OFFCURVE",
"757 371 OFFCURVE",
"826 371 CURVE SMOOTH",
"852 371 OFFCURVE",
"869 347 OFFCURVE",
"869 303 CURVE SMOOTH",
"869 195 OFFCURVE",
"807 26 OFFCURVE",
"741 26 CURVE SMOOTH"
);
},
{
closed = 1;
nodes = (
"847 0 OFFCURVE",
"923 141 OFFCURVE",
"923 254 CURVE SMOOTH",
"923 347 OFFCURVE",
"882 397 OFFCURVE",
"826 397 CURVE SMOOTH",
"744 397 OFFCURVE",
"643 277 OFFCURVE",
"643 136 CURVE SMOOTH",
"643 49 OFFCURVE",
"683 0 OFFCURVE",
"740 0 CURVE SMOOTH"
);
},
{
closed = 1;
nodes = (
"159 -12 LINE",
"543 700 LINE",
"502 700 LINE",
"118 -12 LINE"
);
}
);
width = 944;
}
);
note = perthousand;
unicode = 2030;
},
{
glyphname = questiondown;
lastChange = "2017-06-09 11:44:12 +0000";
layers = (
{
layerId = "FDC62533-83BB-4EB8-8B15-51662AB4ACD2";
paths = (
{
closed = 1;
nodes = (
"209 256 OFFCURVE",
"228 278 OFFCURVE",
"257 278 CURVE SMOOTH",
"283 278 OFFCURVE",
"302 264 OFFCURVE",
"302 238 CURVE SMOOTH",
"302 203 OFFCURVE",
"283 172 OFFCURVE",
"118 110 CURVE SMOOTH",
"36 79 OFFCURVE",
"-3 28 OFFCURVE",
"-3 -39 CURVE SMOOTH",
"-3 -135 OFFCURVE",
"81 -190 OFFCURVE",
"180 -190 CURVE SMOOTH",
"279 -190 OFFCURVE",
"349 -125 OFFCURVE",
"349 -40 CURVE SMOOTH",
"349 -11 OFFCURVE",
"343 12 OFFCURVE",
"326 36 CURVE",
"303 23 LINE",
"312 6 OFFCURVE",
"317 -12 OFFCURVE",
"317 -32 CURVE SMOOTH",
"317 -108 OFFCURVE",
"262 -160 OFFCURVE",
"193 -160 CURVE SMOOTH",
"138 -160 OFFCURVE",
"89 -116 OFFCURVE",
"89 -60 CURVE SMOOTH",
"89 3 OFFCURVE",
"103 25 OFFCURVE",
"156 60 CURVE SMOOTH",
"283 144 OFFCURVE",
"334 166 OFFCURVE",
"334 228 CURVE SMOOTH",
"334 275 OFFCURVE",
"303 308 OFFCURVE",
"259 308 CURVE SMOOTH",
"214 308 OFFCURVE",
"185 281 OFFCURVE",
"162 224 CURVE",
"191 210 LINE"
);
},
{
closed = 1;
nodes = (
"386 480 OFFCURVE",
"362 504 OFFCURVE",
"328 504 CURVE SMOOTH",
"296 504 OFFCURVE",
"270 480 OFFCURVE",
"270 448 CURVE SMOOTH",
"270 416 OFFCURVE",
"296 392 OFFCURVE",
"328 392 CURVE SMOOTH",
"360 392 OFFCURVE",
"386 416 OFFCURVE",
"386 448 CURVE SMOOTH"
);
}
);
width = 500;
}
);
note = questiondown;
unicode = 00BF;
},
{
glyphname = grave;
lastChange = "2017-06-09 11:44:12 +0000";
layers = (
{
layerId = "FDC62533-83BB-4EB8-8B15-51662AB4ACD2";
paths = (
{
closed = 1;
nodes = (
"216 661 LINE SMOOTH",
"186 700 OFFCURVE",
"178 706 OFFCURVE",
"159 706 CURVE SMOOTH",
"140 706 OFFCURVE",
"124 692 OFFCURVE",
"124 668 CURVE SMOOTH",
"124 647 OFFCURVE",
"145 639 OFFCURVE",
"201 597 CURVE SMOOTH",
"284 534 LINE",
"314 534 LINE"
);
}
);
width = 352;
}
);
note = grave;
unicode = 0060;
},
{
glyphname = acute;
lastChange = "2017-06-09 11:44:12 +0000";
layers = (
{
layerId = "FDC62533-83BB-4EB8-8B15-51662AB4ACD2";
paths = (
{
closed = 1;
nodes = (
"218 534 LINE",
"388 640 LINE SMOOTH",
"400 648 OFFCURVE",
"406 653 OFFCURVE",
"406 669 CURVE SMOOTH",
"406 693 OFFCURVE",
"390 706 OFFCURVE",
"370 706 CURVE SMOOTH",
"356 706 OFFCURVE",
"353 701 OFFCURVE",
"322 671 CURVE SMOOTH",
"183 534 LINE"
);
}
);
width = 352;
}
);
note = acute;
unicode = 00B4;
},
{
glyphname = circumflex;
lastChange = "2017-06-09 11:44:12 +0000";
layers = (
{
layerId = "FDC62533-83BB-4EB8-8B15-51662AB4ACD2";
paths = (
{
closed = 1;
nodes = (
"88 534 LINE",
"126 534 LINE",
"264 638 LINE",
"346 534 LINE",
"382 534 LINE",
"294 702 LINE",
"245 702 LINE"
);
}
);
width = 352;
}
);
note = circumflex;
unicode = 02C6;
},
{
glyphname = tilde;
lastChange = "2017-06-09 11:44:12 +0000";
layers = (
{
layerId = "FDC62533-83BB-4EB8-8B15-51662AB4ACD2";
paths = (
{
closed = 1;
nodes = (
"140 590 OFFCURVE",
"156 606 OFFCURVE",
"183 606 CURVE SMOOTH",
"208 606 OFFCURVE",
"234 595 OFFCURVE",
"259 583 CURVE SMOOTH",
"284 571 OFFCURVE",
"309 560 OFFCURVE",
"332 560 CURVE SMOOTH",
"379 560 OFFCURVE",
"416 597 OFFCURVE",
"431 666 CURVE",
"402 666 LINE",
"391 632 OFFCURVE",
"378 621 OFFCURVE",
"344 621 CURVE SMOOTH",
"327 621 OFFCURVE",
"307 632 OFFCURVE",
"284 643 CURVE SMOOTH",
"261 654 OFFCURVE",
"233 664 OFFCURVE",
"201 664 CURVE SMOOTH",
"150 664 OFFCURVE",
"118 627 OFFCURVE",
"103 558 CURVE",
"132 558 LINE"
);
}
);
width = 352;
}
);
note = tilde;
unicode = 02DC;
},
{
glyphname = macron;
lastChange = "2017-06-09 11:44:12 +0000";
layers = (
{
layerId = "FDC62533-83BB-4EB8-8B15-51662AB4ACD2";
paths = (
{
closed = 1;
nodes = (
"113 628 LINE",
"102 574 LINE",
"403 574 LINE",
"414 628 LINE"
);
}
);
width = 352;
}
);
note = macron;
unicode = 00AF;
},
{
glyphname = breve;
lastChange = "2017-06-09 11:44:12 +0000";
layers = (
{
layerId = "FDC62533-83BB-4EB8-8B15-51662AB4ACD2";
paths = (
{
closed = 1;
nodes = (
"369 634 OFFCURVE",
"323 592 OFFCURVE",
"256 592 CURVE SMOOTH",
"193 592 OFFCURVE",
"151 627 OFFCURVE",
"148 692 CURVE",
"120 692 LINE",
"120 589 OFFCURVE",
"155 534 OFFCURVE",
"251 534 CURVE SMOOTH",
"347 534 OFFCURVE",
"403 600 OFFCURVE",
"421 692 CURVE",
"392 692 LINE"
);
}
);
width = 352;
}
);
note = breve;
unicode = 02D8;
},
{
glyphname = dotaccent;
lastChange = "2017-06-09 11:44:12 +0000";
layers = (
{
layerId = "FDC62533-83BB-4EB8-8B15-51662AB4ACD2";
paths = (
{
closed = 1;
nodes = (
"208 571 OFFCURVE",
"229 550 OFFCURVE",
"258 550 CURVE SMOOTH",
"285 550 OFFCURVE",
"306 573 OFFCURVE",
"306 600 CURVE SMOOTH",
"306 625 OFFCURVE",
"283 648 OFFCURVE",
"258 648 CURVE SMOOTH",
"231 648 OFFCURVE",
"208 627 OFFCURVE",
"208 600 CURVE SMOOTH"
);
}
);
width = 352;
}
);
note = dotaccent;
unicode = 02D9;
},
{
glyphname = dieresis;
lastChange = "2017-06-09 11:44:12 +0000";
layers = (
{
layerId = "FDC62533-83BB-4EB8-8B15-51662AB4ACD2";
paths = (
{
closed = 1;
nodes = (
"110 571 OFFCURVE",
"131 550 OFFCURVE",
"160 550 CURVE SMOOTH",
"187 550 OFFCURVE",
"208 573 OFFCURVE",
"208 600 CURVE SMOOTH",
"208 625 OFFCURVE",
"185 648 OFFCURVE",
"160 648 CURVE SMOOTH",
"133 648 OFFCURVE",
"110 627 OFFCURVE",
"110 600 CURVE SMOOTH"
);
},
{
closed = 1;
nodes = (
"311 571 OFFCURVE",
"332 550 OFFCURVE",
"361 550 CURVE SMOOTH",
"388 550 OFFCURVE",
"409 573 OFFCURVE",
"409 600 CURVE SMOOTH",
"409 625 OFFCURVE",
"386 648 OFFCURVE",
"361 648 CURVE SMOOTH",
"334 648 OFFCURVE",
"311 627 OFFCURVE",
"311 600 CURVE SMOOTH"
);
}
);
width = 352;
}
);
note = dieresis;
unicode = 00A8;
},
{
glyphname = ring;
lastChange = "2017-06-09 11:44:12 +0000";
layers = (
{
layerId = "FDC62533-83BB-4EB8-8B15-51662AB4ACD2";
paths = (
{
closed = 1;
nodes = (
"164 577 OFFCURVE",
"209 534 OFFCURVE",
"264 534 CURVE SMOOTH",
"318 534 OFFCURVE",
"363 578 OFFCURVE",
"363 633 CURVE SMOOTH",
"363 687 OFFCURVE",
"319 733 OFFCURVE",
"264 733 CURVE SMOOTH",
"208 733 OFFCURVE",
"164 688 OFFCURVE",
"164 633 CURVE SMOOTH"
);
},
{
closed = 1;
nodes = (
"200 668 OFFCURVE",
"227 697 OFFCURVE",
"263 697 CURVE SMOOTH",
"298 697 OFFCURVE",
"327 668 OFFCURVE",
"327 634 CURVE SMOOTH",
"327 598 OFFCURVE",
"298 570 OFFCURVE",
"263 570 CURVE SMOOTH",
"227 570 OFFCURVE",
"200 598 OFFCURVE",
"200 634 CURVE SMOOTH"
);
}
);
width = 352;
}
);
note = ring;
unicode = 02DA;
},
{
glyphname = cedilla;
lastChange = "2017-06-09 11:44:12 +0000";
layers = (
{
layerId = "FDC62533-83BB-4EB8-8B15-51662AB4ACD2";
paths = (
{
closed = 1;
nodes = (
"15 -92 LINE",
"24 -100 LINE",
"36 -96 OFFCURVE",
"46 -94 OFFCURVE",
"58 -94 CURVE SMOOTH",
"89 -94 OFFCURVE",
"105 -114 OFFCURVE",
"105 -135 CURVE SMOOTH",
"105 -158 OFFCURVE",
"83 -176 OFFCURVE",
"50 -176 CURVE SMOOTH",
"30 -176 OFFCURVE",
"4 -170 OFFCURVE",
"-18 -160 CURVE",
"-35 -190 LINE",
"-17 -202 OFFCURVE",
"23 -212 OFFCURVE",
"59 -212 CURVE SMOOTH",
"128 -212 OFFCURVE",
"177 -179 OFFCURVE",
"177 -126 CURVE SMOOTH",
"177 -80 OFFCURVE",
"135 -58 OFFCURVE",
"99 -58 CURVE SMOOTH",
"90 -58 OFFCURVE",
"81 -59 OFFCURVE",
"73 -62 CURVE",
"71 -60 LINE",
"115 4 LINE",
"76 4 LINE"
);
}
);
width = 352;
}
);
note = cedilla;
unicode = 00B8;
},
{
glyphname = hungarumlaut;
lastChange = "2017-06-09 11:44:12 +0000";
layers = (
{
layerId = "FDC62533-83BB-4EB8-8B15-51662AB4ACD2";
paths = (
{
closed = 1;
nodes = (
"290 534 LINE",
"460 640 LINE SMOOTH",
"472 648 OFFCURVE",
"478 653 OFFCURVE",
"478 669 CURVE SMOOTH",
"478 693 OFFCURVE",
"462 706 OFFCURVE",
"442 706 CURVE SMOOTH",
"428 706 OFFCURVE",
"425 701 OFFCURVE",
"394 671 CURVE SMOOTH",
"255 534 LINE"
);
},
{
closed = 1;
nodes = (
"134 534 LINE",
"217 597 LINE SMOOTH",
"273 639 OFFCURVE",
"294 647 OFFCURVE",
"294 668 CURVE SMOOTH",
"294 692 OFFCURVE",
"278 706 OFFCURVE",
"259 706 CURVE SMOOTH",
"240 706 OFFCURVE",
"232 700 OFFCURVE",
"202 661 CURVE SMOOTH",
"104 534 LINE"
);
}
);
width = 352;
}
);
note = hungarumlaut;
unicode = 02DD;
},
{
glyphname = ogonek;
lastChange = "2017-06-09 11:44:12 +0000";
layers = (
{
layerId = "FDC62533-83BB-4EB8-8B15-51662AB4ACD2";
paths = (
{
closed = 1;
nodes = (
"136 0 OFFCURVE",
"-25 -30 OFFCURVE",
"-25 -144 CURVE SMOOTH",
"-25 -184 OFFCURVE",
"17 -212 OFFCURVE",
"58 -212 CURVE SMOOTH",
"116 -212 OFFCURVE",
"166 -182 OFFCURVE",
"218 -153 CURVE",
"204 -127 LINE",
"171 -146 OFFCURVE",
"131 -170 OFFCURVE",
"92 -170 CURVE SMOOTH",
"67 -170 OFFCURVE",
"47 -155 OFFCURVE",
"47 -130 CURVE SMOOTH",
"47 -77 OFFCURVE",
"104 -27 OFFCURVE",
"221 9 CURVE",
"221 18 LINE"
);
}
);
width = 352;
}
);
note = ogonek;
unicode = 02DB;
},
{
glyphname = caron;
lastChange = "2017-06-09 11:44:12 +0000";
layers = (
{
layerId = "FDC62533-83BB-4EB8-8B15-51662AB4ACD2";
paths = (
{
closed = 1;
nodes = (
"429 702 LINE",
"394 702 LINE",
"251 597 LINE",
"161 702 LINE",
"124 702 LINE",
"220 534 LINE",
"266 534 LINE"
);
}
);
width = 352;
}
);
note = caron;
unicode = 02C7;
},
{
glyphname = emdash;
lastChange = "2017-06-09 11:44:12 +0000";
layers = (
{
layerId = "FDC62533-83BB-4EB8-8B15-51662AB4ACD2";
paths = (
{
closed = 1;
nodes = (
"991 208 LINE",
"1003 262 LINE",
"-9 262 LINE",
"-21 208 LINE"
);
}
);
width = 1000;
}
);
note = emdash;
unicode = 2014;
},
{
glyphname = AE;
lastChange = "2017-06-09 11:44:12 +0000";
layers = (
{
layerId = "FDC62533-83BB-4EB8-8B15-51662AB4ACD2";
paths = (
{
closed = 1;
nodes = (
"807 255 LINE",
"748 104 OFFCURVE",
"665 30 OFFCURVE",
"538 30 CURVE SMOOTH",
"499 30 OFFCURVE",
"483 48 OFFCURVE",
"483 72 CURVE SMOOTH",
"483 87 OFFCURVE",
"536 284 OFFCURVE",
"553 348 CURVE",
"633 347 OFFCURVE",
"648 320 OFFCURVE",
"648 224 CURVE",
"676 224 LINE",
"737 498 LINE",
"708 498 LINE",
"680 414 OFFCURVE",
"651 386 OFFCURVE",
"563 384 CURVE",
"615 589 LINE SMOOTH",
"626 634 OFFCURVE",
"650 658 OFFCURVE",
"714 658 CURVE SMOOTH",
"796 658 OFFCURVE",
"841 606 OFFCURVE",
"841 496 CURVE SMOOTH",
"841 480 OFFCURVE",
"839 460 OFFCURVE",
"839 444 CURVE",
"869 444 LINE",
"928 688 LINE",
"389 688 LINE",
"382 658 LINE",
"420 654 OFFCURVE",
"454 654 OFFCURVE",
"454 634 CURVE SMOOTH",
"454 618 OFFCURVE",
"434 593 OFFCURVE",
"411 563 CURVE SMOOTH",
"69 114 LINE SMOOTH",
"20 50 OFFCURVE",
"-10 28 OFFCURVE",
"-43 30 CURVE",
"-50 0 LINE",
"175 0 LINE",
"181 30 LINE",
"106 30 OFFCURVE",
"93 41 OFFCURVE",
"93 66 CURVE SMOOTH",
"93 80 OFFCURVE",
"128 129 OFFCURVE",
"154 163 CURVE SMOOTH",
"279 328 LINE",
"447 328 LINE",
"386 89 LINE SMOOTH",
"376 49 OFFCURVE",
"359 36 OFFCURVE",
"287 30 CURVE",
"280 0 LINE",
"766 0 LINE",
"838 252 LINE"
);
},
{
closed = 1;
nodes = (
"524 658 LINE",
"536 658 LINE",
"457 364 LINE",
"304 364 LINE"
);
}
);
width = 944;
}
);
leftKerningGroup = A;
note = AE;
unicode = 00C6;
},
{
glyphname = ordfeminine;
lastChange = "2017-06-09 11:44:12 +0000";
layers = (
{
layerId = "FDC62533-83BB-4EB8-8B15-51662AB4ACD2";
paths = (
{
closed = 1;
nodes = (
"273 631 LINE",
"271 631 LINE",
"267 676 OFFCURVE",
"253 700 OFFCURVE",
"213 700 CURVE SMOOTH",
"155 700 OFFCURVE",
"52 633 OFFCURVE",
"52 515 CURVE SMOOTH",
"52 454 OFFCURVE",
"87 404 OFFCURVE",
"143 404 CURVE SMOOTH",
"195 404 OFFCURVE",
"225 454 OFFCURVE",
"233 474 CURVE",
"235 474 LINE",
"235 424 OFFCURVE",
"257 404 OFFCURVE",
"288 404 CURVE SMOOTH",
"327 404 OFFCURVE",
"351 433 OFFCURVE",
"391 519 CURVE",
"373 523 LINE",
"340 450 OFFCURVE",
"320 425 OFFCURVE",
"298 425 CURVE SMOOTH",
"290 425 OFFCURVE",
"283 430 OFFCURVE",
"283 441 CURVE SMOOTH",
"283 451 OFFCURVE",
"326 609 OFFCURVE",
"348 693 CURVE",
"290 693 LINE"
);
},
{
closed = 1;
nodes = (
"114 565 OFFCURVE",
"167 680 OFFCURVE",
"213 680 CURVE SMOOTH",
"238 680 OFFCURVE",
"257 663 OFFCURVE",
"257 608 CURVE SMOOTH",
"257 507 OFFCURVE",
"190 424 OFFCURVE",
"149 424 CURVE SMOOTH",
"130 424 OFFCURVE",
"114 436 OFFCURVE",
"114 477 CURVE SMOOTH"
);
}
);
width = 334;
}
);
note = ordfeminine;
unicode = 00AA;
},
{
glyphname = Lslash;
lastChange = "2017-06-09 11:44:12 +0000";
layers = (
{
layerId = "FDC62533-83BB-4EB8-8B15-51662AB4ACD2";
paths = (
{
closed = 1;
nodes = (
"80 84 LINE SMOOTH",
"70 47 OFFCURVE",
"52 34 OFFCURVE",
"-37 30 CURVE",
"-44 0 LINE",
"516 0 LINE",
"588 252 LINE",
"557 255 LINE",
"498 104 OFFCURVE",
"415 30 OFFCURVE",
"247 30 CURVE SMOOTH",
"199 30 OFFCURVE",
"183 48 OFFCURVE",
"183 79 CURVE SMOOTH",
"183 97 OFFCURVE",
"191 121 OFFCURVE",
"201 160 CURVE SMOOTH",
"248 336 LINE",
"431 405 LINE",
"434 445 LINE",
"259 380 LINE",
"310 572 LINE SMOOTH",
"330 646 OFFCURVE",
"347 658 OFFCURVE",
"433 658 CURVE",
"438 688 LINE",
"137 688 LINE",
"130 658 LINE",
"207 658 OFFCURVE",
"216 646 OFFCURVE",
"216 616 CURVE SMOOTH",
"216 598 OFFCURVE",
"208 561 OFFCURVE",
"201 536 CURVE SMOOTH",
"148 338 LINE",
"38 297 LINE",
"35 257 LINE",
"136 295 LINE"
);
}
);
width = 611;
}
);
note = Lslash;
rightKerningGroup = L;
unicode = 0141;
},
{
glyphname = Oslash;
lastChange = "2017-06-09 11:44:12 +0000";
layers = (
{
layerId = "FDC62533-83BB-4EB8-8B15-51662AB4ACD2";
paths = (
{
closed = 1;
nodes = (
"587 570 OFFCURVE",
"597 527 OFFCURVE",
"597 476 CURVE SMOOTH",
"597 336 OFFCURVE",
"518 24 OFFCURVE",
"306 24 CURVE SMOOTH",
"265 24 OFFCURVE",
"226 34 OFFCURVE",
"198 61 CURVE",
"565 602 LINE"
);
},
{
closed = 1;
nodes = (
"158 120 OFFCURVE",
"150 152 OFFCURVE",
"150 192 CURVE SMOOTH",
"150 336 OFFCURVE",
"218 664 OFFCURVE",
"440 664 CURVE SMOOTH",
"481 664 OFFCURVE",
"514 653 OFFCURVE",
"539 632 CURVE",
"172 95 LINE"
);
},
{
closed = 1;
nodes = (
"562 666 LINE",
"528 687 OFFCURVE",
"488 700 OFFCURVE",
"444 700 CURVE SMOOTH",
"252 700 OFFCURVE",
"52 500 OFFCURVE",
"52 302 CURVE SMOOTH",
"52 189 OFFCURVE",
"86 103 OFFCURVE",
"141 50 CURVE",
"44 -92 LINE",
"94 -92 LINE",
"173 24 LINE",
"208 1 OFFCURVE",
"250 -12 OFFCURVE",
"296 -12 CURVE SMOOTH",
"496 -12 OFFCURVE",
"695 184 OFFCURVE",
"695 400 CURVE SMOOTH",
"695 500 OFFCURVE",
"656 588 OFFCURVE",
"593 643 CURVE",
"688 782 LINE",
"642 782 LINE"
);
}
);
width = 722;
}
);
note = Oslash;
unicode = 00D8;
},
{
glyphname = OE;
lastChange = "2017-06-09 11:44:12 +0000";
layers = (
{
layerId = "FDC62533-83BB-4EB8-8B15-51662AB4ACD2";
paths = (
{
closed = 1;
nodes = (
"883 252 LINE",
"852 256 LINE",
"793 104 OFFCURVE",
"710 30 OFFCURVE",
"592 30 CURVE SMOOTH",
"540 30 OFFCURVE",
"523 40 OFFCURVE",
"523 66 CURVE SMOOTH",
"523 86 OFFCURVE",
"545 165 OFFCURVE",
"556 208 CURVE SMOOTH",
"591 348 LINE",
"674 348 OFFCURVE",
"692 332 OFFCURVE",
"692 224 CURVE",
"720 224 LINE",
"788 502 LINE",
"755 502 LINE",
"724 408 OFFCURVE",
"688 384 OFFCURVE",
"600 384 CURVE",
"651 589 LINE SMOOTH",
"663 636 OFFCURVE",
"700 658 OFFCURVE",
"758 658 CURVE SMOOTH",
"847 658 OFFCURVE",
"892 606 OFFCURVE",
"892 496 CURVE SMOOTH",
"892 480 OFFCURVE",
"890 460 OFFCURVE",
"890 444 CURVE",
"920 444 LINE",
"979 688 LINE",
"474 688 LINE SMOOTH",
"230 688 OFFCURVE",
"38 528 OFFCURVE",
"38 293 CURVE SMOOTH",
"38 129 OFFCURVE",
"124 0 OFFCURVE",
"309 0 CURVE SMOOTH",
"811 0 LINE"
);
},
{
closed = 1;
nodes = (
"422 75 OFFCURVE",
"382 36 OFFCURVE",
"293 36 CURVE SMOOTH",
"195 36 OFFCURVE",
"130 88 OFFCURVE",
"130 188 CURVE SMOOTH",
"130 346 OFFCURVE",
"208 652 OFFCURVE",
"424 652 CURVE SMOOTH",
"506 652 OFFCURVE",
"543 629 OFFCURVE",
"543 583 CURVE SMOOTH",
"543 561 OFFCURVE",
"533 520 OFFCURVE",
"526 492 CURVE SMOOTH",
"435 126 LINE SMOOTH"
);
}
);
width = 944;
}
);
note = OE;
unicode = 0152;
},
{
glyphname = ordmasculine;
lastChange = "2017-06-09 11:44:12 +0000";
layers = (
{
layerId = "FDC62533-83BB-4EB8-8B15-51662AB4ACD2";
paths = (
{
closed = 1;
nodes = (
"61 460 OFFCURVE",
"103 404 OFFCURVE",
"165 404 CURVE SMOOTH",
"257 404 OFFCURVE",
"337 495 OFFCURVE",
"337 569 CURVE SMOOTH",
"337 644 OFFCURVE",
"295 700 OFFCURVE",
"233 700 CURVE SMOOTH",
"140 700 OFFCURVE",
"61 609 OFFCURVE",
"61 535 CURVE SMOOTH"
);
},
{
closed = 1;
nodes = (
"283 582 OFFCURVE",
"257 424 OFFCURVE",
"166 424 CURVE SMOOTH",
"132 424 OFFCURVE",
"115 443 OFFCURVE",
"115 481 CURVE SMOOTH",
"115 522 OFFCURVE",
"141 680 OFFCURVE",
"231 680 CURVE SMOOTH",
"266 680 OFFCURVE",
"283 661 OFFCURVE",
"283 623 CURVE SMOOTH"
);
}
);
width = 300;
}
);
note = ordmasculine;
unicode = 00BA;
},
{
glyphname = ae;
lastChange = "2017-06-09 11:44:12 +0000";
layers = (
{
layerId = "FDC62533-83BB-4EB8-8B15-51662AB4ACD2";
paths = (
{
closed = 1;
nodes = (
"109 247 OFFCURVE",
"188 452 OFFCURVE",
"270 452 CURVE SMOOTH",
"314 452 OFFCURVE",
"337 403 OFFCURVE",
"337 324 CURVE SMOOTH",
"337 183 OFFCURVE",
"250 18 OFFCURVE",
"172 18 CURVE SMOOTH",
"132 18 OFFCURVE",
"109 47 OFFCURVE",
"109 110 CURVE SMOOTH"
);
},
{
closed = 1;
nodes = (
"363 388 LINE",
"361 388 LINE",
"355 442 OFFCURVE",
"331 482 OFFCURVE",
"265 482 CURVE SMOOTH",
"182 482 OFFCURVE",
"23 371 OFFCURVE",
"23 173 CURVE SMOOTH",
"23 72 OFFCURVE",
"77 -12 OFFCURVE",
"164 -12 CURVE SMOOTH",
"242 -12 OFFCURVE",
"306 74 OFFCURVE",
"325 108 CURVE",
"327 108 LINE",
"338 34 OFFCURVE",
"385 -12 OFFCURVE",
"460 -12 CURVE SMOOTH",
"566 -12 OFFCURVE",
"615 63 OFFCURVE",
"684 146 CURVE",
"663 167 LINE",
"616 105 OFFCURVE",
"550 18 OFFCURVE",
"469 18 CURVE SMOOTH",
"413 18 OFFCURVE",
"381 53 OFFCURVE",
"381 117 CURVE SMOOTH",
"381 142 OFFCURVE",
"385 166 OFFCURVE",
"390 190 CURVE",
"639 228 OFFCURVE",
"705 315 OFFCURVE",
"705 388 CURVE SMOOTH",
"705 445 OFFCURVE",
"668 482 OFFCURVE",
"596 482 CURVE SMOOTH",
"525 482 OFFCURVE",
"459 435 OFFCURVE",
"412 367 CURVE",
"410 369 LINE",
"439 472 LINE",
"378 472 LINE"
);
},
{
closed = 1;
nodes = (
"637 290 OFFCURVE",
"516 233 OFFCURVE",
"396 217 CURVE",
"426 368 OFFCURVE",
"519 452 OFFCURVE",
"580 452 CURVE SMOOTH",
"617 452 OFFCURVE",
"637 426 OFFCURVE",
"637 394 CURVE SMOOTH"
);
}
);
width = 722;
}
);
leftKerningGroup = a;
note = ae;
unicode = 00E6;
},
{
glyphname = dotlessi;
lastChange = "2017-06-09 11:44:12 +0000";
layers = (
{
layerId = "FDC62533-83BB-4EB8-8B15-51662AB4ACD2";
paths = (
{
closed = 1;
nodes = (
"284 68 OFFCURVE",
"240 18 OFFCURVE",
"206 18 CURVE SMOOTH",
"180 18 OFFCURVE",
"171 33 OFFCURVE",
"171 57 CURVE SMOOTH",
"171 120 OFFCURVE",
"266 263 OFFCURVE",
"266 366 CURVE SMOOTH",
"266 421 OFFCURVE",
"232 482 OFFCURVE",
"174 482 CURVE SMOOTH",
"99 482 OFFCURVE",
"52 400 OFFCURVE",
"14 309 CURVE",
"38 301 LINE",
"78 388 OFFCURVE",
"114 452 OFFCURVE",
"159 452 CURVE SMOOTH",
"183 452 OFFCURVE",
"194 437 OFFCURVE",
"194 404 CURVE SMOOTH",
"194 354 OFFCURVE",
"170 308 OFFCURVE",
"145 259 CURVE SMOOTH",
"120 210 OFFCURVE",
"93 158 OFFCURVE",
"93 94 CURVE SMOOTH",
"93 40 OFFCURVE",
"130 -12 OFFCURVE",
"188 -12 CURVE SMOOTH",
"258 -12 OFFCURVE",
"316 70 OFFCURVE",
"362 168 CURVE",
"338 178 LINE"
);
}
);
width = 389;
}
);
note = dotlessi;
unicode = 0131;
},
{
glyphname = lslash;
lastChange = "2017-06-09 11:44:12 +0000";
layers = (
{
layerId = "FDC62533-83BB-4EB8-8B15-51662AB4ACD2";
paths = (
{
closed = 1;
nodes = (
"29 176 LINE SMOOTH",
"20 142 OFFCURVE",
"14 118 OFFCURVE",
"14 88 CURVE SMOOTH",
"14 28 OFFCURVE",
"52 -12 OFFCURVE",
"105 -12 CURVE SMOOTH",
"196 -12 OFFCURVE",
"236 107 OFFCURVE",
"269 163 CURVE",
"246 175 LINE",
"228 141 OFFCURVE",
"172 18 OFFCURVE",
"122 18 CURVE SMOOTH",
"104 18 OFFCURVE",
"92 30 OFFCURVE",
"92 50 CURVE SMOOTH",
"92 77 OFFCURVE",
"105 125 OFFCURVE",
"110 142 CURVE SMOOTH",
"176 388 LINE",
"254 422 LINE",
"252 452 LINE",
"185 423 LINE",
"253 676 LINE",
"80 672 LINE",
"74 646 LINE",
"128 645 OFFCURVE",
"144 638 OFFCURVE",
"144 614 CURVE SMOOTH",
"144 596 OFFCURVE",
"135 570 OFFCURVE",
"130 552 CURVE SMOOTH",
"84 379 LINE",
"5 345 LINE",
"7 315 LINE",
"75 344 LINE"
);
}
);
width = 278;
}
);
note = lslash;
unicode = 0142;
},
{
glyphname = oslash;
lastChange = "2017-06-09 11:44:12 +0000";
layers = (
{
layerId = "FDC62533-83BB-4EB8-8B15-51662AB4ACD2";
paths = (
{
closed = 1;
nodes = (
"106 82 OFFCURVE",
"102 102 OFFCURVE",
"102 126 CURVE SMOOTH",
"102 212 OFFCURVE",
"158 452 OFFCURVE",
"284 452 CURVE SMOOTH",
"304 452 OFFCURVE",
"321 447 OFFCURVE",
"335 437 CURVE",
"114 65 LINE"
);
},
{
closed = 1;
nodes = (
"366 395 OFFCURVE",
"370 375 OFFCURVE",
"370 352 CURVE SMOOTH",
"370 258 OFFCURVE",
"318 18 OFFCURVE",
"188 18 CURVE SMOOTH",
"168 18 OFFCURVE",
"151 23 OFFCURVE",
"138 35 CURVE",
"359 409 LINE"
);
},
{
closed = 1;
nodes = (
"60 -96 LINE",
"120 5 LINE",
"139 -6 OFFCURVE",
"162 -12 OFFCURVE",
"188 -12 CURVE SMOOTH",
"324 -12 OFFCURVE",
"448 138 OFFCURVE",
"448 272 CURVE SMOOTH",
"448 344 OFFCURVE",
"425 409 OFFCURVE",
"381 447 CURVE",
"452 566 LINE",
"412 566 LINE",
"352 466 LINE",
"333 476 OFFCURVE",
"310 482 OFFCURVE",
"284 482 CURVE SMOOTH",
"154 482 OFFCURVE",
"24 352 OFFCURVE",
"24 198 CURVE SMOOTH",
"24 127 OFFCURVE",
"47 63 OFFCURVE",
"90 24 CURVE",
"18 -96 LINE"
);
}
);
width = 500;
}
);
leftKerningGroup = o;
note = oslash;
unicode = 00F8;
},
{
glyphname = oe;
lastChange = "2017-06-09 11:44:12 +0000";
layers = (
{
layerId = "FDC62533-83BB-4EB8-8B15-51662AB4ACD2";
paths = (
{
closed = 1;
nodes = (
"692 290 OFFCURVE",
"571 233 OFFCURVE",
"451 217 CURVE",
"481 368 OFFCURVE",
"574 452 OFFCURVE",
"635 452 CURVE SMOOTH",
"672 452 OFFCURVE",
"692 426 OFFCURVE",
"692 394 CURVE SMOOTH"
);
},
{
closed = 1;
nodes = (
"341 452 OFFCURVE",
"370 416 OFFCURVE",
"370 352 CURVE SMOOTH",
"370 258 OFFCURVE",
"318 18 OFFCURVE",
"188 18 CURVE SMOOTH",
"138 18 OFFCURVE",
"102 52 OFFCURVE",
"102 122 CURVE SMOOTH",
"102 206 OFFCURVE",
"154 452 OFFCURVE",
"284 452 CURVE SMOOTH"
);
},
{
closed = 1;
nodes = (
"671 105 OFFCURVE",
"605 18 OFFCURVE",
"524 18 CURVE SMOOTH",
"468 18 OFFCURVE",
"436 53 OFFCURVE",
"436 117 CURVE SMOOTH",
"436 142 OFFCURVE",
"440 166 OFFCURVE",
"445 190 CURVE",
"694 228 OFFCURVE",
"760 315 OFFCURVE",
"760 388 CURVE SMOOTH",
"760 445 OFFCURVE",
"723 482 OFFCURVE",
"640 482 CURVE SMOOTH",
"576 482 OFFCURVE",
"490 443 OFFCURVE",
"428 374 CURVE",
"405 438 OFFCURVE",
"355 482 OFFCURVE",
"284 482 CURVE SMOOTH",
"154 482 OFFCURVE",
"24 360 OFFCURVE",
"24 184 CURVE SMOOTH",
"24 80 OFFCURVE",
"92 -12 OFFCURVE",
"184 -12 CURVE SMOOTH",
"266 -12 OFFCURVE",
"324 28 OFFCURVE",
"372 85 CURVE",
"399 23 OFFCURVE",
"457 -12 OFFCURVE",
"515 -12 CURVE SMOOTH",
"621 -12 OFFCURVE",
"670 63 OFFCURVE",
"739 146 CURVE",
"718 167 LINE"
);
}
);
width = 778;
}
);
leftKerningGroup = o;
note = oe;
unicode = 0153;
},
{
glyphname = germandbls;
lastChange = "2017-06-09 11:44:12 +0000";
layers = (
{
layerId = "FDC62533-83BB-4EB8-8B15-51662AB4ACD2";
paths = (
{
closed = 1;
nodes = (
"-198 -162 OFFCURVE",
"-158 -190 OFFCURVE",
"-106 -190 CURVE SMOOTH",
"-3 -190 OFFCURVE",
"88 -99 OFFCURVE",
"132 44 CURVE SMOOTH",
"184 212 OFFCURVE",
"181 320 OFFCURVE",
"208 440 CURVE SMOOTH",
"243 596 OFFCURVE",
"300 658 OFFCURVE",
"389 658 CURVE SMOOTH",
"455 658 OFFCURVE",
"495 619 OFFCURVE",
"495 553 CURVE SMOOTH",
"495 378 OFFCURVE",
"274 470 OFFCURVE",
"274 327 CURVE SMOOTH",
"274 239 OFFCURVE",
"462 214 OFFCURVE",
"462 122 CURVE SMOOTH",
"462 48 OFFCURVE",
"416 18 OFFCURVE",
"351 18 CURVE SMOOTH",
"298 18 OFFCURVE",
"259 38 OFFCURVE",
"259 53 CURVE SMOOTH",
"259 64 OFFCURVE",
"304 64 OFFCURVE",
"304 113 CURVE SMOOTH",
"304 142 OFFCURVE",
"284 162 OFFCURVE",
"252 162 CURVE SMOOTH",
"216 162 OFFCURVE",
"194 130 OFFCURVE",
"194 86 CURVE SMOOTH",
"194 40 OFFCURVE",
"238 -12 OFFCURVE",
"360 -12 CURVE SMOOTH",
"470 -12 OFFCURVE",
"548 76 OFFCURVE",
"548 147 CURVE SMOOTH",
"548 284 OFFCURVE",
"356 299 OFFCURVE",
"356 372 CURVE SMOOTH",
"356 441 OFFCURVE",
"587 373 OFFCURVE",
"587 546 CURVE SMOOTH",
"587 630 OFFCURVE",
"521 688 OFFCURVE",
"400 688 CURVE SMOOTH",
"302 688 OFFCURVE",
"195 634 OFFCURVE",
"126 470 CURVE",
"54 470 LINE",
"45 440 LINE",
"117 440 LINE",
"89 330 OFFCURVE",
"78 192 OFFCURVE",
"48 16 CURVE SMOOTH",
"27 -107 OFFCURVE",
"-29 -160 OFFCURVE",
"-91 -160 CURVE SMOOTH",
"-117 -160 OFFCURVE",
"-121 -157 OFFCURVE",
"-121 -151 CURVE SMOOTH",
"-121 -145 OFFCURVE",
"-96 -134 OFFCURVE",
"-96 -106 CURVE SMOOTH",
"-96 -83 OFFCURVE",
"-112 -59 OFFCURVE",
"-147 -59 CURVE SMOOTH",
"-179 -59 OFFCURVE",
"-198 -85 OFFCURVE",
"-198 -111 CURVE SMOOTH"
);
}
);
width = 611;
}
);
note = germandbls;
unicode = 00DF;
},
{
glyphname = onesuperior;
lastChange = "2017-06-09 11:44:12 +0000";
layers = (
{
layerId = "FDC62533-83BB-4EB8-8B15-51662AB4ACD2";
paths = (
{
closed = 1;
nodes = (
"281 302 LINE",
"223 302 OFFCURVE",
"209 310 OFFCURVE",
"209 333 CURVE SMOOTH",
"209 344 OFFCURVE",
"303 665 OFFCURVE",
"312 693 CURVE",
"291 693 LINE",
"247 667 OFFCURVE",
"208 655 OFFCURVE",
"160 652 CURVE",
"156 630 LINE",
"231 630 LINE",
"205 537 OFFCURVE",
"173 440 OFFCURVE",
"147 342 CURVE SMOOTH",
"140 317 OFFCURVE",
"123 305 OFFCURVE",
"58 302 CURVE",
"54 280 LINE",
"277 280 LINE"
);
}
);
width = 333;
}
);
note = onesuperior;
unicode = 00B9;
},
{
glyphname = logicalnot;
lastChange = "2017-06-09 11:44:12 +0000";
layers = (
{
layerId = "FDC62533-83BB-4EB8-8B15-51662AB4ACD2";
paths = (
{
closed = 1;
nodes = (
"514 100 LINE",
"514 353 LINE",
"44 353 LINE",
"44 299 LINE",
"460 299 LINE",
"460 100 LINE"
);
}
);
width = 600;
}
);
note = logicalnot;
unicode = 00AC;
},
{
glyphname = mu;
lastChange = "2017-06-09 11:44:12 +0000";
layers = (
{
layerId = "FDC62533-83BB-4EB8-8B15-51662AB4ACD2";
paths = (
{
closed = 1;
nodes = (
"382 268 LINE SMOOTH",
"354 171 OFFCURVE",
"266 24 OFFCURVE",
"207 24 CURVE SMOOTH",
"178 24 OFFCURVE",
"162 40 OFFCURVE",
"162 66 CURVE SMOOTH",
"162 120 OFFCURVE",
"252 276 OFFCURVE",
"250 368 CURVE SMOOTH",
"249 428 OFFCURVE",
"222 482 OFFCURVE",
"152 482 CURVE SMOOTH",
"84 482 OFFCURVE",
"42 417 OFFCURVE",
"3 313 CURVE",
"28 301 LINE",
"70 404 OFFCURVE",
"104 452 OFFCURVE",
"147 452 CURVE SMOOTH",
"171 452 OFFCURVE",
"182 437 OFFCURVE",
"182 410 CURVE SMOOTH",
"182 356 OFFCURVE",
"-14 -68 OFFCURVE",
"-14 -134 CURVE SMOOTH",
"-14 -166 OFFCURVE",
"4 -192 OFFCURVE",
"38 -192 CURVE SMOOTH",
"112 -192 OFFCURVE",
"114 -74 OFFCURVE",
"137 -1 CURVE",
"151 -8 OFFCURVE",
"168 -12 OFFCURVE",
"188 -12 CURVE SMOOTH",
"276 -12 OFFCURVE",
"335 103 OFFCURVE",
"360 153 CURVE",
"362 151 LINE",
"358 130 OFFCURVE",
"353 104 OFFCURVE",
"353 66 CURVE SMOOTH",
"353 25 OFFCURVE",
"384 -12 OFFCURVE",
"428 -12 CURVE SMOOTH",
"506 -12 OFFCURVE",
"542 78 OFFCURVE",
"588 168 CURVE",
"565 181 LINE",
"516 78 OFFCURVE",
"490 24 OFFCURVE",
"444 24 CURVE SMOOTH",
"422 24 OFFCURVE",
"415 38 OFFCURVE",
"415 58 CURVE SMOOTH",
"415 80 OFFCURVE",
"431 135 OFFCURVE",
"448 195 CURVE SMOOTH",
"528 470 LINE",
"440 470 LINE"
);
}
);
width = 611;
}
);
note = mu;
unicode = 00B5;
},
{
glyphname = trademark;
lastChange = "2017-06-09 11:44:12 +0000";
layers = (
{
layerId = "FDC62533-83BB-4EB8-8B15-51662AB4ACD2";
paths = (
{
closed = 1;
nodes = (
"332 304 LINE",
"288 308 OFFCURVE",
"282 315 OFFCURVE",
"282 343 CURVE SMOOTH",
"282 668 LINE",
"331 668 LINE SMOOTH",
"367 668 OFFCURVE",
"387 654 OFFCURVE",
"403 598 CURVE",
"421 598 LINE",
"421 688 LINE",
"82 688 LINE",
"82 598 LINE",
"100 598 LINE",
"116 654 OFFCURVE",
"136 668 OFFCURVE",
"172 668 CURVE SMOOTH",
"220 668 LINE",
"220 343 LINE SMOOTH",
"220 315 OFFCURVE",
"214 308 OFFCURVE",
"170 304 CURVE",
"170 284 LINE",
"332 284 LINE"
);
},
{
closed = 1;
nodes = (
"723 284 LINE",
"878 595 LINE",
"880 595 LINE",
"880 343 LINE SMOOTH",
"880 315 OFFCURVE",
"874 308 OFFCURVE",
"830 304 CURVE",
"830 284 LINE",
"993 284 LINE",
"993 304 LINE",
"949 308 OFFCURVE",
"942 315 OFFCURVE",
"942 343 CURVE SMOOTH",
"942 610 LINE SMOOTH",
"942 645 OFFCURVE",
"956 665 OFFCURVE",
"1000 667 CURVE",
"1000 688 LINE",
"902 688 LINE",
"738 373 LINE",
"581 688 LINE",
"466 688 LINE",
"466 667 LINE",
"495 667 OFFCURVE",
"524 647 OFFCURVE",
"536 617 CURVE",
"536 368 LINE SMOOTH",
"536 323 OFFCURVE",
"523 308 OFFCURVE",
"482 304 CURVE",
"482 284 LINE",
"612 284 LINE",
"612 304 LINE",
"571 308 OFFCURVE",
"558 323 OFFCURVE",
"558 368 CURVE SMOOTH",
"558 592 LINE",
"562 592 LINE",
"714 284 LINE"
);
}
);
width = 990;
}
);
note = trademark;
unicode = 2122;
},
{
glyphname = Eth;
lastChange = "2017-06-09 11:44:12 +0000";
layers = (
{
layerId = "FDC62533-83BB-4EB8-8B15-51662AB4ACD2";
paths = (
{
closed = 1;
nodes = (
"68 359 LINE",
"153 359 LINE",
"100 153 LINE SMOOTH",
"78 69 OFFCURVE",
"61 37 OFFCURVE",
"-33 30 CURVE",
"-40 0 LINE",
"287 0 LINE SMOOTH",
"608 0 OFFCURVE",
"699 278 OFFCURVE",
"699 417 CURVE SMOOTH",
"699 517 OFFCURVE",
"650 688 OFFCURVE",
"471 688 CURVE SMOOTH",
"144 688 LINE",
"136 658 LINE",
"200 658 OFFCURVE",
"218 646 OFFCURVE",
"218 616 CURVE SMOOTH",
"218 602 OFFCURVE",
"202 548 OFFCURVE",
"190 502 CURVE SMOOTH",
"164 401 LINE",
"80 401 LINE"
);
},
{
closed = 1;
nodes = (
"330 637 OFFCURVE",
"360 658 OFFCURVE",
"434 658 CURVE SMOOTH",
"537 658 OFFCURVE",
"589 620 OFFCURVE",
"589 486 CURVE SMOOTH",
"589 370 OFFCURVE",
"541 180 OFFCURVE",
"474 108 CURVE SMOOTH",
"422 52 OFFCURVE",
"362 30 OFFCURVE",
"278 30 CURVE SMOOTH",
"206 30 OFFCURVE",
"186 46 OFFCURVE",
"186 82 CURVE SMOOTH",
"186 98 OFFCURVE",
"205 168 OFFCURVE",
"217 212 CURVE SMOOTH",
"256 359 LINE",
"448 359 LINE",
"460 401 LINE",
"267 401 LINE",
"313 573 LINE SMOOTH"
);
}
);
width = 722;
}
);
note = Eth;
unicode = 00D0;
},
{
glyphname = onehalf;
lastChange = "2017-06-09 11:44:12 +0000";
layers = (
{
layerId = "FDC62533-83BB-4EB8-8B15-51662AB4ACD2";
paths = (
{
closed = 1;
nodes = (
"282 302 LINE",
"224 302 OFFCURVE",
"210 310 OFFCURVE",
"210 333 CURVE SMOOTH",
"210 344 OFFCURVE",
"304 665 OFFCURVE",
"313 693 CURVE",
"292 693 LINE",
"248 667 OFFCURVE",
"209 655 OFFCURVE",
"161 652 CURVE",
"157 630 LINE",
"232 630 LINE",
"206 537 OFFCURVE",
"174 440 OFFCURVE",
"148 342 CURVE SMOOTH",
"141 317 OFFCURVE",
"124 305 OFFCURVE",
"59 302 CURVE",
"55 280 LINE",
"278 280 LINE"
);
},
{
closed = 1;
nodes = (
"624 700 LINE",
"178 -12 LINE",
"233 -12 LINE",
"679 700 LINE"
);
},
{
closed = 1;
nodes = (
"642 308 OFFCURVE",
"609 258 OFFCURVE",
"571 258 CURVE SMOOTH",
"549 258 OFFCURVE",
"540 267 OFFCURVE",
"540 288 CURVE SMOOTH",
"540 349 OFFCURVE",
"596 398 OFFCURVE",
"659 398 CURVE SMOOTH",
"713 398 OFFCURVE",
"734 375 OFFCURVE",
"734 341 CURVE SMOOTH",
"734 283 OFFCURVE",
"701 232 OFFCURVE",
"621 186 CURVE SMOOTH",
"451 88 OFFCURVE",
"433 45 OFFCURVE",
"433 23 CURVE SMOOTH",
"433 4 OFFCURVE",
"441 -4 OFFCURVE",
"459 -4 CURVE SMOOTH",
"477 -4 OFFCURVE",
"487 4 OFFCURVE",
"487 15 CURVE SMOOTH",
"487 27 OFFCURVE",
"480 35 OFFCURVE",
"480 44 CURVE SMOOTH",
"480 52 OFFCURVE",
"486 56 OFFCURVE",
"497 56 CURVE SMOOTH",
"514 56 OFFCURVE",
"525 52 OFFCURVE",
"559 21 CURVE SMOOTH",
"576 6 OFFCURVE",
"598 -7 OFFCURVE",
"636 -7 CURVE SMOOTH",
"697 -7 OFFCURVE",
"741 51 OFFCURVE",
"769 130 CURVE",
"751 133 LINE",
"735 98 OFFCURVE",
"714 51 OFFCURVE",
"667 51 CURVE SMOOTH",
"644 51 OFFCURVE",
"624 60 OFFCURVE",
"605 70 CURVE SMOOTH",
"586 80 OFFCURVE",
"567 89 OFFCURVE",
"544 89 CURVE SMOOTH",
"519 89 OFFCURVE",
"501 76 OFFCURVE",
"486 66 CURVE",
"483 67 OFFCURVE",
"486 66 OFFCURVE",
"483 67 CURVE",
"594 177 OFFCURVE",
"802 198 OFFCURVE",
"802 322 CURVE SMOOTH",
"802 374 OFFCURVE",
"766 420 OFFCURVE",
"667 420 CURVE SMOOTH",
"586 420 OFFCURVE",
"512 359 OFFCURVE",
"512 291 CURVE SMOOTH",
"512 260 OFFCURVE",
"534 236 OFFCURVE",
"570 236 CURVE SMOOTH",
"619 236 OFFCURVE",
"661 282 OFFCURVE",
"669 337 CURVE",
"645 343 LINE"
);
}
);
width = 834;
}
);
note = onehalf;
unicode = 00BD;
},
{
glyphname = plusminus;
lastChange = "2017-06-09 11:44:12 +0000";
layers = (
{
layerId = "FDC62533-83BB-4EB8-8B15-51662AB4ACD2";
paths = (
{
closed = 1;
nodes = (
"44 307 LINE",
"44 253 LINE",
"252 253 LINE",
"252 90 LINE",
"306 90 LINE",
"306 253 LINE",
"514 253 LINE",
"514 307 LINE",
"306 307 LINE",
"306 470 LINE",
"252 470 LINE",
"252 307 LINE"
);
},
{
closed = 1;
nodes = (
"514 0 LINE",
"514 54 LINE",
"44 54 LINE",
"44 0 LINE"
);
}
);
width = 600;
}
);
note = plusminus;
unicode = 00B1;
},
{
glyphname = Thorn;
lastChange = "2017-06-09 11:44:12 +0000";
layers = (
{
layerId = "FDC62533-83BB-4EB8-8B15-51662AB4ACD2";
paths = (
{
closed = 1;
nodes = (
"52 41 OFFCURVE",
"28 26 OFFCURVE",
"-42 30 CURVE",
"-52 0 LINE",
"246 0 LINE",
"254 30 LINE",
"184 26 OFFCURVE",
"164 42 OFFCURVE",
"164 72 CURVE SMOOTH",
"164 94 OFFCURVE",
"178 142 OFFCURVE",
"191 191 CURVE",
"220 190 OFFCURVE",
"250 189 OFFCURVE",
"278 189 CURVE SMOOTH",
"498 189 OFFCURVE",
"596 266 OFFCURVE",
"596 392 CURVE SMOOTH",
"596 506 OFFCURVE",
"536 559 OFFCURVE",
"382 559 CURVE SMOOTH",
"330 559 OFFCURVE",
"303 558 OFFCURVE",
"287 557 CURVE",
"295 589 LINE SMOOTH",
"307 636 OFFCURVE",
"326 658 OFFCURVE",
"410 658 CURVE",
"414 688 LINE",
"125 688 LINE",
"117 658 LINE",
"184 658 OFFCURVE",
"197 638 OFFCURVE",
"197 618 CURVE SMOOTH",
"197 596 OFFCURVE",
"184 546 OFFCURVE",
"170 494 CURVE SMOOTH",
"69 105 LINE SMOOTH"
);
},
{
closed = 1;
nodes = (
"291 520 OFFCURVE",
"328 529 OFFCURVE",
"374 529 CURVE SMOOTH",
"451 529 OFFCURVE",
"486 495 OFFCURVE",
"486 425 CURVE SMOOTH",
"486 278 OFFCURVE",
"446 225 OFFCURVE",
"262 225 CURVE SMOOTH",
"240 225 OFFCURVE",
"215 227 OFFCURVE",
"201 227 CURVE",
"271 496 LINE"
);
}
);
width = 611;
}
);
note = Thorn;
unicode = 00DE;
},
{
glyphname = onequarter;
lastChange = "2017-06-09 11:44:12 +0000";
layers = (
{
layerId = "FDC62533-83BB-4EB8-8B15-51662AB4ACD2";
paths = (
{
closed = 1;
nodes = (
"746 132 OFFCURVE",
"723 114 OFFCURVE",
"690 114 CURVE",
"746 310 LINE",
"683 310 LINE",
"627 114 LINE",
"614 114 OFFCURVE",
"577 134 OFFCURVE",
"514 146 CURVE",
"564 205 OFFCURVE",
"652 333 OFFCURVE",
"662 412 CURVE",
"593 412 LINE",
"573 311 OFFCURVE",
"543 229 OFFCURVE",
"494 148 CURVE",
"484 150 OFFCURVE",
"474 152 OFFCURVE",
"461 152 CURVE SMOOTH",
"425 152 OFFCURVE",
"413 139 OFFCURVE",
"413 125 CURVE SMOOTH",
"413 112 OFFCURVE",
"424 104 OFFCURVE",
"438 104 CURVE SMOOTH",
"459 104 OFFCURVE",
"481 122 OFFCURVE",
"500 132 CURVE",
"535 118 OFFCURVE",
"553 100 OFFCURVE",
"586 84 CURVE",
"594 79 OFFCURVE",
"606 78 OFFCURVE",
"618 78 CURVE",
"587 -34 LINE",
"649 -34 LINE",
"681 78 LINE",
"719 87 OFFCURVE",
"751 106 OFFCURVE",
"775 142 CURVE",
"764 153 LINE"
);
},
{
closed = 1;
nodes = (
"282 302 LINE",
"224 302 OFFCURVE",
"210 310 OFFCURVE",
"210 333 CURVE SMOOTH",
"210 344 OFFCURVE",
"304 665 OFFCURVE",
"313 693 CURVE",
"292 693 LINE",
"248 667 OFFCURVE",
"209 655 OFFCURVE",
"161 652 CURVE",
"157 630 LINE",
"232 630 LINE",
"206 537 OFFCURVE",
"174 440 OFFCURVE",
"148 342 CURVE SMOOTH",
"141 317 OFFCURVE",
"124 305 OFFCURVE",
"59 302 CURVE",
"55 280 LINE",
"278 280 LINE"
);
},
{
closed = 1;
nodes = (
"624 700 LINE",
"178 -12 LINE",
"233 -12 LINE",
"679 700 LINE"
);
}
);
width = 834;
}
);
note = onequarter;
unicode = 00BC;
},
{
glyphname = divide;
lastChange = "2017-06-09 11:44:12 +0000";
layers = (
{
layerId = "FDC62533-83BB-4EB8-8B15-51662AB4ACD2";
paths = (
{
closed = 1;
nodes = (
"514 262 LINE",
"44 262 LINE",
"44 208 LINE",
"514 208 LINE"
);
},
{
closed = 1;
nodes = (
"223 13 OFFCURVE",
"248 -12 OFFCURVE",
"279 -12 CURVE SMOOTH",
"310 -12 OFFCURVE",
"335 13 OFFCURVE",
"335 44 CURVE SMOOTH",
"335 75 OFFCURVE",
"310 100 OFFCURVE",
"279 100 CURVE SMOOTH",
"248 100 OFFCURVE",
"223 75 OFFCURVE",
"223 44 CURVE SMOOTH"
);
},
{
closed = 1;
nodes = (
"223 395 OFFCURVE",
"248 370 OFFCURVE",
"279 370 CURVE SMOOTH",
"310 370 OFFCURVE",
"335 395 OFFCURVE",
"335 426 CURVE SMOOTH",
"335 457 OFFCURVE",
"310 482 OFFCURVE",
"279 482 CURVE SMOOTH",
"248 482 OFFCURVE",
"223 457 OFFCURVE",
"223 426 CURVE SMOOTH"
);
}
);
width = 600;
}
);
note = divide;
unicode = 00F7;
},
{
glyphname = brokenbar;
lastChange = "2017-06-09 11:44:12 +0000";
layers = (
{
layerId = "FDC62533-83BB-4EB8-8B15-51662AB4ACD2";
paths = (
{
closed = 1;
nodes = (
"148 0 LINE",
"148 253 LINE",
"94 253 LINE",
"94 0 LINE"
);
},
{
closed = 1;
nodes = (
"148 423 LINE",
"148 676 LINE",
"94 676 LINE",
"94 423 LINE"
);
}
);
width = 222;
}
);
note = brokenbar;
unicode = 00A6;
},
{
glyphname = degree;
lastChange = "2017-06-09 11:44:12 +0000";
layers = (
{
layerId = "FDC62533-83BB-4EB8-8B15-51662AB4ACD2";
paths = (
{
closed = 1;
nodes = (
"119 614 OFFCURVE",
"164 664 OFFCURVE",
"220 664 CURVE SMOOTH",
"276 664 OFFCURVE",
"321 614 OFFCURVE",
"321 557 CURVE SMOOTH",
"321 500 OFFCURVE",
"276 450 OFFCURVE",
"221 450 CURVE SMOOTH",
"164 450 OFFCURVE",
"119 500 OFFCURVE",
"119 557 CURVE SMOOTH"
);
},
{
closed = 1;
nodes = (
"77 477 OFFCURVE",
"140 414 OFFCURVE",
"220 414 CURVE SMOOTH",
"300 414 OFFCURVE",
"363 477 OFFCURVE",
"363 557 CURVE SMOOTH",
"363 637 OFFCURVE",
"300 700 OFFCURVE",
"220 700 CURVE SMOOTH",
"140 700 OFFCURVE",
"77 637 OFFCURVE",
"77 557 CURVE SMOOTH"
);
}
);
width = 400;
}
);
note = degree;
unicode = 00B0;
},
{
glyphname = thorn;
lastChange = "2017-06-09 11:44:12 +0000";
layers = (
{
layerId = "FDC62533-83BB-4EB8-8B15-51662AB4ACD2";
paths = (
{
closed = 1;
nodes = (
"206 -148 LINE",
"129 -148 OFFCURVE",
"122 -142 OFFCURVE",
"122 -121 CURVE SMOOTH",
"122 -81 OFFCURVE",
"144 -16 OFFCURVE",
"166 88 CURVE",
"168 88 LINE",
"171 30 OFFCURVE",
"206 -12 OFFCURVE",
"261 -12 CURVE SMOOTH",
"380 -12 OFFCURVE",
"515 142 OFFCURVE",
"515 284 CURVE SMOOTH",
"515 404 OFFCURVE",
"450 482 OFFCURVE",
"373 482 CURVE SMOOTH",
"296 482 OFFCURVE",
"247 404 OFFCURVE",
"224 340 CURVE",
"222 342 LINE",
"313 676 LINE",
"142 672 LINE",
"136 646 LINE",
"196 645 OFFCURVE",
"208 638 OFFCURVE",
"208 614 CURVE SMOOTH",
"208 598 OFFCURVE",
"200 580 OFFCURVE",
"189 535 CURVE SMOOTH",
"54 -19 LINE SMOOTH",
"25 -138 OFFCURVE",
"20 -144 OFFCURVE",
"-73 -148 CURVE",
"-78 -178 LINE",
"200 -178 LINE"
);
},
{
closed = 1;
nodes = (
"409 452 OFFCURVE",
"429 423 OFFCURVE",
"429 351 CURVE SMOOTH",
"429 267 OFFCURVE",
"378 18 OFFCURVE",
"260 18 CURVE SMOOTH",
"219 18 OFFCURVE",
"192 45 OFFCURVE",
"192 124 CURVE SMOOTH",
"192 250 OFFCURVE",
"287 452 OFFCURVE",
"363 452 CURVE SMOOTH"
);
}
);
width = 556;
}
);
note = thorn;
unicode = 00FE;
},
{
glyphname = threequarters;
lastChange = "2017-06-09 11:44:12 +0000";
layers = (
{
layerId = "FDC62533-83BB-4EB8-8B15-51662AB4ACD2";
paths = (
{
closed = 1;
nodes = (
"746 132 OFFCURVE",
"723 114 OFFCURVE",
"690 114 CURVE",
"746 310 LINE",
"683 310 LINE",
"627 114 LINE",
"614 114 OFFCURVE",
"577 134 OFFCURVE",
"514 146 CURVE",
"564 205 OFFCURVE",
"652 333 OFFCURVE",
"662 412 CURVE",
"593 412 LINE",
"573 311 OFFCURVE",
"543 229 OFFCURVE",
"494 148 CURVE",
"484 150 OFFCURVE",
"474 152 OFFCURVE",
"461 152 CURVE SMOOTH",
"425 152 OFFCURVE",
"413 139 OFFCURVE",
"413 125 CURVE SMOOTH",
"413 112 OFFCURVE",
"424 104 OFFCURVE",
"438 104 CURVE SMOOTH",
"459 104 OFFCURVE",
"481 122 OFFCURVE",
"500 132 CURVE",
"535 118 OFFCURVE",
"553 100 OFFCURVE",
"586 84 CURVE",
"594 79 OFFCURVE",
"606 78 OFFCURVE",
"618 78 CURVE",
"587 -34 LINE",
"649 -34 LINE",
"681 78 LINE",
"719 87 OFFCURVE",
"751 106 OFFCURVE",
"775 142 CURVE",
"764 153 LINE"
);
},
{
closed = 1;
nodes = (
"220 568 OFFCURVE",
"191 555 OFFCURVE",
"164 555 CURVE SMOOTH",
"147 555 OFFCURVE",
"137 567 OFFCURVE",
"137 587 CURVE SMOOTH",
"137 638 OFFCURVE",
"190 678 OFFCURVE",
"246 678 CURVE SMOOTH",
"286 678 OFFCURVE",
"310 655 OFFCURVE",
"310 618 CURVE SMOOTH",
"310 542 OFFCURVE",
"262 495 OFFCURVE",
"234 495 CURVE SMOOTH",
"226 495 OFFCURVE",
"210 498 OFFCURVE",
"195 498 CURVE SMOOTH",
"174 498 OFFCURVE",
"168 494 OFFCURVE",
"168 487 CURVE SMOOTH",
"168 479 OFFCURVE",
"172 476 OFFCURVE",
"188 476 CURVE SMOOTH",
"207 476 OFFCURVE",
"229 480 OFFCURVE",
"238 480 CURVE SMOOTH",
"249 480 OFFCURVE",
"272 462 OFFCURVE",
"272 425 CURVE SMOOTH",
"272 351 OFFCURVE",
"216 295 OFFCURVE",
"144 295 CURVE SMOOTH",
"87 295 OFFCURVE",
"55 322 OFFCURVE",
"55 344 CURVE SMOOTH",
"55 351 OFFCURVE",
"57 353 OFFCURVE",
"60 353 CURVE SMOOTH",
"66 353 OFFCURVE",
"71 348 OFFCURVE",
"86 348 CURVE SMOOTH",
"101 348 OFFCURVE",
"120 361 OFFCURVE",
"120 384 CURVE SMOOTH",
"120 405 OFFCURVE",
"107 416 OFFCURVE",
"83 416 CURVE SMOOTH",
"52 416 OFFCURVE",
"27 397 OFFCURVE",
"27 359 CURVE SMOOTH",
"27 308 OFFCURVE",
"73 273 OFFCURVE",
"146 273 CURVE SMOOTH",
"266 273 OFFCURVE",
"340 330 OFFCURVE",
"340 400 CURVE SMOOTH",
"340 480 OFFCURVE",
"261 483 OFFCURVE",
"261 489 CURVE SMOOTH",
"261 494 OFFCURVE",
"382 506 OFFCURVE",
"382 607 CURVE SMOOTH",
"382 655 OFFCURVE",
"338 700 OFFCURVE",
"258 700 CURVE SMOOTH",
"178 700 OFFCURVE",
"109 648 OFFCURVE",
"109 584 CURVE SMOOTH",
"109 554 OFFCURVE",
"128 533 OFFCURVE",
"161 533 CURVE SMOOTH",
"213 533 OFFCURVE",
"247 572 OFFCURVE",
"261 617 CURVE",
"240 623 LINE"
);
},
{
closed = 1;
nodes = (
"624 700 LINE",
"178 -12 LINE",
"233 -12 LINE",
"679 700 LINE"
);
}
);
width = 834;
}
);
note = threequarters;
unicode = 00BE;
},
{
glyphname = twosuperior;
lastChange = "2017-06-09 11:44:12 +0000";
layers = (
{
layerId = "FDC62533-83BB-4EB8-8B15-51662AB4ACD2";
paths = (
{
closed = 1;
nodes = (
"221 588 OFFCURVE",
"188 538 OFFCURVE",
"150 538 CURVE SMOOTH",
"128 538 OFFCURVE",
"119 547 OFFCURVE",
"119 568 CURVE SMOOTH",
"119 629 OFFCURVE",
"175 678 OFFCURVE",
"238 678 CURVE SMOOTH",
"292 678 OFFCURVE",
"313 655 OFFCURVE",
"313 621 CURVE SMOOTH",
"313 563 OFFCURVE",
"280 512 OFFCURVE",
"200 466 CURVE SMOOTH",
"30 368 OFFCURVE",
"12 325 OFFCURVE",
"12 303 CURVE SMOOTH",
"12 284 OFFCURVE",
"20 276 OFFCURVE",
"38 276 CURVE SMOOTH",
"56 276 OFFCURVE",
"66 284 OFFCURVE",
"66 295 CURVE SMOOTH",
"66 307 OFFCURVE",
"59 315 OFFCURVE",
"59 324 CURVE SMOOTH",
"59 332 OFFCURVE",
"65 336 OFFCURVE",
"76 336 CURVE SMOOTH",
"93 336 OFFCURVE",
"104 332 OFFCURVE",
"138 301 CURVE SMOOTH",
"155 286 OFFCURVE",
"177 273 OFFCURVE",
"215 273 CURVE SMOOTH",
"276 273 OFFCURVE",
"320 331 OFFCURVE",
"348 410 CURVE",
"330 413 LINE",
"314 378 OFFCURVE",
"293 331 OFFCURVE",
"246 331 CURVE SMOOTH",
"223 331 OFFCURVE",
"203 340 OFFCURVE",
"184 350 CURVE SMOOTH",
"165 360 OFFCURVE",
"146 369 OFFCURVE",
"123 369 CURVE SMOOTH",
"98 369 OFFCURVE",
"80 356 OFFCURVE",
"65 346 CURVE",
"62 347 OFFCURVE",
"65 346 OFFCURVE",
"62 347 CURVE",
"173 457 OFFCURVE",
"381 478 OFFCURVE",
"381 602 CURVE SMOOTH",
"381 654 OFFCURVE",
"345 700 OFFCURVE",
"246 700 CURVE SMOOTH",
"165 700 OFFCURVE",
"91 639 OFFCURVE",
"91 571 CURVE SMOOTH",
"91 540 OFFCURVE",
"113 516 OFFCURVE",
"149 516 CURVE SMOOTH",
"198 516 OFFCURVE",
"240 562 OFFCURVE",
"248 617 CURVE",
"224 623 LINE"
);
}
);
width = 333;
}
);
note = twosuperior;
unicode = 00B2;
},
{
glyphname = registered;
lastChange = "2017-06-09 11:44:12 +0000";
layers = (
{
layerId = "FDC62533-83BB-4EB8-8B15-51662AB4ACD2";
paths = (
{
closed = 1;
nodes = (
"387 176 LINE",
"340 180 OFFCURVE",
"335 186 OFFCURVE",
"335 213 CURVE SMOOTH",
"335 325 LINE",
"392 325 LINE",
"482 181 OFFCURVE",
"497 158 OFFCURVE",
"522 158 CURVE SMOOTH",
"584 158 LINE",
"584 168 LINE",
"563 181 OFFCURVE",
"529 218 OFFCURVE",
"501 256 CURVE SMOOTH",
"440 337 LINE",
"488 353 OFFCURVE",
"525 391 OFFCURVE",
"525 445 CURVE SMOOTH",
"525 499 OFFCURVE",
"481 539 OFFCURVE",
"403 539 CURVE SMOOTH",
"221 539 LINE",
"221 521 LINE",
"268 517 OFFCURVE",
"273 511 OFFCURVE",
"273 484 CURVE SMOOTH",
"273 213 LINE SMOOTH",
"273 186 OFFCURVE",
"268 180 OFFCURVE",
"221 176 CURVE",
"221 158 LINE",
"387 158 LINE"
);
},
{
closed = 1;
nodes = (
"382 517 LINE SMOOTH",
"433 517 OFFCURVE",
"463 493 OFFCURVE",
"463 439 CURVE SMOOTH",
"463 382 OFFCURVE",
"437 347 OFFCURVE",
"380 347 CURVE SMOOTH",
"335 347 LINE",
"335 517 LINE"
);
},
{
closed = 1;
nodes = (
"196 700 OFFCURVE",
"39 538 OFFCURVE",
"39 344 CURVE SMOOTH",
"39 150 OFFCURVE",
"196 -12 OFFCURVE",
"389 -12 CURVE SMOOTH",
"582 -12 OFFCURVE",
"739 150 OFFCURVE",
"739 344 CURVE SMOOTH",
"739 538 OFFCURVE",
"582 700 OFFCURVE",
"389 700 CURVE SMOOTH"
);
},
{
closed = 1;
nodes = (
"229 30 OFFCURVE",
"93 174 OFFCURVE",
"93 344 CURVE SMOOTH",
"93 514 OFFCURVE",
"229 658 OFFCURVE",
"389 658 CURVE SMOOTH",
"549 658 OFFCURVE",
"685 514 OFFCURVE",
"685 344 CURVE SMOOTH",
"685 174 OFFCURVE",
"549 30 OFFCURVE",
"389 30 CURVE SMOOTH"
);
}
);
width = 800;
}
);
note = registered;
unicode = 00AE;
},
{
glyphname = minus;
lastChange = "2017-06-09 11:44:12 +0000";
layers = (
{
layerId = "FDC62533-83BB-4EB8-8B15-51662AB4ACD2";
paths = (
{
closed = 1;
nodes = (
"514 262 LINE",
"44 262 LINE",
"44 208 LINE",
"514 208 LINE"
);
}
);
width = 600;
}
);
note = minus;
unicode = 2212;
},
{
glyphname = eth;
lastChange = "2017-06-09 11:44:12 +0000";
layers = (
{
layerId = "FDC62533-83BB-4EB8-8B15-51662AB4ACD2";
paths = (
{
closed = 1;
nodes = (
"341 444 OFFCURVE",
"370 409 OFFCURVE",
"370 346 CURVE SMOOTH",
"370 254 OFFCURVE",
"318 18 OFFCURVE",
"188 18 CURVE SMOOTH",
"135 18 OFFCURVE",
"102 57 OFFCURVE",
"102 124 CURVE SMOOTH",
"102 208 OFFCURVE",
"158 444 OFFCURVE",
"284 444 CURVE SMOOTH"
);
},
{
closed = 1;
nodes = (
"369 566 OFFCURVE",
"385 509 OFFCURVE",
"385 435 CURVE",
"359 460 OFFCURVE",
"325 474 OFFCURVE",
"284 474 CURVE SMOOTH",
"154 474 OFFCURVE",
"24 346 OFFCURVE",
"24 195 CURVE SMOOTH",
"24 82 OFFCURVE",
"82 -12 OFFCURVE",
"188 -12 CURVE SMOOTH",
"338 -12 OFFCURVE",
"462 116 OFFCURVE",
"462 404 CURVE SMOOTH",
"462 500 OFFCURVE",
"439 580 OFFCURVE",
"377 633 CURVE",
"472 691 LINE",
"445 718 LINE",
"345 657 LINE",
"312 677 OFFCURVE",
"269 693 OFFCURVE",
"216 700 CURVE",
"200 674 LINE",
"242 664 OFFCURVE",
"275 650 OFFCURVE",
"302 631 CURVE",
"202 570 LINE",
"229 543 LINE",
"331 605 LINE"
);
}
);
width = 500;
}
);
note = eth;
unicode = 00F0;
},
{
glyphname = multiply;
lastChange = "2017-06-09 11:44:12 +0000";
layers = (
{
layerId = "FDC62533-83BB-4EB8-8B15-51662AB4ACD2";
paths = (
{
closed = 1;
nodes = (
"44 38 LINE",
"82 0 LINE",
"279 197 LINE",
"476 0 LINE",
"514 38 LINE",
"317 235 LINE",
"514 432 LINE",
"476 470 LINE",
"279 273 LINE",
"82 470 LINE",
"44 432 LINE",
"241 235 LINE"
);
}
);
width = 600;
}
);
note = multiply;
unicode = 00D7;
},
{
glyphname = threesuperior;
lastChange = "2017-06-09 11:44:12 +0000";
layers = (
{
layerId = "FDC62533-83BB-4EB8-8B15-51662AB4ACD2";
paths = (
{
closed = 1;
nodes = (
"220 568 OFFCURVE",
"191 555 OFFCURVE",
"164 555 CURVE SMOOTH",
"147 555 OFFCURVE",
"137 567 OFFCURVE",
"137 587 CURVE SMOOTH",
"137 638 OFFCURVE",
"190 678 OFFCURVE",
"246 678 CURVE SMOOTH",
"286 678 OFFCURVE",
"310 655 OFFCURVE",
"310 618 CURVE SMOOTH",
"310 542 OFFCURVE",
"262 495 OFFCURVE",
"234 495 CURVE SMOOTH",
"226 495 OFFCURVE",
"210 498 OFFCURVE",
"195 498 CURVE SMOOTH",
"174 498 OFFCURVE",
"168 494 OFFCURVE",
"168 487 CURVE SMOOTH",
"168 479 OFFCURVE",
"172 476 OFFCURVE",
"188 476 CURVE SMOOTH",
"207 476 OFFCURVE",
"229 480 OFFCURVE",
"238 480 CURVE SMOOTH",
"249 480 OFFCURVE",
"272 462 OFFCURVE",
"272 425 CURVE SMOOTH",
"272 351 OFFCURVE",
"216 295 OFFCURVE",
"144 295 CURVE SMOOTH",
"87 295 OFFCURVE",
"55 322 OFFCURVE",
"55 344 CURVE SMOOTH",
"55 351 OFFCURVE",
"57 353 OFFCURVE",
"60 353 CURVE SMOOTH",
"66 353 OFFCURVE",
"71 348 OFFCURVE",
"86 348 CURVE SMOOTH",
"101 348 OFFCURVE",
"120 361 OFFCURVE",
"120 384 CURVE SMOOTH",
"120 405 OFFCURVE",
"107 416 OFFCURVE",
"83 416 CURVE SMOOTH",
"52 416 OFFCURVE",
"27 397 OFFCURVE",
"27 359 CURVE SMOOTH",
"27 308 OFFCURVE",
"73 273 OFFCURVE",
"146 273 CURVE SMOOTH",
"266 273 OFFCURVE",
"340 330 OFFCURVE",
"340 400 CURVE SMOOTH",
"340 480 OFFCURVE",
"261 483 OFFCURVE",
"261 489 CURVE SMOOTH",
"261 494 OFFCURVE",
"382 506 OFFCURVE",
"382 607 CURVE SMOOTH",
"382 655 OFFCURVE",
"338 700 OFFCURVE",
"258 700 CURVE SMOOTH",
"178 700 OFFCURVE",
"109 648 OFFCURVE",
"109 584 CURVE SMOOTH",
"109 554 OFFCURVE",
"128 533 OFFCURVE",
"161 533 CURVE SMOOTH",
"213 533 OFFCURVE",
"247 572 OFFCURVE",
"261 617 CURVE",
"240 623 LINE"
);
}
);
width = 333;
}
);
note = threesuperior;
unicode = 00B3;
},
{
glyphname = copyright;
lastChange = "2017-06-09 11:44:12 +0000";
layers = (
{
layerId = "FDC62533-83BB-4EB8-8B15-51662AB4ACD2";
paths = (
{
closed = 1;
nodes = (
"196 700 OFFCURVE",
"39 538 OFFCURVE",
"39 344 CURVE SMOOTH",
"39 150 OFFCURVE",
"196 -12 OFFCURVE",
"389 -12 CURVE SMOOTH",
"582 -12 OFFCURVE",
"739 150 OFFCURVE",
"739 344 CURVE SMOOTH",
"739 538 OFFCURVE",
"582 700 OFFCURVE",
"389 700 CURVE SMOOTH"
);
},
{
closed = 1;
nodes = (
"229 30 OFFCURVE",
"93 174 OFFCURVE",
"93 344 CURVE SMOOTH",
"93 514 OFFCURVE",
"229 658 OFFCURVE",
"389 658 CURVE SMOOTH",
"549 658 OFFCURVE",
"685 514 OFFCURVE",
"685 344 CURVE SMOOTH",
"685 174 OFFCURVE",
"549 30 OFFCURVE",
"389 30 CURVE SMOOTH"
);
},
{
closed = 1;
nodes = (
"528 210 OFFCURVE",
"492 174 OFFCURVE",
"413 174 CURVE SMOOTH",
"311 174 OFFCURVE",
"262 248 OFFCURVE",
"262 350 CURVE SMOOTH",
"262 452 OFFCURVE",
"311 526 OFFCURVE",
"413 526 CURVE SMOOTH",
"497 526 OFFCURVE",
"525 484 OFFCURVE",
"529 438 CURVE",
"545 438 LINE",
"545 510 LINE SMOOTH",
"545 519 OFFCURVE",
"538 527 OFFCURVE",
"523 532 CURVE SMOOTH",
"496 541 OFFCURVE",
"471 552 OFFCURVE",
"413 552 CURVE SMOOTH",
"295 552 OFFCURVE",
"194 494 OFFCURVE",
"194 350 CURVE SMOOTH",
"194 206 OFFCURVE",
"295 148 OFFCURVE",
"413 148 CURVE SMOOTH",
"459 148 OFFCURVE",
"498 158 OFFCURVE",
"519 165 CURVE SMOOTH",
"535 170 OFFCURVE",
"542 174 OFFCURVE",
"545 185 CURVE SMOOTH",
"562 255 LINE",
"546 255 LINE"
);
}
);
width = 800;
}
);
note = copyright;
unicode = 00A9;
},
{
glyphname = Aacute;
lastChange = "2017-06-09 11:44:12 +0000";
layers = (
{
layerId = "FDC62533-83BB-4EB8-8B15-51662AB4ACD2";
paths = (
{
closed = 1;
nodes = (
"199 30 LINE",
"123 33 OFFCURVE",
"109 48 OFFCURVE",
"109 66 CURVE SMOOTH",
"109 94 OFFCURVE",
"175 198 OFFCURVE",
"193 234 CURVE",
"426 234 LINE",
"438 144 OFFCURVE",
"448 106 OFFCURVE",
"448 89 CURVE SMOOTH",
"448 53 OFFCURVE",
"433 39 OFFCURVE",
"343 30 CURVE",
"337 0 LINE",
"625 0 LINE",
"631 30 LINE",
"565 35 OFFCURVE",
"554 45 OFFCURVE",
"545 103 CURVE SMOOTH",
"457 688 LINE",
"414 688 LINE",
"112 165 LINE SMOOTH",
"74 100 OFFCURVE",
"26 42 OFFCURVE",
"-63 30 CURVE",
"-70 0 LINE",
"193 0 LINE"
);
},
{
closed = 1;
nodes = (
"384 563 LINE",
"421 270 LINE",
"218 270 LINE",
"382 563 LINE"
);
},
{
closed = 1;
nodes = (
"411 716 LINE",
"581 822 LINE SMOOTH",
"593 830 OFFCURVE",
"599 835 OFFCURVE",
"599 851 CURVE SMOOTH",
"599 875 OFFCURVE",
"583 888 OFFCURVE",
"563 888 CURVE SMOOTH",
"549 888 OFFCURVE",
"546 883 OFFCURVE",
"515 853 CURVE SMOOTH",
"376 716 LINE"
);
}
);
width = 667;
}
);
leftKerningGroup = A;
note = Aacute;
rightKerningGroup = A;
unicode = 00C1;
},
{
glyphname = Acircumflex;
lastChange = "2017-06-09 11:44:12 +0000";
layers = (
{
layerId = "FDC62533-83BB-4EB8-8B15-51662AB4ACD2";
paths = (
{
closed = 1;
nodes = (
"199 30 LINE",
"123 33 OFFCURVE",
"109 48 OFFCURVE",
"109 66 CURVE SMOOTH",
"109 94 OFFCURVE",
"175 198 OFFCURVE",
"193 234 CURVE",
"426 234 LINE",
"438 144 OFFCURVE",
"448 106 OFFCURVE",
"448 89 CURVE SMOOTH",
"448 53 OFFCURVE",
"433 39 OFFCURVE",
"343 30 CURVE",
"337 0 LINE",
"625 0 LINE",
"631 30 LINE",
"565 35 OFFCURVE",
"554 45 OFFCURVE",
"545 103 CURVE SMOOTH",
"457 688 LINE",
"414 688 LINE",
"112 165 LINE SMOOTH",
"74 100 OFFCURVE",
"26 42 OFFCURVE",
"-63 30 CURVE",
"-70 0 LINE",
"193 0 LINE"
);
},
{
closed = 1;
nodes = (
"384 563 LINE",
"421 270 LINE",
"218 270 LINE",
"382 563 LINE"
);
},
{
closed = 1;
nodes = (
"281 716 LINE",
"319 716 LINE",
"457 820 LINE",
"539 716 LINE",
"575 716 LINE",
"487 884 LINE",
"438 884 LINE"
);
}
);
width = 667;
}
);
leftKerningGroup = A;
note = Acircumflex;
rightKerningGroup = A;
unicode = 00C2;
},
{
glyphname = Adieresis;
lastChange = "2017-06-09 11:44:12 +0000";
layers = (
{
layerId = "FDC62533-83BB-4EB8-8B15-51662AB4ACD2";
paths = (
{
closed = 1;
nodes = (
"199 30 LINE",
"123 33 OFFCURVE",
"109 48 OFFCURVE",
"109 66 CURVE SMOOTH",
"109 94 OFFCURVE",
"175 198 OFFCURVE",
"193 234 CURVE",
"426 234 LINE",
"438 144 OFFCURVE",
"448 106 OFFCURVE",
"448 89 CURVE SMOOTH",
"448 53 OFFCURVE",
"433 39 OFFCURVE",
"343 30 CURVE",
"337 0 LINE",
"625 0 LINE",
"631 30 LINE",
"565 35 OFFCURVE",
"554 45 OFFCURVE",
"545 103 CURVE SMOOTH",
"457 688 LINE",
"414 688 LINE",
"112 165 LINE SMOOTH",
"74 100 OFFCURVE",
"26 42 OFFCURVE",
"-63 30 CURVE",
"-70 0 LINE",
"193 0 LINE"
);
},
{
closed = 1;
nodes = (
"384 563 LINE",
"421 270 LINE",
"218 270 LINE",
"382 563 LINE"
);
},
{
closed = 1;
nodes = (
"303 753 OFFCURVE",
"324 732 OFFCURVE",
"353 732 CURVE SMOOTH",
"380 732 OFFCURVE",
"401 755 OFFCURVE",
"401 782 CURVE SMOOTH",
"401 807 OFFCURVE",
"378 830 OFFCURVE",
"353 830 CURVE SMOOTH",
"326 830 OFFCURVE",
"303 809 OFFCURVE",
"303 782 CURVE SMOOTH"
);
},
{
closed = 1;
nodes = (
"504 753 OFFCURVE",
"525 732 OFFCURVE",
"554 732 CURVE SMOOTH",
"581 732 OFFCURVE",
"602 755 OFFCURVE",
"602 782 CURVE SMOOTH",
"602 807 OFFCURVE",
"579 830 OFFCURVE",
"554 830 CURVE SMOOTH",
"527 830 OFFCURVE",
"504 809 OFFCURVE",
"504 782 CURVE SMOOTH"
);
}
);
width = 667;
}
);
leftKerningGroup = A;
note = Adieresis;
rightKerningGroup = A;
unicode = 00C4;
},
{
glyphname = Agrave;
lastChange = "2017-06-09 11:44:12 +0000";
layers = (
{
layerId = "FDC62533-83BB-4EB8-8B15-51662AB4ACD2";
paths = (
{
closed = 1;
nodes = (
"199 30 LINE",
"123 33 OFFCURVE",
"109 48 OFFCURVE",
"109 66 CURVE SMOOTH",
"109 94 OFFCURVE",
"175 198 OFFCURVE",
"193 234 CURVE",
"426 234 LINE",
"438 144 OFFCURVE",
"448 106 OFFCURVE",
"448 89 CURVE SMOOTH",
"448 53 OFFCURVE",
"433 39 OFFCURVE",
"343 30 CURVE",
"337 0 LINE",
"625 0 LINE",
"631 30 LINE",
"565 35 OFFCURVE",
"554 45 OFFCURVE",
"545 103 CURVE SMOOTH",
"457 688 LINE",
"414 688 LINE",
"112 165 LINE SMOOTH",
"74 100 OFFCURVE",
"26 42 OFFCURVE",
"-63 30 CURVE",
"-70 0 LINE",
"193 0 LINE"
);
},
{
closed = 1;
nodes = (
"384 563 LINE",
"421 270 LINE",
"218 270 LINE",
"382 563 LINE"
);
},
{
closed = 1;
nodes = (
"409 843 LINE SMOOTH",
"379 882 OFFCURVE",
"371 888 OFFCURVE",
"352 888 CURVE SMOOTH",
"333 888 OFFCURVE",
"317 874 OFFCURVE",
"317 850 CURVE SMOOTH",
"317 829 OFFCURVE",
"338 821 OFFCURVE",
"394 779 CURVE SMOOTH",
"477 716 LINE",
"507 716 LINE"
);
}
);
width = 667;
}
);
leftKerningGroup = A;
note = Agrave;
rightKerningGroup = A;
unicode = 00C0;
},
{
glyphname = Aring;
lastChange = "2017-06-09 11:44:12 +0000";
layers = (
{
layerId = "FDC62533-83BB-4EB8-8B15-51662AB4ACD2";
paths = (
{
closed = 1;
nodes = (
"199 30 LINE",
"123 33 OFFCURVE",
"109 48 OFFCURVE",
"109 66 CURVE SMOOTH",
"109 94 OFFCURVE",
"175 198 OFFCURVE",
"193 234 CURVE",
"426 234 LINE",
"438 144 OFFCURVE",
"448 106 OFFCURVE",
"448 89 CURVE SMOOTH",
"448 53 OFFCURVE",
"433 39 OFFCURVE",
"343 30 CURVE",
"337 0 LINE",
"625 0 LINE",
"631 30 LINE",
"565 35 OFFCURVE",
"554 45 OFFCURVE",
"545 103 CURVE SMOOTH",
"457 688 LINE",
"414 688 LINE",
"112 165 LINE SMOOTH",
"74 100 OFFCURVE",
"26 42 OFFCURVE",
"-63 30 CURVE",
"-70 0 LINE",
"193 0 LINE"
);
},
{
closed = 1;
nodes = (
"384 563 LINE",
"421 270 LINE",
"218 270 LINE",
"382 563 LINE"
);
},
{
closed = 1;
nodes = (
"357 759 OFFCURVE",
"402 716 OFFCURVE",
"457 716 CURVE SMOOTH",
"511 716 OFFCURVE",
"556 760 OFFCURVE",
"556 815 CURVE SMOOTH",
"556 869 OFFCURVE",
"512 915 OFFCURVE",
"457 915 CURVE SMOOTH",
"401 915 OFFCURVE",
"357 870 OFFCURVE",
"357 815 CURVE SMOOTH"
);
},
{
closed = 1;
nodes = (
"393 850 OFFCURVE",
"420 879 OFFCURVE",
"456 879 CURVE SMOOTH",
"491 879 OFFCURVE",
"520 850 OFFCURVE",
"520 816 CURVE SMOOTH",
"520 780 OFFCURVE",
"491 752 OFFCURVE",
"456 752 CURVE SMOOTH",
"420 752 OFFCURVE",
"393 780 OFFCURVE",
"393 816 CURVE SMOOTH"
);
}
);
width = 667;
}
);
leftKerningGroup = A;
note = Aring;
rightKerningGroup = A;
unicode = 00C5;
},
{
glyphname = Atilde;
lastChange = "2017-06-09 11:44:12 +0000";
layers = (
{
layerId = "FDC62533-83BB-4EB8-8B15-51662AB4ACD2";
paths = (
{
closed = 1;
nodes = (
"199 30 LINE",
"123 33 OFFCURVE",
"109 48 OFFCURVE",
"109 66 CURVE SMOOTH",
"109 94 OFFCURVE",
"175 198 OFFCURVE",
"193 234 CURVE",
"426 234 LINE",
"438 144 OFFCURVE",
"448 106 OFFCURVE",
"448 89 CURVE SMOOTH",
"448 53 OFFCURVE",
"433 39 OFFCURVE",
"343 30 CURVE",
"337 0 LINE",
"625 0 LINE",
"631 30 LINE",
"565 35 OFFCURVE",
"554 45 OFFCURVE",
"545 103 CURVE SMOOTH",
"457 688 LINE",
"414 688 LINE",
"112 165 LINE SMOOTH",
"74 100 OFFCURVE",
"26 42 OFFCURVE",
"-63 30 CURVE",
"-70 0 LINE",
"193 0 LINE"
);
},
{
closed = 1;
nodes = (
"384 563 LINE",
"421 270 LINE",
"218 270 LINE",
"382 563 LINE"
);
},
{
closed = 1;
nodes = (
"333 772 OFFCURVE",
"349 788 OFFCURVE",
"376 788 CURVE SMOOTH",
"401 788 OFFCURVE",
"427 777 OFFCURVE",
"452 765 CURVE SMOOTH",
"477 753 OFFCURVE",
"502 742 OFFCURVE",
"525 742 CURVE SMOOTH",
"572 742 OFFCURVE",
"609 779 OFFCURVE",
"624 848 CURVE",
"595 848 LINE",
"584 814 OFFCURVE",
"571 803 OFFCURVE",
"537 803 CURVE SMOOTH",
"520 803 OFFCURVE",
"500 814 OFFCURVE",
"477 825 CURVE SMOOTH",
"454 836 OFFCURVE",
"426 846 OFFCURVE",
"394 846 CURVE SMOOTH",
"343 846 OFFCURVE",
"311 809 OFFCURVE",
"296 740 CURVE",
"325 740 LINE"
);
}
);
width = 667;
}
);
leftKerningGroup = A;
note = Atilde;
rightKerningGroup = A;
unicode = 00C3;
},
{
glyphname = Ccedilla;
lastChange = "2017-06-09 11:44:12 +0000";
layers = (
{
layerId = "FDC62533-83BB-4EB8-8B15-51662AB4ACD2";
paths = (
{
closed = 1;
nodes = (
"532 130 OFFCURVE",
"454 24 OFFCURVE",
"324 24 CURVE SMOOTH",
"234 24 OFFCURVE",
"156 64 OFFCURVE",
"157 204 CURVE SMOOTH",
"158 444 OFFCURVE",
"274 664 OFFCURVE",
"462 664 CURVE SMOOTH",
"602 664 OFFCURVE",
"620 566 OFFCURVE",
"621 442 CURVE",
"646 444 LINE",
"706 684 LINE",
"677 684 LINE",
"659 659 OFFCURVE",
"647 632 OFFCURVE",
"637 632 CURVE SMOOTH",
"625 632 OFFCURVE",
"586 700 OFFCURVE",
"466 700 CURVE SMOOTH",
"276 700 OFFCURVE",
"47 516 OFFCURVE",
"47 286 CURVE SMOOTH",
"47 123 OFFCURVE",
"151 0 OFFCURVE",
"294 -12 CURVE",
"242 -92 LINE",
"251 -100 LINE",
"263 -96 OFFCURVE",
"273 -94 OFFCURVE",
"285 -94 CURVE SMOOTH",
"316 -94 OFFCURVE",
"332 -114 OFFCURVE",
"332 -135 CURVE SMOOTH",
"332 -158 OFFCURVE",
"310 -176 OFFCURVE",
"277 -176 CURVE SMOOTH",
"257 -176 OFFCURVE",
"231 -170 OFFCURVE",
"209 -160 CURVE",
"192 -190 LINE",
"210 -202 OFFCURVE",
"250 -212 OFFCURVE",
"286 -212 CURVE SMOOTH",
"355 -212 OFFCURVE",
"404 -179 OFFCURVE",
"404 -126 CURVE SMOOTH",
"404 -80 OFFCURVE",
"362 -58 OFFCURVE",
"326 -58 CURVE SMOOTH",
"317 -58 OFFCURVE",
"308 -59 OFFCURVE",
"300 -62 CURVE",
"298 -60 LINE",
"331 -12 LINE",
"473 -4 OFFCURVE",
"570 114 OFFCURVE",
"607 251 CURVE",
"572 254 LINE"
);
}
);
width = 667;
}
);
note = Ccedilla;
unicode = 00C7;
},
{
glyphname = Eacute;
lastChange = "2017-06-09 11:44:12 +0000";
layers = (
{
layerId = "FDC62533-83BB-4EB8-8B15-51662AB4ACD2";
paths = (
{
closed = 1;
nodes = (
"556 252 LINE",
"497 104 OFFCURVE",
"414 30 OFFCURVE",
"245 30 CURVE SMOOTH",
"194 30 OFFCURVE",
"178 46 OFFCURVE",
"178 72 CURVE SMOOTH",
"178 93 OFFCURVE",
"191 131 OFFCURVE",
"199 160 CURVE SMOOTH",
"248 348 LINE",
"359 346 OFFCURVE",
"375 342 OFFCURVE",
"375 224 CURVE",
"403 224 LINE",
"472 498 LINE",
"443 498 LINE",
"402 402 OFFCURVE",
"380 380 OFFCURVE",
"258 384 CURVE",
"308 578 LINE SMOOTH",
"321 630 OFFCURVE",
"344 658 OFFCURVE",
"432 658 CURVE SMOOTH",
"557 658 OFFCURVE",
"602 606 OFFCURVE",
"602 496 CURVE SMOOTH",
"602 480 OFFCURVE",
"600 460 OFFCURVE",
"600 444 CURVE",
"630 444 LINE",
"689 688 LINE",
"141 688 LINE",
"133 658 LINE",
"199 656 OFFCURVE",
"212 645 OFFCURVE",
"212 610 CURVE SMOOTH",
"212 593 OFFCURVE",
"199 550 OFFCURVE",
"188 509 CURVE SMOOTH",
"85 110 LINE SMOOTH",
"70 51 OFFCURVE",
"46 31 OFFCURVE",
"-34 30 CURVE",
"-41 0 LINE",
"517 0 LINE",
"589 252 LINE"
);
},
{
closed = 1;
nodes = (
"428 716 LINE",
"598 822 LINE SMOOTH",
"610 830 OFFCURVE",
"616 835 OFFCURVE",
"616 851 CURVE SMOOTH",
"616 875 OFFCURVE",
"600 888 OFFCURVE",
"580 888 CURVE SMOOTH",
"566 888 OFFCURVE",
"563 883 OFFCURVE",
"532 853 CURVE SMOOTH",
"393 716 LINE"
);
}
);
width = 667;
}
);
note = Eacute;
unicode = 00C9;
},
{
glyphname = Ecircumflex;
lastChange = "2017-06-09 11:44:12 +0000";
layers = (
{
layerId = "FDC62533-83BB-4EB8-8B15-51662AB4ACD2";
paths = (
{
closed = 1;
nodes = (
"556 252 LINE",
"497 104 OFFCURVE",
"414 30 OFFCURVE",
"245 30 CURVE SMOOTH",
"194 30 OFFCURVE",
"178 46 OFFCURVE",
"178 72 CURVE SMOOTH",
"178 93 OFFCURVE",
"191 131 OFFCURVE",
"199 160 CURVE SMOOTH",
"248 348 LINE",
"359 346 OFFCURVE",
"375 342 OFFCURVE",
"375 224 CURVE",
"403 224 LINE",
"472 498 LINE",
"443 498 LINE",
"402 402 OFFCURVE",
"380 380 OFFCURVE",
"258 384 CURVE",
"308 578 LINE SMOOTH",
"321 630 OFFCURVE",
"344 658 OFFCURVE",
"432 658 CURVE SMOOTH",
"557 658 OFFCURVE",
"602 606 OFFCURVE",
"602 496 CURVE SMOOTH",
"602 480 OFFCURVE",
"600 460 OFFCURVE",
"600 444 CURVE",
"630 444 LINE",
"689 688 LINE",
"141 688 LINE",
"133 658 LINE",
"199 656 OFFCURVE",
"212 645 OFFCURVE",
"212 610 CURVE SMOOTH",
"212 593 OFFCURVE",
"199 550 OFFCURVE",
"188 509 CURVE SMOOTH",
"85 110 LINE SMOOTH",
"70 51 OFFCURVE",
"46 31 OFFCURVE",
"-34 30 CURVE",
"-41 0 LINE",
"517 0 LINE",
"589 252 LINE"
);
},
{
closed = 1;
nodes = (
"298 716 LINE",
"336 716 LINE",
"474 820 LINE",
"556 716 LINE",
"592 716 LINE",
"504 884 LINE",
"455 884 LINE"
);
}
);
width = 667;
}
);
note = Ecircumflex;
unicode = 00CA;
},
{
glyphname = Edieresis;
lastChange = "2017-06-09 11:44:12 +0000";
layers = (
{
layerId = "FDC62533-83BB-4EB8-8B15-51662AB4ACD2";
paths = (
{
closed = 1;
nodes = (
"556 252 LINE",
"497 104 OFFCURVE",
"414 30 OFFCURVE",
"245 30 CURVE SMOOTH",
"194 30 OFFCURVE",
"178 46 OFFCURVE",
"178 72 CURVE SMOOTH",
"178 93 OFFCURVE",
"191 131 OFFCURVE",
"199 160 CURVE SMOOTH",
"248 348 LINE",
"359 346 OFFCURVE",
"375 342 OFFCURVE",
"375 224 CURVE",
"403 224 LINE",
"472 498 LINE",
"443 498 LINE",
"402 402 OFFCURVE",
"380 380 OFFCURVE",
"258 384 CURVE",
"308 578 LINE SMOOTH",
"321 630 OFFCURVE",
"344 658 OFFCURVE",
"432 658 CURVE SMOOTH",
"557 658 OFFCURVE",
"602 606 OFFCURVE",
"602 496 CURVE SMOOTH",
"602 480 OFFCURVE",
"600 460 OFFCURVE",
"600 444 CURVE",
"630 444 LINE",
"689 688 LINE",
"141 688 LINE",
"133 658 LINE",
"199 656 OFFCURVE",
"212 645 OFFCURVE",
"212 610 CURVE SMOOTH",
"212 593 OFFCURVE",
"199 550 OFFCURVE",
"188 509 CURVE SMOOTH",
"85 110 LINE SMOOTH",
"70 51 OFFCURVE",
"46 31 OFFCURVE",
"-34 30 CURVE",
"-41 0 LINE",
"517 0 LINE",
"589 252 LINE"
);
},
{
closed = 1;
nodes = (
"320 753 OFFCURVE",
"341 732 OFFCURVE",
"370 732 CURVE SMOOTH",
"397 732 OFFCURVE",
"418 755 OFFCURVE",
"418 782 CURVE SMOOTH",
"418 807 OFFCURVE",
"395 830 OFFCURVE",
"370 830 CURVE SMOOTH",
"343 830 OFFCURVE",
"320 809 OFFCURVE",
"320 782 CURVE SMOOTH"
);
},
{
closed = 1;
nodes = (
"521 753 OFFCURVE",
"542 732 OFFCURVE",
"571 732 CURVE SMOOTH",
"598 732 OFFCURVE",
"619 755 OFFCURVE",
"619 782 CURVE SMOOTH",
"619 807 OFFCURVE",
"596 830 OFFCURVE",
"571 830 CURVE SMOOTH",
"544 830 OFFCURVE",
"521 809 OFFCURVE",
"521 782 CURVE SMOOTH"
);
}
);
width = 667;
}
);
note = Edieresis;
unicode = 00CB;
},
{
glyphname = Egrave;
lastChange = "2017-06-09 11:44:12 +0000";
layers = (
{
layerId = "FDC62533-83BB-4EB8-8B15-51662AB4ACD2";
paths = (
{
closed = 1;
nodes = (
"556 252 LINE",
"497 104 OFFCURVE",
"414 30 OFFCURVE",
"245 30 CURVE SMOOTH",
"194 30 OFFCURVE",
"178 46 OFFCURVE",
"178 72 CURVE SMOOTH",
"178 93 OFFCURVE",
"191 131 OFFCURVE",
"199 160 CURVE SMOOTH",
"248 348 LINE",
"359 346 OFFCURVE",
"375 342 OFFCURVE",
"375 224 CURVE",
"403 224 LINE",
"472 498 LINE",
"443 498 LINE",
"402 402 OFFCURVE",
"380 380 OFFCURVE",
"258 384 CURVE",
"308 578 LINE SMOOTH",
"321 630 OFFCURVE",
"344 658 OFFCURVE",
"432 658 CURVE SMOOTH",
"557 658 OFFCURVE",
"602 606 OFFCURVE",
"602 496 CURVE SMOOTH",
"602 480 OFFCURVE",
"600 460 OFFCURVE",
"600 444 CURVE",
"630 444 LINE",
"689 688 LINE",
"141 688 LINE",
"133 658 LINE",
"199 656 OFFCURVE",
"212 645 OFFCURVE",
"212 610 CURVE SMOOTH",
"212 593 OFFCURVE",
"199 550 OFFCURVE",
"188 509 CURVE SMOOTH",
"85 110 LINE SMOOTH",
"70 51 OFFCURVE",
"46 31 OFFCURVE",
"-34 30 CURVE",
"-41 0 LINE",
"517 0 LINE",
"589 252 LINE"
);
},
{
closed = 1;
nodes = (
"426 843 LINE SMOOTH",
"396 882 OFFCURVE",
"388 888 OFFCURVE",
"369 888 CURVE SMOOTH",
"350 888 OFFCURVE",
"334 874 OFFCURVE",
"334 850 CURVE SMOOTH",
"334 829 OFFCURVE",
"355 821 OFFCURVE",
"411 779 CURVE SMOOTH",
"494 716 LINE",
"524 716 LINE"
);
}
);
width = 667;
}
);
note = Egrave;
unicode = 00C8;
},
{
glyphname = Iacute;
lastChange = "2017-06-09 11:44:12 +0000";
layers = (
{
layerId = "FDC62533-83BB-4EB8-8B15-51662AB4ACD2";
paths = (
{
closed = 1;
nodes = (
"282 30 LINE",
"212 26 OFFCURVE",
"192 42 OFFCURVE",
"192 72 CURVE SMOOTH",
"192 102 OFFCURVE",
"219 184 OFFCURVE",
"235 247 CURVE SMOOTH",
"323 589 LINE SMOOTH",
"335 636 OFFCURVE",
"354 658 OFFCURVE",
"438 658 CURVE",
"442 688 LINE",
"153 688 LINE",
"145 658 LINE",
"212 658 OFFCURVE",
"225 638 OFFCURVE",
"225 618 CURVE SMOOTH",
"225 596 OFFCURVE",
"212 546 OFFCURVE",
"198 494 CURVE SMOOTH",
"97 105 LINE SMOOTH",
"80 41 OFFCURVE",
"56 26 OFFCURVE",
"-14 30 CURVE",
"-24 0 LINE",
"274 0 LINE"
);
},
{
closed = 1;
nodes = (
"289 716 LINE",
"459 822 LINE SMOOTH",
"471 830 OFFCURVE",
"477 835 OFFCURVE",
"477 851 CURVE SMOOTH",
"477 875 OFFCURVE",
"461 888 OFFCURVE",
"441 888 CURVE SMOOTH",
"427 888 OFFCURVE",
"424 883 OFFCURVE",
"393 853 CURVE SMOOTH",
"254 716 LINE"
);
}
);
width = 389;
}
);
note = Iacute;
unicode = 00CD;
},
{
glyphname = Icircumflex;
lastChange = "2017-06-09 11:44:12 +0000";
layers = (
{
layerId = "FDC62533-83BB-4EB8-8B15-51662AB4ACD2";
paths = (
{
closed = 1;
nodes = (
"282 30 LINE",
"212 26 OFFCURVE",
"192 42 OFFCURVE",
"192 72 CURVE SMOOTH",
"192 102 OFFCURVE",
"219 184 OFFCURVE",
"235 247 CURVE SMOOTH",
"323 589 LINE SMOOTH",
"335 636 OFFCURVE",
"354 658 OFFCURVE",
"438 658 CURVE",
"442 688 LINE",
"153 688 LINE",
"145 658 LINE",
"212 658 OFFCURVE",
"225 638 OFFCURVE",
"225 618 CURVE SMOOTH",
"225 596 OFFCURVE",
"212 546 OFFCURVE",
"198 494 CURVE SMOOTH",
"97 105 LINE SMOOTH",
"80 41 OFFCURVE",
"56 26 OFFCURVE",
"-14 30 CURVE",
"-24 0 LINE",
"274 0 LINE"
);
},
{
closed = 1;
nodes = (
"159 716 LINE",
"197 716 LINE",
"335 820 LINE",
"417 716 LINE",
"453 716 LINE",
"365 884 LINE",
"316 884 LINE"
);
}
);
width = 389;
}
);
note = Icircumflex;
unicode = 00CE;
},
{
glyphname = Idieresis;
lastChange = "2017-06-09 11:44:12 +0000";
layers = (
{
layerId = "FDC62533-83BB-4EB8-8B15-51662AB4ACD2";
paths = (
{
closed = 1;
nodes = (
"282 30 LINE",
"212 26 OFFCURVE",
"192 42 OFFCURVE",
"192 72 CURVE SMOOTH",
"192 102 OFFCURVE",
"219 184 OFFCURVE",
"235 247 CURVE SMOOTH",
"323 589 LINE SMOOTH",
"335 636 OFFCURVE",
"354 658 OFFCURVE",
"438 658 CURVE",
"442 688 LINE",
"153 688 LINE",
"145 658 LINE",
"212 658 OFFCURVE",
"225 638 OFFCURVE",
"225 618 CURVE SMOOTH",
"225 596 OFFCURVE",
"212 546 OFFCURVE",
"198 494 CURVE SMOOTH",
"97 105 LINE SMOOTH",
"80 41 OFFCURVE",
"56 26 OFFCURVE",
"-14 30 CURVE",
"-24 0 LINE",
"274 0 LINE"
);
},
{
closed = 1;
nodes = (
"181 753 OFFCURVE",
"202 732 OFFCURVE",
"231 732 CURVE SMOOTH",
"258 732 OFFCURVE",
"279 755 OFFCURVE",
"279 782 CURVE SMOOTH",
"279 807 OFFCURVE",
"256 830 OFFCURVE",
"231 830 CURVE SMOOTH",
"204 830 OFFCURVE",
"181 809 OFFCURVE",
"181 782 CURVE SMOOTH"
);
},
{
closed = 1;
nodes = (
"382 753 OFFCURVE",
"403 732 OFFCURVE",
"432 732 CURVE SMOOTH",
"459 732 OFFCURVE",
"480 755 OFFCURVE",
"480 782 CURVE SMOOTH",
"480 807 OFFCURVE",
"457 830 OFFCURVE",
"432 830 CURVE SMOOTH",
"405 830 OFFCURVE",
"382 809 OFFCURVE",
"382 782 CURVE SMOOTH"
);
}
);
width = 389;
}
);
note = Idieresis;
unicode = 00CF;
},
{
glyphname = Igrave;
lastChange = "2017-06-09 11:44:12 +0000";
layers = (
{
layerId = "FDC62533-83BB-4EB8-8B15-51662AB4ACD2";
paths = (
{
closed = 1;
nodes = (
"282 30 LINE",
"212 26 OFFCURVE",
"192 42 OFFCURVE",
"192 72 CURVE SMOOTH",
"192 102 OFFCURVE",
"219 184 OFFCURVE",
"235 247 CURVE SMOOTH",
"323 589 LINE SMOOTH",
"335 636 OFFCURVE",
"354 658 OFFCURVE",
"438 658 CURVE",
"442 688 LINE",
"153 688 LINE",
"145 658 LINE",
"212 658 OFFCURVE",
"225 638 OFFCURVE",
"225 618 CURVE SMOOTH",
"225 596 OFFCURVE",
"212 546 OFFCURVE",
"198 494 CURVE SMOOTH",
"97 105 LINE SMOOTH",
"80 41 OFFCURVE",
"56 26 OFFCURVE",
"-14 30 CURVE",
"-24 0 LINE",
"274 0 LINE"
);
},
{
closed = 1;
nodes = (
"287 843 LINE SMOOTH",
"257 882 OFFCURVE",
"249 888 OFFCURVE",
"230 888 CURVE SMOOTH",
"211 888 OFFCURVE",
"195 874 OFFCURVE",
"195 850 CURVE SMOOTH",
"195 829 OFFCURVE",
"216 821 OFFCURVE",
"272 779 CURVE SMOOTH",
"355 716 LINE",
"385 716 LINE"
);
}
);
width = 389;
}
);
note = Igrave;
unicode = 00CC;
},
{
glyphname = Ntilde;
lastChange = "2017-06-09 11:44:12 +0000";
layers = (
{
layerId = "FDC62533-83BB-4EB8-8B15-51662AB4ACD2";
paths = (
{
closed = 1;
nodes = (
"204 30 LINE",
"139 30 OFFCURVE",
"116 49 OFFCURVE",
"116 84 CURVE SMOOTH",
"116 110 OFFCURVE",
"128 147 OFFCURVE",
"137 183 CURVE SMOOTH",
"235 562 LINE",
"237 562 LINE",
"488 0 LINE",
"525 0 LINE",
"675 564 LINE SMOOTH",
"692 629 OFFCURVE",
"724 658 OFFCURVE",
"789 658 CURVE",
"794 688 LINE",
"563 688 LINE",
"556 658 LINE",
"624 654 OFFCURVE",
"639 626 OFFCURVE",
"639 606 CURVE SMOOTH",
"639 582 OFFCURVE",
"633 558 OFFCURVE",
"613 481 CURVE SMOOTH",
"528 156 LINE",
"526 156 LINE",
"289 688 LINE",
"127 688 LINE",
"120 658 LINE",
"195 655 OFFCURVE",
"209 632 OFFCURVE",
"209 612 CURVE SMOOTH",
"209 590 OFFCURVE",
"194 544 OFFCURVE",
"181 497 CURVE SMOOTH",
"73 102 LINE SMOOTH",
"61 57 OFFCURVE",
"23 36 OFFCURVE",
"-43 30 CURVE",
"-50 0 LINE",
"198 0 LINE"
);
},
{
closed = 1;
nodes = (
"377 772 OFFCURVE",
"393 788 OFFCURVE",
"420 788 CURVE SMOOTH",
"445 788 OFFCURVE",
"471 777 OFFCURVE",
"496 765 CURVE SMOOTH",
"521 753 OFFCURVE",
"546 742 OFFCURVE",
"569 742 CURVE SMOOTH",
"616 742 OFFCURVE",
"653 779 OFFCURVE",
"668 848 CURVE",
"639 848 LINE",
"628 814 OFFCURVE",
"615 803 OFFCURVE",
"581 803 CURVE SMOOTH",
"564 803 OFFCURVE",
"544 814 OFFCURVE",
"521 825 CURVE SMOOTH",
"498 836 OFFCURVE",
"470 846 OFFCURVE",
"438 846 CURVE SMOOTH",
"387 846 OFFCURVE",
"355 809 OFFCURVE",
"340 740 CURVE",
"369 740 LINE"
);
}
);
width = 722;
}
);
note = Ntilde;
unicode = 00D1;
},
{
glyphname = Oacute;
lastChange = "2017-06-09 11:44:12 +0000";
layers = (
{
layerId = "FDC62533-83BB-4EB8-8B15-51662AB4ACD2";
paths = (
{
closed = 1;
nodes = (
"695 566 OFFCURVE",
"586 700 OFFCURVE",
"444 700 CURVE SMOOTH",
"252 700 OFFCURVE",
"52 500 OFFCURVE",
"52 302 CURVE SMOOTH",
"52 104 OFFCURVE",
"156 -12 OFFCURVE",
"296 -12 CURVE SMOOTH",
"496 -12 OFFCURVE",
"695 184 OFFCURVE",
"695 400 CURVE SMOOTH"
);
},
{
closed = 1;
nodes = (
"597 336 OFFCURVE",
"518 24 OFFCURVE",
"306 24 CURVE SMOOTH",
"224 24 OFFCURVE",
"150 66 OFFCURVE",
"150 192 CURVE SMOOTH",
"150 336 OFFCURVE",
"218 664 OFFCURVE",
"440 664 CURVE SMOOTH",
"542 664 OFFCURVE",
"597 594 OFFCURVE",
"597 476 CURVE SMOOTH"
);
},
{
closed = 1;
nodes = (
"455 716 LINE",
"625 822 LINE SMOOTH",
"637 830 OFFCURVE",
"643 835 OFFCURVE",
"643 851 CURVE SMOOTH",
"643 875 OFFCURVE",
"627 888 OFFCURVE",
"607 888 CURVE SMOOTH",
"593 888 OFFCURVE",
"590 883 OFFCURVE",
"559 853 CURVE SMOOTH",
"420 716 LINE"
);
}
);
width = 722;
}
);
note = Oacute;
unicode = 00D3;
},
{
glyphname = Ocircumflex;
lastChange = "2017-06-09 11:44:12 +0000";
layers = (
{
layerId = "FDC62533-83BB-4EB8-8B15-51662AB4ACD2";
paths = (
{
closed = 1;
nodes = (
"695 566 OFFCURVE",
"586 700 OFFCURVE",
"444 700 CURVE SMOOTH",
"252 700 OFFCURVE",
"52 500 OFFCURVE",
"52 302 CURVE SMOOTH",
"52 104 OFFCURVE",
"156 -12 OFFCURVE",
"296 -12 CURVE SMOOTH",
"496 -12 OFFCURVE",
"695 184 OFFCURVE",
"695 400 CURVE SMOOTH"
);
},
{
closed = 1;
nodes = (
"597 336 OFFCURVE",
"518 24 OFFCURVE",
"306 24 CURVE SMOOTH",
"224 24 OFFCURVE",
"150 66 OFFCURVE",
"150 192 CURVE SMOOTH",
"150 336 OFFCURVE",
"218 664 OFFCURVE",
"440 664 CURVE SMOOTH",
"542 664 OFFCURVE",
"597 594 OFFCURVE",
"597 476 CURVE SMOOTH"
);
},
{
closed = 1;
nodes = (
"325 716 LINE",
"363 716 LINE",
"501 820 LINE",
"583 716 LINE",
"619 716 LINE",
"531 884 LINE",
"482 884 LINE"
);
}
);
width = 722;
}
);
note = Ocircumflex;
unicode = 00D4;
},
